<svg id="Layer_1" data-name="Layer 1" xmlns="http://www.w3.org/2000/svg" viewBox="0 0 50 50"><path d="M47.75,17.67572c-.00491.25081-.01408.50162-.01411.75243q-.00118,10.11833-.00115,20.23667a4.51831,4.51831,0,0,1-4.54231,4.53454q-18.21955.00106-36.43912-.00055a4.52181,4.52181,0,0,1-4.488-4.48021q-.00393-10.226-.0011-20.452c0-.197-.00926-.394-.0142-.59095a4.56832,4.56832,0,0,1,3.49394-3.92065A4.645,4.645,0,0,1,6.96649,13.609q2.50409.00263,5.00818.00082a2.00167,2.00167,0,0,0,2.16193-1.547Q14.775,10.157,15.4143,8.25153a1.9903,1.9903,0,0,1,2.019-1.45082q7.56612-.0009,15.13224-.00025a1.99256,1.99256,0,0,1,2.01961,1.45108c.43578,1.28616.863,2.57523,1.29568,3.86245a1.97423,1.97423,0,0,0,2.09084,1.49515c1.54374.00239,3.09017.05912,4.63063-.01191A4.7271,4.7271,0,0,1,47.75,17.67572ZM25.01381,15.92346a11.36423,11.36423,0,1,0,11.36873,11.38A11.35319,11.35319,0,0,0,25.01381,15.92346Zm16.5809,2.26811a1.59462,1.59462,0,0,0-1.59248,1.61311A1.61211,1.61211,0,0,0,41.619,21.34362a1.57613,1.57613,0,1,0-.02431-3.15205Z" fill="#fb4a04"/><path d="M24.99832,34.07224A6.803,6.803,0,1,1,31.814,27.26247,6.71578,6.71578,0,0,1,24.99832,34.07224Z" fill="#fb4a04"/></svg>