<svg id="Layer_1" data-name="Layer 1" xmlns="http://www.w3.org/2000/svg" viewBox="0 0 100.08824 99.82353"><g id="Group_1075" data-name="Group 1075"><path id="Path_11835" data-name="Path 11835" d="M52.76361,3.24121a24.87228,24.87228,0,0,0,3.0068.61957,18.46757,18.46757,0,0,1,10.27366,6.20508l.18914.175-.0083-.00946c.266.473.52263.95181.79932,1.41884a16.318,16.318,0,0,1,1.76172,5.4129,23.77291,23.77291,0,0,1-.05441,3.112,75.35317,75.35317,0,0,0-.66567,7.741,6.6792,6.6792,0,0,0-1.84211.38308A9.49308,9.49308,0,0,0,65.0603,25.225a3.992,3.992,0,0,1-.59119-2.46052,17.19971,17.19971,0,0,0-.11821-3.851c-.473-3.8569-2.645-5.76052-6.52786-5.77115a11.05245,11.05245,0,0,0-4.072.59118A10.28656,10.28656,0,0,1,46.6769,13.587a.53623.53623,0,0,1-.0319-.11824c.07924-.35471-.19629-.54625-.37483-.78746a6.17549,6.17549,0,0,1,.63022-8.3097c.39843-.40674,1.057-.5096,1.24978-1.12562Z" fill="#4a4970"/><path id="Path_11836" data-name="Path 11836" d="M48.15474,3.24121c-.19275.616-.8525.71889-1.25093,1.12562a6.1755,6.1755,0,0,0-.63022,8.30971c.17854.23647.45284.428.37483.78746a15.08923,15.08923,0,0,0-4.72949-.28259,5.336,5.336,0,0,0-4.63372,3.49864,10.53562,10.53562,0,0,0-.726,4.2116,8.326,8.326,0,0,1-1.12327,5.4389,2.661,2.661,0,0,0-.27192.67632c-.42448,1.25331-.42325,1.25331-1.74519.91752a25.48732,25.48732,0,0,1-.188-11.23253,6.03,6.03,0,0,1,2.67333-3.33665.8277.8277,0,0,0,.42686-.55453c.05672-1.15754.44224-2.2536.58527-3.39223.09107-.0804.214-.14425.26839-.24475,1.89176-3.55657,5.22959-4.80516,8.88077-5.56542a4.71074,4.71074,0,0,0,1.7239-.363Z" fill="#3b3b60"/><path id="Path_11837" data-name="Path 11837" d="M36.91512,9.41438c-.143,1.13862-.52855,2.23468-.59119,3.39222a.8277.8277,0,0,1-.42686.55454,6.02988,6.02988,0,0,0-2.67333,3.33665,6.99256,6.99256,0,0,0-5.52995,6.3848c-.01421,5.15869-.02836,10.31737.01184,15.47724a6.05736,6.05736,0,0,0,1.53707,3.75284,7.24309,7.24309,0,0,0,4.93284,2.7301c.64914.07685.7177.37008.7094.89506-.02245,1.258-.052,2.51963.00945,3.77649.03782.76027-.24471.95891-.94588.91279a18.39316,18.39316,0,0,0-7.05287.91516,20.40064,20.40064,0,0,0-11.54,9.42114A18.277,18.277,0,0,0,12.79,70.22729L10.90765,73.973A36.39806,36.39806,0,0,1,6.71024,63.23475c-3.73626-17.1302.69763-31.86253,13.323-44.0185A42.13268,42.13268,0,0,1,36.91512,9.41438Z" fill="#fc4903"/><path id="Path_11838" data-name="Path 11838" d="M68.786,17.062a16.31735,16.31735,0,0,0-1.763-5.4129c-.27668-.467-.53324-.9459-.79809-1.41884a11.52971,11.52971,0,0,1,3.488,1.33607C83.53953,18.43231,92.107,29.39052,94.979,44.59109a43.81846,43.81846,0,0,1-4.2565,28.49515c-.16433.32633-.36892.63257-.55453.9459l-1.83158-3.69847a8.25117,8.25117,0,0,0-.21635-2.6426c-1.569-7.77172-5.98395-13.18934-13.45654-15.99394a18.2144,18.2144,0,0,0-7.56721-1.076c-.69171.04139-.91752-.19155-.88562-.882.052-1.10315.013-2.20986.01421-3.31064,0-1.29351,0-1.29351,1.29236-1.51816.0591-.01065.11821,0,.1833-.013a7.39694,7.39694,0,0,0,5.73808-6.83647c-.09338-4.87846-.03428-9.76047-.01537-14.6413a5.6917,5.6917,0,0,0-.40081-2.24651A6.26665,6.26665,0,0,0,68.786,17.062Z" fill="#fc4903"/><path id="Path_11839" data-name="Path 11839" d="M41.511,96.6769A42.16532,42.16532,0,0,1,31.391,93.34142a3.76585,3.76585,0,0,0,2.01827-4.77207,4.45292,4.45292,0,0,1,1.28406-4.34877,28.37628,28.37628,0,0,1,3.7268-3.10491,41.0845,41.0845,0,0,1,3.82027-1.96274,19.8528,19.8528,0,0,1,5.193-1.3739c0,1.86578-.01183,3.73276-.0106,5.59851,0,.75673.2826,1.20012,1.14809,1.167,1.22257-.04612,2.44751-.02956,3.66532,0,.79217.01656,1.0913-.34644,1.08069-1.11378-.02483-1.8918-.01184-3.79425-.01422-5.69074a14.97952,14.97952,0,0,1,2.77385.50369A25.78653,25.78653,0,0,1,62.686,81.08139a39.67685,39.67685,0,0,1,3.7079,3.13093,4.50132,4.50132,0,0,1,1.29351,4.35584c-.52141,2.34584.00707,3.54712,2.01,4.78271a41.646,41.646,0,0,1-10.1164,3.34137,7.03659,7.03659,0,0,0-.07686-.82768A9.09866,9.09866,0,0,0,41.511,96.6769Z" fill="#6392e3"/><path id="Path_11840" data-name="Path 11840" d="M88.33642,70.33369l1.8362,3.69491a40.019,40.019,0,0,1-5.43888,7.9219c-.43509.50961-.91514.98255-1.3739,1.47324-.69763-1.59263-1.35853-3.20187-2.09989-4.77322A4.09571,4.09571,0,0,0,76.3756,76.404c-.28968.07332-.56045.266-.8844.175a3.78359,3.78359,0,0,0-4.28848-2.88972,7.95984,7.95984,0,0,0-3.72565,1.61512l-.81468-.34882c-.21989-.16435-.42687-.34643-.65975-.4895a29.93574,29.93574,0,0,0-12.15-4.20213c.16317-.61247.79808-.94588.93881-1.57254.26369.15491.53323.29913.78748.47295a2.07629,2.07629,0,0,0,3.31062-.54273c.71769-.914,1.50163-1.77356,2.2347-2.67924,1.81491-2.22994,3.75639-4.357,5.47085-6.66859A33.92105,33.92105,0,0,1,72.96329,62.076a13.103,13.103,0,0,0,6.1412,2.19093,6.17335,6.17335,0,0,1,1.33962.2944A13.80641,13.80641,0,0,1,88.33642,70.33369Z" fill="#6392e3"/><path id="Path_11841" data-name="Path 11841" d="M41.511,96.67573a9.10557,9.10557,0,0,1,18.00517-.81465,7.02042,7.02042,0,0,1,.078.82767,32.56315,32.56315,0,0,1-6.51957.88559,44.61782,44.61782,0,0,1-10.94639-.71888C41.91887,96.80934,41.71673,96.73487,41.511,96.67573Z" fill="#494a71"/><path id="Path_11842" data-name="Path 11842" d="M10.90769,73.96593,12.79,70.22018a2.56747,2.56747,0,0,0,.25063-.266,13.48971,13.48971,0,0,1,10.77968-5.93668c-.14895.75908-.7851,1.20719-1.16815,1.81729a30.69266,30.69266,0,0,0-3.66532,8.44449,32.27719,32.27719,0,0,0-1.22257,7.72326,2.69876,2.69876,0,0,1-.39251,1.037A39.80623,39.80623,0,0,1,11.506,75.18969,2.7417,2.7417,0,0,1,10.90769,73.96593Z" fill="#5e80d2"/><path id="Path_11843" data-name="Path 11843" d="M38.42143,81.1157a28.32946,28.32946,0,0,0-3.72681,3.10492,4.45289,4.45289,0,0,0-1.28405,4.34877,3.76587,3.76587,0,0,1-2.0195,4.76968,27.4782,27.4782,0,0,1-3.74579-1.98165c1.02158-2.44871,2.029-4.9021,3.07414-7.34251a4.208,4.208,0,0,0-.08985-3.955c-.285-.49543-.64675-.94589-.97425-1.41886l3.76232-3.14039,1.00145-.55925Z" fill="#fc4903"/><path id="Path_11844" data-name="Path 11844" d="M66.66356,74.9532l.81468.34881,3.73749,3.1463c-.13834.162-.266.33345-.415.48359a4.12175,4.12175,0,0,0-1.05232,4.86191c1.09844,2.59412,2.22286,5.17641,3.33667,7.76346a21.29048,21.29048,0,0,1-3.37333,1.7842c-2.01005-1.23083-2.53737-2.43687-2.01005-4.78271a4.50128,4.50128,0,0,0-1.29351-4.35584,39.79566,39.79566,0,0,0-3.7079-3.13209Z" fill="#fc4903"/><path id="Path_11845" data-name="Path 11845" d="M29.65058,78.64457c.32749.47294.68934.92225.97425,1.41886a4.20923,4.20923,0,0,1,.08985,3.955c-1.0405,2.44041-2.04787,4.89385-3.07414,7.34252a29.45816,29.45816,0,0,1-5.34665-3.65591c-.23649-.19037-.46468-.39135-.6964-.59118.39135-.02364.473-.3547.59118-.62547.60771-1.39757,1.24624-2.7833,1.79247-4.20451.90691-2.36474,2.29849-3.90892,5.20246-3.676Z" fill="#fbd1ad"/><path id="Path_11846" data-name="Path 11846" d="M75.4923,76.579c.32395.09223.59119-.10168.8844-.175a4.09457,4.09457,0,0,1,4.88435,2.2465c.74252,1.57138,1.40349,3.18058,2.10105,4.77322a32.16081,32.16081,0,0,1-5.51574,4.98015c-.32749,0-.3547-.266-.45169-.48712-.63614-1.48269-1.3254-2.94409-1.90713-4.44688a9.2965,9.2965,0,0,1-1.18237-3.98339c.05795-.92344.70939-1.61631.76734-2.509Z" fill="#fbd1ad"/><path id="Path_11847" data-name="Path 11847" d="M75.07143,76.97623c-.05911.8927-.7094,1.58557-.76735,2.509a9.29121,9.29121,0,0,0,1.18237,3.9834c.58174,1.50279,1.27107,2.96419,1.90714,4.44688.09577.22227.11821.48831.45169.48712a21.94661,21.94661,0,0,1-4.76261,3.15457c-1.11381-2.587-2.23823-5.1705-3.33668-7.76346a4.12175,4.12175,0,0,1,1.05233-4.86191c.15018-.15018.27784-.32161.41618-.48359.16909-.058.33817-.11824.50841-.175A24.94109,24.94109,0,0,1,75.07143,76.97623Z" fill="#f8bc90"/><path id="Path_11848" data-name="Path 11848" d="M29.18,78.61027c-2.8992-.23649-4.29085,1.316-5.20246,3.676-.54622,1.41886-1.18237,2.80694-1.79246,4.20451-.11821.26957-.19391.60183-.59119.62546a30.46565,30.46565,0,0,1-4.23521-4.07681,2.69257,2.69257,0,0,0,.39251-1.03811c.63022-1.04876.97424-2.22759,1.50279-3.32246a4.29189,4.29189,0,0,1,2.69584-2.30326,6.26653,6.26653,0,0,1,3.13562.19864c.16432.24594.44692.28495.68579.40792A17.46619,17.46619,0,0,1,29.18,78.61027Z" fill="#f8bc90"/><path id="Path_11849" data-name="Path 11849" d="M66.23318,10.23967l-.18915-.175C66.14687,10.08005,66.26154,10.08241,66.23318,10.23967Z" fill="#f4585c"/><path id="Path_11850" data-name="Path 11850" d="M46.67916,13.57987a10.28656,10.28656,0,0,0,7.07409.14661,11.05394,11.05394,0,0,1,4.072-.59118c3.8829.01182,6.0502,1.91426,6.52787,5.77115a17.19566,17.19566,0,0,1,.11821,3.851,3.99187,3.99187,0,0,0,.59118,2.46051A9.48913,9.48913,0,0,1,66.226,28.29211a36.36911,36.36911,0,0,1-.36415,5.73568,25.35359,25.35359,0,0,0-.40911,4.34166c-.14895.96481-.27076,1.93436-.45168,2.89208a22.67271,22.67271,0,0,1-3.21725,7.65467A9.02612,9.02612,0,0,0,60.475,50.58808a.75424.75424,0,0,0-.3547.56516c-.629.13243-.91752.6917-1.32541,1.08778a12.22771,12.22771,0,0,1-5.28992,3.1924,2.01009,2.01009,0,0,1-1.329-.03547,8.89855,8.89855,0,0,1-3.87583-3.12027,23.76571,23.76571,0,0,1-4.92931-14.231c-.05318-1.77355-.3736-3.51873-.49542-5.28047a16.77414,16.77414,0,0,1-.11821-4.38069,19.58786,19.58786,0,0,1,1.00737-3.50809c.66566-1.7109.22819-3.52465.33933-5.28874C44.24341,17.28187,44.69986,15.10513,46.67916,13.57987Z" fill="#fbd1ad"/><path id="Path_11851" data-name="Path 11851" d="M46.67912,13.57987c-1.9793,1.52526-2.43568,3.702-2.58109,6.0159-.11114,1.76528.32633,3.57785-.33933,5.28874a19.58114,19.58114,0,0,0-1.00737,3.50809,16.76808,16.76808,0,0,0,.11821,4.38069c.11821,1.76174.441,3.50691.49542,5.28047a23.76565,23.76565,0,0,0,4.92932,14.231A8.89747,8.89747,0,0,0,52.17011,55.405a2.01006,2.01006,0,0,0,1.329.03547,12.22789,12.22789,0,0,0,5.28993-3.1924c.40788-.3961.6964-.95535,1.3254-1.08778a30.12215,30.12215,0,0,0,.76972,4.03779c-.2743.24239-.564.47294-.81937.7307Q55.38725,60.67131,50.724,65.4209l-.3547-.01657-4.08388-4.25654a34.4695,34.4695,0,0,0,.75789-5.36678c.04257-.46585-.37483-.59119-.7177-.70943a10.48622,10.48622,0,0,1-2.30087-1.29234c-1.15517-.75316-2.02657-1.83621-3.14392-2.62959-.0721-.18918-.07448-.41383-.27907-.53442a6.3554,6.3554,0,0,0-1.09252-1.30062c-.19629-.34171-.37483-.69523-.59119-1.02393a20.83668,20.83668,0,0,1-3.29171-9.85507,25.02793,25.02793,0,0,0-.45877-4.3535,3.34966,3.34966,0,0,1-2.88614-.03547h.0083l-.15018-.20455a13.74927,13.74927,0,0,1-1.00383-2.82823,2.36471,2.36471,0,0,1,2.28435-3.08007c1.32187.337,1.31956.33579,1.7452-.91753a2.65971,2.65971,0,0,1,.27192-.67632,8.32775,8.32775,0,0,0,1.12326-5.4389,10.53568,10.53568,0,0,1,.726-4.21161A5.336,5.336,0,0,1,41.9202,13.1908a15.08828,15.08828,0,0,1,4.72948.28258A.53949.53949,0,0,0,46.67912,13.57987Z" fill="#f8bc90"/><path id="Path_11852" data-name="Path 11852" d="M60.89,55.197a30.1354,30.1354,0,0,1-.76973-4.03779.75333.75333,0,0,1,.3547-.56517c1.33962.03783,1.34078.03783,1.32425-1.30061,0-.11825-.01061-.24356-.01653-.36654A22.67905,22.67905,0,0,0,65,41.27219c.18092-.95772.30266-1.92845.45284-2.89208a2.334,2.334,0,0,0,2.81477-1.724q.01266-.05288.023-.10632c.24471-.80992.37007-1.65531.54983-2.483l-.00592-.01657.15018-.20572a10.33457,10.33457,0,0,0,1.04288-2.83179,2.451,2.451,0,0,0-1.95448-3.0919,75.35571,75.35571,0,0,1,.66566-7.741,23.82188,23.82188,0,0,0,.05441-3.112A6.26645,6.26645,0,0,1,73.02478,21.179a5.69443,5.69443,0,0,1,.40081,2.2465c-.01891,4.88083-.078,9.76284.01537,14.64129A7.39814,7.39814,0,0,1,67.7005,44.8926c-.06033.01065-.11821,0-.1833.013-1.29236.22465-1.29236.22583-1.29236,1.51816,0,1.10551.03782,2.21222-.01421,3.31064-.0319.69051.19391.92461.88562.882a18.21453,18.21453,0,0,1,7.5672,1.076C82.13605,54.497,86.551,59.91463,88.12,67.68635a8.24283,8.24283,0,0,1,.21635,2.6426,13.80647,13.80647,0,0,0-7.89116-5.77943,6.17452,6.17452,0,0,0-1.33962-.2944,13.10185,13.10185,0,0,1-6.1412-2.19093A33.94258,33.94258,0,0,0,66.59614,59.262c-.25655-.66331-.90569-.89859-1.42709-1.24266A32.03145,32.03145,0,0,0,60.89,55.197Z" fill="#d23b00"/><path id="Path_11853" data-name="Path 11853" d="M68.06465,27.91493a2.45141,2.45141,0,0,1,1.95448,3.09191,10.34732,10.34732,0,0,1-1.04288,2.83059l-.15018.20573.00592.01656a3.32362,3.32362,0,0,1-2.97483-.02718,36.4232,36.4232,0,0,0,.36415-5.73568A6.67594,6.67594,0,0,1,68.06465,27.91493Z" fill="#f8bc90"/><path id="Path_11854" data-name="Path 11854" d="M33.4165,27.92794A2.3648,2.3648,0,0,0,31.13215,31.008a13.7616,13.7616,0,0,0,1.00267,2.82823l.15018.20456h-.0083c.13127.62665.27546,1.251.389,1.88a2.65917,2.65917,0,0,0,2.789,2.52265q.08367-.0042.16692-.01366a20.83846,20.83846,0,0,0,3.29171,9.85507c.21405.32989.39374.68222.59119,1.02393-.45876,1.154-.34055,1.2947,1.09252,1.30061.20452.11825.20575.34527.27784.53443a25.90726,25.90726,0,0,1-.67042,4.04253,1.41883,1.41883,0,0,0-.43278.11825q-2.47589,1.70618-4.93877,3.42887a.693.693,0,0,0-.3311.51905,44.67821,44.67821,0,0,0-6.45339,2.83769A12.87635,12.87635,0,0,1,23.819,64.01153a13.48966,13.48966,0,0,0-10.77968,5.93668,2.5569,2.5569,0,0,1-.25063.266,18.27463,18.27463,0,0,1,2.56572-9.26388,20.40057,20.40057,0,0,1,11.54-9.42114,18.392,18.392,0,0,1,7.05288-.91516c.70939.04612.98846-.15252.94588-.9116-.06148-1.25567-.03312-2.51727-.00945-3.77649.00945-.525-.05911-.817-.7094-.89506a7.24309,7.24309,0,0,1-4.93284-2.7301A6.05738,6.05738,0,0,1,27.7044,38.548c-.0402-5.15869-.026-10.31736-.01184-15.47723a6.9938,6.9938,0,0,1,5.52995-6.38479A25.48816,25.48816,0,0,0,33.4165,27.92794Z" fill="#d23b00"/><path id="Path_11855" data-name="Path 11855" d="M66.66356,74.9532,62.692,81.0708a25.809,25.809,0,0,0-6.60948-2.83769,14.97567,14.97567,0,0,0-2.77385-.50368,18.28385,18.28385,0,0,0-5.8752.04373,19.85756,19.85756,0,0,0-5.193,1.3739,2.26686,2.26686,0,0,0-.46229-.28375,4.04022,4.04022,0,0,1-2.71944-3.07418,5.17741,5.17741,0,0,1,.7957-3.66535,1.60145,1.60145,0,0,1,.23649-.136,37.74686,37.74686,0,0,1,7.35792-1.81376h.06387l.065-.00826a53.618,53.618,0,0,1,6.28077.07567A29.93807,29.93807,0,0,1,66.00851,74.4436C66.23554,74.60676,66.44367,74.78884,66.66356,74.9532Z" fill="#494970"/><path id="Path_11856" data-name="Path 11856" d="M47.43468,77.77906a18.28977,18.28977,0,0,1,5.87519-.04373c0,1.8918-.01061,3.79425.01422,5.69074.00945.76853-.28852,1.13034-1.08069,1.11378-1.22372-.02483-2.44867-.04139-3.66532,0-.86549.03193-1.14809-.41027-1.14809-1.167C47.42284,81.51182,47.42991,79.64485,47.43468,77.77906Z" fill="#81b3f0"/><path id="Path_11857" data-name="Path 11857" d="M39.85567,72.138A5.179,5.179,0,0,0,39.06,75.80333,4.04129,4.04129,0,0,0,41.7794,78.8775a2.2795,2.2795,0,0,1,.4623.28376A41.06258,41.06258,0,0,0,38.42143,81.124q-2.00282-3.08478-4.00471-6.16959A19.81365,19.81365,0,0,1,39.85567,72.138Z" fill="#3b3b60"/><path id="Path_11858" data-name="Path 11858" d="M60.89,55.19815A32.04173,32.04173,0,0,1,65.17021,58.024c.5214.34405,1.17053.57935,1.42708,1.24266-1.71445,2.31271-3.65709,4.43862-5.47084,6.66859-.73422.90215-1.517,1.76529-2.2347,2.67924a2.07634,2.07634,0,0,1-3.31063.54273c-.25424-.1679-.52493-.31216-.78748-.47294-.63491-.66094-1.472-1.06413-2.1543-1.65531-.63023-.54746-1.54537-.75908-1.91428-1.61277q4.6716-4.74723,9.34076-9.4921C60.32605,55.66871,60.61572,55.44052,60.89,55.19815Z" fill="#9fcaf7"/><path id="Path_11859" data-name="Path 11859" d="M75.07139,76.97623A24.95073,24.95073,0,0,0,71.723,78.27685c-.17024.05557-.33932.11824-.50841.175l-3.73749-3.1463a7.95972,7.95972,0,0,1,3.72565-1.61393,3.78359,3.78359,0,0,1,4.28848,2.88972Z" fill="#e3a776"/><path id="Path_11860" data-name="Path 11860" d="M50.7252,65.41974c.36892.85365,1.28406,1.06412,1.91428,1.61277.68226.59118,1.51816.99556,2.15431,1.65531-.14188.62665-.77564.9601-.93881,1.57254a53.62542,53.62542,0,0,0-6.27954-.07686,4.68937,4.68937,0,0,1,.7721-1.62695,11.89068,11.89068,0,0,0,1.65535-2.47L49.997,66.096l.19507-.22465.17969-.47294Z" fill="#81b3f0"/><path id="Path_11861" data-name="Path 11861" d="M39.85568,72.138A19.81481,19.81481,0,0,0,34.4168,74.9449l-1.00268.55925a7.943,7.943,0,0,0-2.72658-1.44841A3.89,3.89,0,0,0,25.095,76.57539a6.26641,6.26641,0,0,0-3.13562-.19864A4.29193,4.29193,0,0,0,19.26349,78.68c-.52855,1.09487-.87256,2.27371-1.50279,3.32246a32.27727,32.27727,0,0,1,1.22257-7.72326,30.69581,30.69581,0,0,1,3.66532-8.44449c.38305-.61009,1.0192-1.06413,1.16815-1.81729a12.88078,12.88078,0,0,0,4.22937-1.92135,44.68261,44.68261,0,0,1,6.45339-2.83769c.06625.61129.61248.8927.9518,1.29351a44.29383,44.29383,0,0,0,3.66532,4.25654c1.12919,1.39638,2.23939,2.80933,3.39579,4.18323a1.94853,1.94853,0,0,0,2.70644.34524l1.08777-.674,1.13979,1.5217a37.71543,37.71543,0,0,0-7.35908,1.81375A1.61155,1.61155,0,0,0,39.85568,72.138Z" fill="#6392e3"/><path id="Path_11862" data-name="Path 11862" d="M25.09379,76.5754a3.88994,3.88994,0,0,1,5.59259-2.51964A7.94431,7.94431,0,0,1,33.413,75.50417l-3.76231,3.13919-.473-.03312A17.45881,17.45881,0,0,0,25.7772,76.9821C25.54071,76.86035,25.25811,76.82488,25.09379,76.5754Z" fill="#e3a776"/><path id="Path_11863" data-name="Path 11863" d="M65.85836,34.03371a3.32364,3.32364,0,0,0,2.97484.02719c-.17854.82765-.30505,1.67543-.54983,2.483A2.334,2.334,0,0,1,65.552,38.39715q-.05337-.01023-.1063-.023A25.34063,25.34063,0,0,1,65.85836,34.03371Z" fill="#e3a776"/><path id="Path_11864" data-name="Path 11864" d="M61.78034,48.92213c0,.11824.01422.24475.01537.36653.01653,1.34435.01538,1.34435-1.32425,1.30061A9.0045,9.0045,0,0,1,61.78034,48.92213Z" fill="#f4585c"/><path id="Path_11865" data-name="Path 11865" d="M46.30552,68.6677l-1.08776.674a1.94854,1.94854,0,0,1-2.70645-.34524c-1.15639-1.3739-2.2666-2.78684-3.39578-4.18322a4.68336,4.68336,0,0,1,4.24-4.52259,13.74324,13.74324,0,0,1,2.23823.272l.68811.59119,4.08388,4.25654-.17854.47294-.19506.22465.00592-.00945A23.965,23.965,0,0,0,46.30552,68.6677Z" fill="#9fcaf7"/><path id="Path_11866" data-name="Path 11866" d="M46.28067,61.14665l-.68811-.59119c-1.74873-1.83858-3.48086-3.69252-5.38923-5.3727a25.92573,25.92573,0,0,0,.67043-4.04253c1.11735.7922,1.98876,1.87643,3.14507,2.62959a10.483,10.483,0,0,0,2.30088,1.29232c.34286.11824.76027.24713.71769.70943A34.44965,34.44965,0,0,1,46.28067,61.14665Z" fill="#e3a776"/><path id="Path_11867" data-name="Path 11867" d="M35.62275,38.43567a2.6592,2.6592,0,0,1-2.94229-2.34205q-.00942-.08325-.01364-.16694c-.11821-.63021-.25778-1.25331-.389-1.88a3.34854,3.34854,0,0,0,2.88615.03547A25.04224,25.04224,0,0,1,35.62275,38.43567Z" fill="#e3a776"/><path id="Path_11868" data-name="Path 11868" d="M40.59705,50.61646c-1.433,0-1.55129-.14307-1.09253-1.30061A6.34834,6.34834,0,0,1,40.59705,50.61646Z" fill="#f4585c"/><path id="Path_11869" data-name="Path 11869" d="M32.28609,34.04081l-.15018-.20456Z" fill="#e3a776"/><path id="Path_11870" data-name="Path 11870" d="M68.82734,34.04434l.15017-.20572Z" fill="#e3a776"/><path id="Path_11871" data-name="Path 11871" d="M40.20445,55.18987c1.90714,1.679,3.6405,3.53293,5.38808,5.3727a13.74349,13.74349,0,0,0-2.23824-.272,4.68336,4.68336,0,0,0-4.24,4.52259A44.284,44.284,0,0,1,35.449,60.55665c-.33933-.40081-.88562-.68222-.9518-1.2935a.694.694,0,0,1,.3311-.51906q2.46646-1.71917,4.93876-3.42887A1.418,1.418,0,0,1,40.20445,55.18987Z" fill="#81b3f0"/><path id="Path_11872" data-name="Path 11872" d="M46.30546,68.66772A23.9663,23.9663,0,0,1,49.99683,66.089a11.88305,11.88305,0,0,1-1.65535,2.47,4.69423,4.69423,0,0,0-.7721,1.62695l-.065.00826h-.06386Z" fill="#5e80d2"/><path id="Path_11873" data-name="Path 11873" d="M49.99208,66.09723l.19507-.22465Z" fill="#5e80d2"/></g></svg>