<svg id="Layer_1" data-name="Layer 1" xmlns="http://www.w3.org/2000/svg" viewBox="0 0 100.08824 99.82353"><g id="Group_1075" data-name="Group 1075"><path id="Path_11835" data-name="Path 11835" d="M52.76361,3.2412a24.87347,24.87347,0,0,0,3.0068.61957,18.46752,18.46752,0,0,1,10.27367,6.20508l.18914.175-.00831-.00947c.266.473.52263.95181.79932,1.41885a16.31775,16.31775,0,0,1,1.76172,5.4129,23.77447,23.77447,0,0,1-.05441,3.112,75.35613,75.35613,0,0,0-.66568,7.741,6.67891,6.67891,0,0,0-1.84211.38308A9.49278,9.49278,0,0,0,65.0603,25.225a3.992,3.992,0,0,1-.59118-2.46052,17.19937,17.19937,0,0,0-.11821-3.851c-.473-3.8569-2.645-5.76052-6.52786-5.77115a11.05231,11.05231,0,0,0-4.072.59118A10.28661,10.28661,0,0,1,46.6769,13.587a.53632.53632,0,0,1-.0319-.11825c.07924-.3547-.19629-.54625-.37483-.78746a6.1755,6.1755,0,0,1,.63022-8.3097c.39843-.40674,1.057-.5096,1.24978-1.12562Z" fill="#4a4970"/><path id="Path_11836" data-name="Path 11836" d="M48.15474,3.2412c-.19275.616-.8525.71889-1.25093,1.12562a6.17549,6.17549,0,0,0-.63022,8.3097c.17854.23647.45284.428.37483.78747a15.08889,15.08889,0,0,0-4.72949-.28259A5.336,5.336,0,0,0,37.28521,16.68a10.53558,10.53558,0,0,0-.726,4.21159,8.326,8.326,0,0,1-1.12327,5.4389,2.66066,2.66066,0,0,0-.27192.67632c-.42448,1.25331-.42325,1.25331-1.74519.91752a25.48728,25.48728,0,0,1-.188-11.23252,6.02994,6.02994,0,0,1,2.67333-3.33665.82773.82773,0,0,0,.42686-.55453c.05672-1.15754.44224-2.2536.58527-3.39223.09106-.0804.214-.14425.26839-.24475,1.89176-3.55657,5.22959-4.80516,8.88076-5.56542a4.71094,4.71094,0,0,0,1.7239-.363Z" fill="#3b3b60"/><path id="Path_11839" data-name="Path 11839" d="M41.511,96.67689a42.16563,42.16563,0,0,1-10.12-3.33548,3.76585,3.76585,0,0,0,2.01827-4.77207,4.4529,4.4529,0,0,1,1.28406-4.34877,28.37636,28.37636,0,0,1,3.7268-3.10492,41.0858,41.0858,0,0,1,3.82027-1.96273,19.85241,19.85241,0,0,1,5.193-1.3739c0,1.86578-.01183,3.73275-.0106,5.59851,0,.75673.2826,1.20011,1.14809,1.167,1.22257-.04612,2.44751-.02956,3.66532,0,.79218.01656,1.0913-.34645,1.08069-1.11378-.02483-1.8918-.01184-3.79425-.01422-5.69074a14.97982,14.97982,0,0,1,2.77385.50369A25.78625,25.78625,0,0,1,62.686,81.08138a39.67627,39.67627,0,0,1,3.7079,3.13092,4.50135,4.50135,0,0,1,1.29351,4.35585c-.52141,2.34584.00707,3.54712,2.01,4.7827A41.64557,41.64557,0,0,1,59.581,96.69222a7.03659,7.03659,0,0,0-.07686-.82768,9.09866,9.09866,0,0,0-17.99315.81235Z" fill="#6392e3"/><path id="Path_11840" data-name="Path 11840" d="M88.33642,70.33367l1.8362,3.69491a40.01888,40.01888,0,0,1-5.43889,7.9219c-.43508.50961-.91513.98255-1.3739,1.47324-.69763-1.59263-1.35853-3.20187-2.09989-4.77322A4.09571,4.09571,0,0,0,76.3756,76.404c-.28968.07332-.56044.266-.8844.175a3.78359,3.78359,0,0,0-4.28848-2.88972,7.95983,7.95983,0,0,0-3.72565,1.61512l-.81468-.34882c-.21989-.16436-.42687-.34643-.65975-.4895a29.93573,29.93573,0,0,0-12.15-4.20214c.16317-.61247.79808-.94588.93881-1.57254.26369.15491.53323.29913.78748.473a2.07629,2.07629,0,0,0,3.31062-.54274c.71768-.914,1.50162-1.77356,2.23469-2.67923,1.81492-2.22994,3.7564-4.357,5.47085-6.66859a33.92038,33.92038,0,0,1,6.3682,2.8022,13.1029,13.1029,0,0,0,6.14119,2.19092,6.17391,6.17391,0,0,1,1.33963.29441A13.80644,13.80644,0,0,1,88.33642,70.33367Z" fill="#6392e3"/><path id="Path_11841" data-name="Path 11841" d="M41.511,96.67571a9.10557,9.10557,0,0,1,18.00517-.81465,7.01806,7.01806,0,0,1,.078.82767,32.56325,32.56325,0,0,1-6.51957.88559,44.61773,44.61773,0,0,1-10.94639-.71888C41.91887,96.80933,41.71673,96.73486,41.511,96.67571Z" fill="#494a71"/><path id="Path_11842" data-name="Path 11842" d="M10.90769,73.96591,12.79,70.22016a2.56694,2.56694,0,0,0,.25063-.266,13.48969,13.48969,0,0,1,10.77968-5.93667c-.14895.75908-.7851,1.20719-1.16815,1.81729a30.69262,30.69262,0,0,0-3.66532,8.44449,32.27711,32.27711,0,0,0-1.22257,7.72326,2.69878,2.69878,0,0,1-.39251,1.037A39.80642,39.80642,0,0,1,11.506,75.18967,2.74162,2.74162,0,0,1,10.90769,73.96591Z" fill="#5e80d2"/><path id="Path_11843" data-name="Path 11843" d="M38.42143,81.11569a28.32952,28.32952,0,0,0-3.72681,3.10491,4.45288,4.45288,0,0,0-1.28405,4.34877,3.76587,3.76587,0,0,1-2.0195,4.76968,27.47715,27.47715,0,0,1-3.74579-1.98165c1.02158-2.44871,2.029-4.9021,3.07414-7.34251a4.208,4.208,0,0,0-.08985-3.955c-.285-.49543-.64675-.94589-.97425-1.41886l3.76232-3.14039,1.00145-.55925Z" fill="#fc4903"/><path id="Path_11844" data-name="Path 11844" d="M66.66356,74.95319l.81468.3488,3.73749,3.14631c-.13834.162-.266.33345-.415.48359a4.12173,4.12173,0,0,0-1.05232,4.8619c1.09844,2.59412,2.22286,5.17641,3.33667,7.76346a21.2913,21.2913,0,0,1-3.37333,1.7842c-2.01-1.23082-2.53737-2.43686-2.01-4.7827a4.5013,4.5013,0,0,0-1.29351-4.35585,39.79556,39.79556,0,0,0-3.7079-3.13208Z" fill="#fc4903"/><path id="Path_11845" data-name="Path 11845" d="M29.65058,78.64455c.32749.47294.68934.92225.97425,1.41887a4.20923,4.20923,0,0,1,.08985,3.955c-1.0405,2.4404-2.04787,4.89385-3.07414,7.34252A29.45782,29.45782,0,0,1,22.29389,87.705c-.23649-.19037-.46468-.39135-.6964-.59118.39135-.02364.473-.35469.59118-.62547.60771-1.39757,1.24624-2.7833,1.79247-4.20451.90691-2.36474,2.29849-3.90892,5.20246-3.676Z" fill="#fbd1ad"/><path id="Path_11846" data-name="Path 11846" d="M75.4923,76.579c.32395.09223.59119-.10168.8844-.175a4.09458,4.09458,0,0,1,4.88435,2.2465c.74252,1.57138,1.40349,3.18058,2.10105,4.77323a32.16079,32.16079,0,0,1-5.51574,4.98014c-.32749,0-.3547-.266-.45169-.48712-.63614-1.48269-1.3254-2.94409-1.90713-4.44687a9.29652,9.29652,0,0,1-1.18237-3.98339c.05795-.92344.70939-1.61631.76734-2.509Z" fill="#fbd1ad"/><path id="Path_11847" data-name="Path 11847" d="M75.07143,76.97621c-.05912.8927-.7094,1.58557-.76735,2.509a9.29112,9.29112,0,0,0,1.18237,3.9834c.58174,1.5028,1.27107,2.96419,1.90714,4.44688.09577.22227.11821.48831.45169.48712a21.94661,21.94661,0,0,1-4.76261,3.15457c-1.11381-2.587-2.23823-5.1705-3.33668-7.76346a4.12176,4.12176,0,0,1,1.05233-4.8619c.15018-.15018.27784-.32161.41619-.48359.16909-.058.33817-.11824.50841-.175A24.94053,24.94053,0,0,1,75.07143,76.97621Z" fill="#f8bc90"/><path id="Path_11848" data-name="Path 11848" d="M29.18,78.61025c-2.8992-.23649-4.29085,1.316-5.20246,3.676-.54622,1.41886-1.18237,2.80693-1.79246,4.20451-.11821.26957-.19391.60183-.59119.62546a30.46572,30.46572,0,0,1-4.23521-4.07682,2.69253,2.69253,0,0,0,.39251-1.0381c.63022-1.04876.97424-2.2276,1.50279-3.32246a4.29188,4.29188,0,0,1,2.69584-2.30326,6.26638,6.26638,0,0,1,3.13562.19864c.16432.24594.44692.28495.68579.40792A17.46621,17.46621,0,0,1,29.18,78.61025Z" fill="#f8bc90"/><path id="Path_11849" data-name="Path 11849" d="M66.23318,10.23966l-.18915-.175C66.14687,10.08,66.26154,10.0824,66.23318,10.23966Z" fill="#f4585c"/><path id="Path_11850" data-name="Path 11850" d="M46.67916,13.57986a10.28662,10.28662,0,0,0,7.07409.14661,11.0538,11.0538,0,0,1,4.072-.59118c3.8829.01182,6.0502,1.91426,6.52787,5.77115a17.19582,17.19582,0,0,1,.11821,3.851,3.99185,3.99185,0,0,0,.59118,2.46051A9.48922,9.48922,0,0,1,66.226,28.2921a36.37038,36.37038,0,0,1-.36415,5.73568,25.35328,25.35328,0,0,0-.40911,4.34165c-.14895.96481-.27076,1.93437-.45169,2.89208a22.67263,22.67263,0,0,1-3.21725,7.65467,9.02591,9.02591,0,0,0-1.3088,1.67189.75423.75423,0,0,0-.3547.56516c-.629.13243-.91752.6917-1.32541,1.08778A12.22771,12.22771,0,0,1,53.505,55.4334a2.0101,2.0101,0,0,1-1.329-.03547,8.89848,8.89848,0,0,1-3.87583-3.12027,23.76565,23.76565,0,0,1-4.92931-14.231c-.05318-1.77355-.3736-3.51873-.49542-5.28047a16.77458,16.77458,0,0,1-.11821-4.38069,19.58821,19.58821,0,0,1,1.00737-3.50809c.66566-1.7109.22819-3.52465.33933-5.28874C44.24341,17.28186,44.69986,15.10512,46.67916,13.57986Z" fill="#fbd1ad"/><path id="Path_11851" data-name="Path 11851" d="M46.67912,13.57986c-1.9793,1.52526-2.43568,3.702-2.58109,6.0159-.11114,1.76528.32633,3.57785-.33933,5.28874a19.58114,19.58114,0,0,0-1.00737,3.50809,16.76807,16.76807,0,0,0,.11821,4.38069c.11821,1.76174.441,3.50691.49542,5.28047a23.7656,23.7656,0,0,0,4.92932,14.231A8.89749,8.89749,0,0,0,52.17011,55.405a2.01,2.01,0,0,0,1.329.03547A12.22786,12.22786,0,0,0,58.789,52.24806c.40787-.3961.6964-.95535,1.3254-1.08778a30.12073,30.12073,0,0,0,.76972,4.03778c-.2743.24239-.564.47294-.81937.7307Q55.38725,60.6713,50.724,65.42088l-.3547-.01657-4.08388-4.25654a34.47057,34.47057,0,0,0,.75789-5.36677c.04257-.46586-.37483-.5912-.7177-.70944a10.48572,10.48572,0,0,1-2.30087-1.29233c-1.15517-.75316-2.02657-1.83621-3.14392-2.62959-.0721-.18918-.07448-.41383-.27907-.53442a6.35561,6.35561,0,0,0-1.09253-1.30063c-.19629-.3417-.37482-.69522-.59119-1.02392a20.83683,20.83683,0,0,1-3.29171-9.85508,25.027,25.027,0,0,0-.45877-4.3535,3.34963,3.34963,0,0,1-2.88614-.03547h.0083l-.15018-.20455a13.74986,13.74986,0,0,1-1.00383-2.82823,2.36473,2.36473,0,0,1,2.28436-3.08007c1.32186.337,1.31956.33579,1.7452-.91753a2.65964,2.65964,0,0,1,.27192-.67632,8.32775,8.32775,0,0,0,1.12326-5.4389,10.53553,10.53553,0,0,1,.726-4.21161,5.336,5.336,0,0,1,4.63376-3.49862,15.08823,15.08823,0,0,1,4.72948.28258A.53949.53949,0,0,0,46.67912,13.57986Z" fill="#f8bc90"/><path id="Path_11853" data-name="Path 11853" d="M68.06465,27.91492a2.45133,2.45133,0,0,1,1.95448,3.09191,10.34727,10.34727,0,0,1-1.04287,2.83058l-.15018.20573.00592.01656a3.32362,3.32362,0,0,1-2.97483-.02718,36.42292,36.42292,0,0,0,.36415-5.73567A6.67558,6.67558,0,0,1,68.06465,27.91492Z" fill="#f8bc90"/><path id="Path_11855" data-name="Path 11855" d="M66.66356,74.95319,62.692,81.07079a25.80939,25.80939,0,0,0-6.60948-2.8377,14.9755,14.9755,0,0,0-2.77385-.50367,18.28386,18.28386,0,0,0-5.8752.04373,19.85769,19.85769,0,0,0-5.193,1.3739,2.26608,2.26608,0,0,0-.46229-.28375,4.04023,4.04023,0,0,1-2.71944-3.07418,5.17744,5.17744,0,0,1,.7957-3.66536,1.60245,1.60245,0,0,1,.23649-.136A37.74794,37.74794,0,0,1,47.44885,70.174h.06387l.065-.00826a53.6202,53.6202,0,0,1,6.28077.07567,29.93806,29.93806,0,0,1,12.15,4.20218C66.23554,74.60674,66.44367,74.78883,66.66356,74.95319Z" fill="#494970"/><path id="Path_11856" data-name="Path 11856" d="M47.43468,77.77905a18.2895,18.2895,0,0,1,5.87519-.04374c0,1.8918-.01061,3.79425.01422,5.69075.00945.76853-.28852,1.13034-1.08069,1.11377-1.22372-.02483-2.44867-.04139-3.66532,0-.86549.03193-1.14809-.41027-1.14809-1.167C47.42284,81.5118,47.42991,79.64484,47.43468,77.77905Z" fill="#81b3f0"/><path id="Path_11857" data-name="Path 11857" d="M39.85567,72.138A5.179,5.179,0,0,0,39.06,75.80331a4.0413,4.0413,0,0,0,2.7194,3.07418,2.27978,2.27978,0,0,1,.4623.28376A41.06139,41.06139,0,0,0,38.42143,81.124q-2.00282-3.08478-4.00471-6.1696A19.81355,19.81355,0,0,1,39.85567,72.138Z" fill="#3b3b60"/><path id="Path_11858" data-name="Path 11858" d="M60.89,55.19814A32.041,32.041,0,0,1,65.17021,58.024c.5214.344,1.17053.57935,1.42708,1.24266-1.71445,2.31271-3.65709,4.43863-5.47084,6.66859-.73422.90216-1.517,1.76529-2.2347,2.67924a2.07632,2.07632,0,0,1-3.31063.54273c-.25424-.1679-.52493-.31215-.78748-.47293-.63491-.66095-1.472-1.06414-2.1543-1.65532-.63023-.54746-1.54537-.75907-1.91428-1.61277q4.6716-4.74723,9.34076-9.4921C60.32605,55.66869,60.61572,55.44051,60.89,55.19814Z" fill="#9fcaf7"/><path id="Path_11859" data-name="Path 11859" d="M75.07139,76.97621A24.95143,24.95143,0,0,0,71.723,78.27683c-.17024.05558-.33932.11824-.50841.175L67.4771,75.30553a7.95979,7.95979,0,0,1,3.72565-1.61392,3.78358,3.78358,0,0,1,4.28848,2.88971Z" fill="#e3a776"/><path id="Path_11860" data-name="Path 11860" d="M50.7252,65.41972c.36892.85366,1.28406,1.06412,1.91428,1.61277.68226.59118,1.51816.99556,2.15431,1.65532-.14188.62664-.77564.96009-.93881,1.57254a53.62332,53.62332,0,0,0-6.27954-.07686,4.6895,4.6895,0,0,1,.7721-1.627,11.89055,11.89055,0,0,0,1.65535-2.47L49.997,66.096l.19507-.22465.17969-.47294Z" fill="#81b3f0"/><path id="Path_11861" data-name="Path 11861" d="M39.85568,72.138a19.81483,19.81483,0,0,0-5.43888,2.8069l-1.00268.55925a7.94285,7.94285,0,0,0-2.72658-1.44841A3.89,3.89,0,0,0,25.095,76.57538a6.26638,6.26638,0,0,0-3.13562-.19864A4.29192,4.29192,0,0,0,19.26349,78.68c-.52855,1.09487-.87256,2.27371-1.50279,3.32245a32.27769,32.27769,0,0,1,1.22257-7.72326,30.69568,30.69568,0,0,1,3.66532-8.44449c.38305-.61009,1.0192-1.06413,1.16815-1.81729a12.88058,12.88058,0,0,0,4.22937-1.92135,44.68269,44.68269,0,0,1,6.45339-2.83768c.06625.61129.61248.8927.9518,1.29351a44.294,44.294,0,0,0,3.66532,4.25654c1.12919,1.39638,2.23939,2.80933,3.39579,4.18323a1.94853,1.94853,0,0,0,2.70644.34523l1.08777-.674,1.13979,1.5217a37.71489,37.71489,0,0,0-7.35908,1.81375A1.61083,1.61083,0,0,0,39.85568,72.138Z" fill="#6392e3"/><path id="Path_11862" data-name="Path 11862" d="M25.09379,76.57539a3.88993,3.88993,0,0,1,5.59259-2.51964A7.94432,7.94432,0,0,1,33.413,75.50416l-3.76231,3.13919-.473-.03312a17.459,17.459,0,0,0-3.40049-1.62814C25.54071,76.86034,25.25811,76.82487,25.09379,76.57539Z" fill="#e3a776"/><path id="Path_11863" data-name="Path 11863" d="M65.85836,34.0337a3.32368,3.32368,0,0,0,2.97484.02719c-.17854.82765-.30506,1.67543-.54983,2.483A2.334,2.334,0,0,1,65.552,38.39713q-.05336-.01023-.1063-.023A25.34107,25.34107,0,0,1,65.85836,34.0337Z" fill="#e3a776"/><path id="Path_11865" data-name="Path 11865" d="M46.30552,68.66769l-1.08776.674a1.94854,1.94854,0,0,1-2.70645-.34524c-1.15639-1.3739-2.2666-2.78684-3.39578-4.18322a4.68336,4.68336,0,0,1,4.24-4.52259,13.74289,13.74289,0,0,1,2.23823.272l.68811.59119,4.08388,4.25654-.17854.47294-.19506.22465.00592-.00946A23.96492,23.96492,0,0,0,46.30552,68.66769Z" fill="#9fcaf7"/><path id="Path_11866" data-name="Path 11866" d="M46.28067,61.14663l-.68811-.59119c-1.74873-1.83858-3.48086-3.69252-5.38923-5.3727a25.92534,25.92534,0,0,0,.67043-4.04253c1.11735.7922,1.98876,1.87643,3.14507,2.62959a10.48262,10.48262,0,0,0,2.30088,1.29232c.34286.11824.76027.24713.71769.70943A34.44948,34.44948,0,0,1,46.28067,61.14663Z" fill="#e3a776"/><path id="Path_11867" data-name="Path 11867" d="M35.62275,38.43565a2.65919,2.65919,0,0,1-2.94229-2.342q-.00942-.08325-.01364-.16694c-.11821-.63021-.25778-1.25331-.389-1.88a3.34854,3.34854,0,0,0,2.88615.03546A25.04282,25.04282,0,0,1,35.62275,38.43565Z" fill="#e3a776"/><path id="Path_11869" data-name="Path 11869" d="M32.28609,34.04079l-.15018-.20455Z" fill="#e3a776"/><path id="Path_11870" data-name="Path 11870" d="M68.82734,34.04432l.15017-.20572Z" fill="#e3a776"/><path id="Path_11871" data-name="Path 11871" d="M40.20445,55.18985c1.90714,1.679,3.6405,3.53293,5.38808,5.3727a13.74412,13.74412,0,0,0-2.23824-.272,4.68337,4.68337,0,0,0-4.24,4.52259A44.28287,44.28287,0,0,1,35.449,60.55663c-.33933-.40081-.88562-.68222-.9518-1.2935a.694.694,0,0,1,.3311-.519q2.46647-1.71918,4.93876-3.42887A1.418,1.418,0,0,1,40.20445,55.18985Z" fill="#81b3f0"/><path id="Path_11872" data-name="Path 11872" d="M46.30546,68.6677A23.96591,23.96591,0,0,1,49.99683,66.089a11.88279,11.88279,0,0,1-1.65535,2.47,4.69428,4.69428,0,0,0-.7721,1.627l-.065.00826h-.06386Z" fill="#5e80d2"/><path id="Path_11873" data-name="Path 11873" d="M49.99208,66.09721l.19507-.22464Z" fill="#5e80d2"/></g></svg>