<svg id="Layer_1" data-name="Layer 1" xmlns="http://www.w3.org/2000/svg" viewBox="0 0 100.08824 99.82353"><path d="M26.24237,92.38448H10.93372a2.8683,2.8683,0,0,1-1.69066-2.92574c.04685-4.13531.05378-8.272-.005-12.407a4.02869,4.02869,0,0,1,1.30052-3.13428Q24.89623,59.61912,39.21612,45.28284a1.37175,1.37175,0,0,0,.41131-1.55584,25.16,25.16,0,0,1-.5246-12.423c2.00814-9.35118,7.46245-15.9516,16.27791-19.59185a25.35965,25.35965,0,0,1,19.10964-.24149A26.16381,26.16381,0,0,1,90.241,27.17158a32.81678,32.81678,0,0,1,1.5868,6.55663v5.47888c-.04283.20963-.09807.41757-.12668.62913A25.4216,25.4216,0,0,1,85.77158,53.4498c-7.44322,8.53668-16.74847,11.23227-27.6784,8.42936a1.27708,1.27708,0,0,0-1.42213.36006c-1.67553,1.70339-3.40812,3.35063-5.08417,5.05352A3.39473,3.39473,0,0,1,48.79775,68.448c-.85514-.05872-1.71756-.01215-2.57675-.0113-1.22241.0012-1.22312.00166-1.22475,1.18525-.00123.886-.063,1.77741.0123,2.657.1706,1.994-1.11223,3.45161-3.5482,3.01768-.68508-.122-1.38257-.17563-2.07513-.254-.52937-.05986-.79507.17037-.83709.71573-.09681,1.25649-.22421,2.51059-.33321,3.76618a2.70113,2.70113,0,0,1-2.63864,2.72881c-1.22581.13618-2.45528.24122-3.68441.345-.88514.07473-.99167.20395-.86538,1.10755.08907.63733.18608,1.27489.2384,1.91569a2.89142,2.89142,0,0,1-.437,2.38582A28.24446,28.24446,0,0,1,26.24237,92.38448ZM72.10774,36.74a7.121,7.121,0,1,0-7.1408-7.0796A7.10473,7.10473,0,0,0,72.10774,36.74Z" fill="#fc4903"/></svg>