<svg id="Layer_1" data-name="Layer 1" xmlns="http://www.w3.org/2000/svg" viewBox="0 0 470.94118 189.29412"><path id="Path_19" data-name="Path 19" d="M173.08834,107.47648c-2.842.75806-5.694,1.48-8.523,2.28-4.184,1.182-8.7,1.25-8.705,7.964,0,4.20606-9.134,5.892-12.626,2.366-2.065-2.084-3.7-2.226-6.247-1.346-6.313,2.17395-12.731,4.043-19.379,6.119l-.719-4.683c-.447.248-.884.35705-.907.524-.189,1.354-.225,2.734-.447,4.082-1.932,11.723-9.766,15.123-19.988,8.649-1.35-.854-2.58-.172-3.859-.218-4.07-.143-7.861-.231-12.158-1.825-5.769-2.14294-13.1-.093-19.761.246-.319.016-.642.865-.88,1.364-3.806,8.006-10.366,7.3-17.213,3-9.93994-6.25-8.175-15.43994-10.03894-23.975,6.451-6.369,6.47095-6.41894,13.931-3.225a10.44379,10.44379,0,0,0,9.115-.23706c7.31-1.144,14.583,0,21.879.223,2.855.089,7.55,1.8,6.167-4.91894-.647-3.15,3.318-3.193,5.294-2.31995,4.17,1.84,7.1.639,10.145-2.239a13.627,13.627,0,0,1,11.3-3.97c-9.3-1.866-16.971-.21-24.585,2.65905-2.45.922-5.978,3.75806-7.62-.392a7.752,7.752,0,0,1,3.475-9.8c4.1-2.412,8.774-3.579,13.187-5.316a74.385,74.385,0,0,0,8.724-3.715,3.4,3.4,0,0,0,2.031-3.4c.547-5.134-.879-10.4,1.088-15.422,1.481-1.988,3.834-1.766,5.89-2.28894,3.789-.963,6.086.048,6.366,4.412.2,3.141.607,6.275.874,9.42.378,4.46106.091,8.241-4.6,8.517,5.94-2.377,7.2-4.15406,7.193-11.769-.007-9.059-3.547-17.81494-2.351-27,.3-2.3-.351-4.793,1.621-6.674,4.572-.184,8.842.124,9.717,5.963,2.647,3.827,1.913,8.454,2.219,12.567.874,11.745,2.483,23.442,2.773,35.223.1,3.967,1.37,7.744,1.345,11.71-.021,3.2,2.359,3.348,4.58,2.906a40.24772,40.24772,0,0,1,8.777-.933c5.621.142,11.134-2.155,16.8-.8,1.521.173,2.591,1.971,4.341,1.29,1.48-.574,3.3-1.545,4.124.32605C176.32437,104.84355,175.20236,106.5905,173.08834,107.47648Z" fill="#38383a"/><path id="Path_20" data-name="Path 20" d="M121.9504,138.2006q25.48206-5.037,51.248-8.313c84.947-10.78894,170.245-13.46,255.76-11.1,2.245.061,5.275-1.048,6.553,1.5,2.2,4.394,4.431,8.96,5.4,13.71.576,2.826-3,1.571-4.611,1.552-22-.25195-44-.906-66.006-.968-39.843-.11-79.686.108-119.53.187-11.073,1-22.188-.149-33.248.5-20.865,1.229-41.771,1.61-62.615,3.306-8.585.69995-17.188,1.15906-25.747,2.167l.074-.026c-1.908.773-3.9.483-5.847.34094C121.55038,140.92753,121.06039,139.83854,121.9504,138.2006Z" fill="#05ca2c"/><path id="Path_21" data-name="Path 21" d="M132.55441,39.39055c3.209-3.271,6.565-2.9,10.064-.474q18.521,12.865,37.071,25.68994c1.862,1.287,3.283,2.67505,3.245,5.235-.147,10.072-.171,20.145-.24,30.219a13.75678,13.75678,0,0,1-6.538,2.1c-2.08-.66-4.1.043-6.141.265-6.522-1.453-13.033.028-19.549.057-.791,0-1.585-.041-2.372.007-14.586.9-11.17.156-12.753-12.68-1.779-14.406-2.261-29.009-3.665-43.5C131.44442,43.92961,131.33444,41.58354,132.55441,39.39055Z" fill="#fb4a04"/><path id="Path_22" data-name="Path 22" d="M200.38241,89.1746c0,5.424-.378,10.881.109,16.259.462,5.09-2.689,4.24-5.582,4.194-2.99-.047-6.224,1.078-6.081-4.375.381-14.46106.1-28.938.156-43.41.007-1.93994-.921-5.1,2.711-4.478,3.254.556,7.791-2.7,9.617,2.73205,2.061,6.126,4.022,12.285,6.978,18.266,0-5.775.238-11.562-.069-17.31994-.284-5.309,3.406-3.674,5.983-3.728,2.441-.05,5.559-1.352,5.475,3.552-.258,15.062-.165,30.131-.031,45.2.025,2.9-.974,3.354-3.684,3.70606-6.426.833-9.779-1.324-10.811-7.924-.683-4.356-2.484-8.53894-3.783-12.8Z" fill="#38383a"/><path id="Path_23" data-name="Path 23" d="M250.54537,57.68156c4.848.672,10.174-3.057,12.7,1.479,1.834,3.29394,1.944,7.8,3.428,12.13793,3.3-6.31494.88-18.288,14.22-13.28405-.435,1.72-.771,3.677-1.426,5.52-3.741,10.546-4.874,21.049-.131,31.65405a25.12082,25.12082,0,0,1,2.137,7.4c.248,2.29,3.746,5.282.011,6.884-5.061,2.168-9.9-.217-11.033-4.567a93.413,93.413,0,0,0-4.227-13.662c-.785,4.411-2.076,8.808-2.218,13.24-.149,4.641-2.128,5.72705-6.22,5.2a65.8084,65.8084,0,0,0-7.442-.047C255.12039,92.21757,259.59939,75.09562,250.54537,57.68156Z" fill="#38383a"/><path id="Path_24" data-name="Path 24" d="M106.45541,77.44267a3.7,3.7,0,0,1-2.45,2.406c-3.838-.925-7.482.137-11.027,1.31994-12.592,4.2-25.3,7.844-38.564,9.251-2.72894.28894-5.551.688-7.475,3.083-1.339,1.094-2.245,3.313-4.6,1.809-.422-1.7.08606-3.75806,1.212-4.364,8.514-4.582,5.368-12.438,5.56994-19.261.084-2.82-.041-5.153,3.73706-4.82.62,3.958,2.339,7.806,1.475,10.558,1.056-2.959.012-7.475.7-11.866l.674-4.56006c.29-1.113,1.384-2.087,1.942-1,2.048,3.974,5.182,2.745,8.241,2.187,10.146-1.847,20.363-3.245,30.544-4.859,5.737-.908,6.244-.083,6.767,5.61C103.6484,67.8676,101.65139,73.45756,106.45541,77.44267Z" fill="#38383a"/><path id="Path_25" data-name="Path 25" d="M224.66439,83.1746c0-7.323.135-14.651-.061-21.97-.084-3.139.968-4.151,4.063-4.009a116.812,116.812,0,0,0,14.245-.031c3.871-.29394,4.906,1.241,4.432,4.719-.376,2.764,1.432,6.99-4.157,6.072-4.516-.744-5.03,1.546-5.008,5.363.021,3.769.456,6.212,4.995,5.363,3.99-.746,3.889,1.786,3.848,4.578-.043,2.875.364,5.8-4.072,4.953-5.737-1.1-4.314,3.014-4.717,6.168-.565,4.423,1.814,5.1,5.169,4.5,5.347-.963,4.805,2.415,5.006,5.922.22,3.821-.867,5.229-4.849,4.926a104.85317,104.85317,0,0,0-14.244-.017c-3.57.215-4.888-.787-4.737-4.56494C224.86941,97.83061,224.66244,90.49858,224.66439,83.1746Z" fill="#39393b"/><path id="Path_26" data-name="Path 26" d="M355.46743,88.54753c0-4.354.008-8.709-.007-13.06494-.013-4,1.275-8.4-5.852-7.77906-3.867.335-1.848-3.941-2.156-6.144-.248-1.771-.732-4.27,2.459-4.277q12.177-.03095,24.351-.01294c4.109.006,2.721,3.187,2.681,5.183-.044,2.17395,1.458,5.923-3.009,5.449-4.851-.51294-4.912,2.212-4.87,5.728.122,10.292-.049,20.588.109,30.879.055,3.556-.556,5.4-4.82,5.23706-11.029-.415-8.616.835-8.876-8.725-.059-2.176-.006-4.355-.006-6.533Q355.47335,91.51866,355.46743,88.54753Z" fill="#fb4a05"/><path id="Path_27" data-name="Path 27" d="M291.16744,88.29753c0-5.355-.168-10.717.065-16.061.143-3.275-.778-4.743-4.244-4.28894-5.741.753-3.543-3.657-3.967-6.322-.515-3.23.6-4.583,4.151-4.453,7.131.261,14.284.24695,21.417,0,3.383-.116,4.891.947,4.191,4.29394-.528,2.526,2.149,7.181-3.724,6.46106-4.118-.5-4.4,1.616-4.361,4.855.133,10.70606-.149,21.421.108,32.123.1,4.037-1.334,5.281-5.08,4.762a14.2929,14.2929,0,0,0-4.155,0c-3.912.625-4.639-1.254-4.473-4.719C291.35543,99.41252,291.16543,93.85051,291.16744,88.29753Z" fill="#39393b"/><path id="Path_28" data-name="Path 28" d="M74.4924,42.13261c14.131-3.058,28.284-5.984,42.7-7.39294,3.9,6.525,3.34,13.9,1.464,20.355-1.072,3.686-7.286,3.2-11.564,2.963-4.792-6.634-.858-12.35706,1.953-18.257a11.75326,11.75326,0,0,0-6.156,6.93006c-1.572,4.474-4.834,6.43505-9.245,7.213q-10.5,1.84808-20.962,3.85095c-2.067.389-4.488,1.236-5.9-1.16-1.281-2.175-.019-4.2,1.1-6.073a18.15171,18.15171,0,0,1,4.437-5.484A4.17827,4.17827,0,0,0,74.4924,42.13261Z" fill="#3a3a3b"/><path id="Path_29" data-name="Path 29" d="M74.10342,45.23955c-3.355,3.1-7.518,6.9-6.351,11.062.564,2,6.942-.648,10.68-1.21,3.317-.5,6.618-1.118,9.924-1.689,6.129-1.058,12.224-1.441,14.386-9.437,1.087-4.019,5.094-6.9,11.022-6.928-6.184,5.9-8.041,12.631-7.256,20.19995a1.8,1.8,0,0,1,.061,2.45606l-.114,17.75305c-1.925.78894-4.139.427-4.379-1.5a74.75468,74.75468,0,0,1-.256-17.754l-28.94,4.42c-4.072.623-8.153,1.19495-12.213,1.881-2.788.473-4.71295.5-3.632-3.4.37195-1.344-.9.536-1.333-.092-.959-3.581,2.322-2.772,3.88-3.746,3.506-3.882,4.675-9.74695,9.974-12.04C70.86843,44.64152,72.65145,41.86052,74.10342,45.23955Z" fill="#fbfbfb"/><path id="Path_30" data-name="Path 30" d="M106.56942,59.68962l-.061-2.45606c12.138-.229,12.188-.23,11.7-12-.146-3.50695-.666-7-1.014-10.5,1.144-2.00695-.506-4.079.139-6.1,2.124-.493,1.232,1.73706,2.128,2.353l1.3,3.583c-1.52,12.278,2.4,24.182,2.5,36.345.053,6.811-7.718,12.547-14.231,10.54-.421-.129-.651-.873-.921-1.261.459-1.74,1.424-.721,2.281-.74,4.171-.1,8.538.145,6.766-6.54395a30.135,30.135,0,0,1-.573-9.354c.353-5.525-1.636-5.853-5.9-4.191C109.45144,59.84758,107.94644,59.60258,106.56942,59.68962Z" fill="#7e7e80"/><path id="Path_31" data-name="Path 31" d="M132.55538,39.39164c1.52,18.531,3.317,37.045,4.4,55.6.335,5.751,2.618,7.078,7.587,6.51294a49.57537,49.57537,0,0,1,5.906.006,1.172,1.172,0,0,1,.073,1.994,23.463,23.463,0,0,1-2.356.209c-4.12-.032-8.9,2.917-12.061.506-2.941-2.24305-1.312-7.439-1.675-11.255-1.659-17.443-2.69-34.947-3.947-52.427Z" fill="#f9ebdf"/><path id="Path_32" data-name="Path 32" d="M42.3384,95.31462c1.87.28406,2.109-1.64295,3.228-2.379,1.376-.037,2.75806-.1,3.849.977-.443,2.4.769,3.566,2.995,3.96594,1.393,1.228,5.468,1.891.984,4.37805-.417.23206-.535-.015-.478.262.6,2.906.574,2.89-1.73,4.038-.332.166-.34.66-.22,1.089a1.6151,1.6151,0,0,1-.69495,1.244c-.41.131-.85.027-1.25305.18a2.44818,2.44818,0,0,0,.55505-.02295c1.575-.09,3.311-1.113,4.552.76795-2.629,3.133-6.649,2.2-8.60595.7-4.059-3.11-7.073-3.4-10.663.167-.766.76-2.132.913-3.22094,1.345.891-2.52795-.34095-6.064,3.43005-7.22595,2.9,1.6,4.193-.661,5.71594-2.371C42.84732,100.3936,41.54031,97.6226,42.3384,95.31462Z" fill="#5b5b5b"/><path id="Path_33" data-name="Path 33" d="M129.15341,140.74858c5.241-2.907,11.164-.786,16.712-2.292,3.876-1.052,8.242-1.16895,12.318-1.24695,30.085-.582,60.1-3.473,90.223-2.718.789.022,1.572.184,2.357.281a25.19626,25.19626,0,0,1-4.026.688c-38.074.492-76.073,2.573-114.04,5.351C131.52444,140.89653,130.33541,140.7736,129.15341,140.74858Z" fill="#2fc04c"/><path id="Path_34" data-name="Path 34" d="M121.95138,138.2006c1.2,4.363,5.039,1.134,7.276,2.52-9.782,2.062-19.742,2.679-29.658,3.645-1.394.019-3.3,1.567-3.73-1.267,6.785-1.442,13.562-2.927,20.363-4.3C118.08334,138.42253,120.03634,138.39152,121.95138,138.2006Z" fill="#2fc04c"/><path id="Path_35" data-name="Path 35" d="M170.97744,101.18767l5.585-.116c1.557,2.19995,3.434-1.58106,5.009.27a32.449,32.449,0,0,1,.211,3.483c-.111,2.595.715,5.53894-2.931,6.745-3.96,1.309-4.4-1.953-5.762-4.093.308-1.564,2.092-2.735,1.253-4.871-1.977.008-4.376,5.817-5.925-.167C169.12142,101.7166,170.3124,101.9926,170.97744,101.18767Z" fill="#555353"/><path id="Path_36" data-name="Path 36" d="M358.83743,151.41154c-1.6,2.52-.689,5.26795-3.394,7.533-.762-4.35.769-7.771,1.342-11.153.337-1.984,2.06-1.391,2.911.055.977,1.663,1.719,3.463,3,6.10706.914-3,1.578-5.179,2.631-8.639,1.866,5.11.03,8.7-.777,12.148-.474,2.021-2.175.726-2.907-.542C360.7084,155.31157,359.93643,153.59257,358.83743,151.41154Z" fill="#4c4c4c"/><path id="Path_37" data-name="Path 37" d="M55.02737,65.55754c3.478,5.964.14905,11.4-1,17.04-1.7-4.762.114-10.053-3.026-14.41394l1.858-1.318A2.24312,2.24312,0,0,1,55.02737,65.55754Z" fill="#e9e9e9"/><path id="Path_38" data-name="Path 38" d="M225.39834,146.77861c3.17-.483,2.5,2.647,4.264,3.1,1.749-.571,1.768-3.736,5.019-2.953-3,3.365-5.051,6.881-1.669,11.028-3.139,1.062-2.61-2.062-4.189-2.8-2.122-.03406-1.959,4-5.333,2.852C226.50436,154.66655,228.70834,151.10759,225.39834,146.77861Z" fill="#4a494a"/><path id="Path_39" data-name="Path 39" d="M259.85739,157.83464c2.272-1.832,5.2.582,5.645-2.369.317-2.11206-2.155-1.86694-3.3-2.74695-1.824-1.4-3.024-3.007-.965-4.776,2.822-2.426,5.651-2.4,7.8,1.1-1.168,1.938-1.911.79394-2.652-.143-1.175-1.48706-2.339-1.316-3.282.155-.906,1.413.218,2.1,1.248,2.727,1.73,1.04895,4.832,1.51294,3.532,4.35706C266.54043,159.08659,263.63839,158.93559,259.85739,157.83464Z" fill="#696968"/><path id="Path_40" data-name="Path 40" d="M220.82241,146.02458c-2.025,3.056-5.968-.073-6.224,3.72-.193,2.887,3.159.41394,3.926,2.25305-1.479,1.38794-5.128-.845-4.987,3.189.137,3.88794,3.79.73706,5,2.937-2.5.542-5.973,1.361-6.95-.3-1.694-2.88.149-6.562,1.123-9.6C213.8854,144.57756,217.48641,147.33964,220.82241,146.02458Z" fill="#49494a"/><path id="Path_41" data-name="Path 41" d="M74.10244,45.23967c-6.581-.635-8.188,4.80005-11.019,8.864-.866,1.24-.239,4.488-3.5,3.148,2.2-7.76794,6.906-13.06995,14.91-15.119C76.43545,43.42863,76.93844,44.53959,74.10244,45.23967Z" fill="#636363"/><path id="Path_42" data-name="Path 42" d="M200.59933,153.6685c-.871.00806-.984-3.587-2.4-.589-.777,1.65-.279,3.82105-2.357,5.7-1.117-4.053.583-7.4,1.085-10.785.32-2.158,1.8-1.9,2.691-.359a53.93863,53.93863,0,0,1,2.559,5.87195.953.953,0,0,1-1.578.16113Z" fill="#464746"/><path id="Path_43" data-name="Path 43" d="M274.27041,146.69059h8.572c-6.412,1.6-2.623,8.521-6.215,12.155C274.03439,154.87761,279.95144,149.94352,274.27041,146.69059Z" fill="#515251"/><path id="Path_44" data-name="Path 44" d="M242.00546,159.1685c-2.044-4.449,2.99-9.031-1.872-12.454h8.284C241.9244,148.28154,245.45346,154.96257,242.00546,159.1685Z" fill="#4d4d4e"/><path id="Path_45" data-name="Path 45" d="M329.17037,153.6685c-.855,0-.994-3.58105-2.384-.551-.761,1.658-.252,3.829-2.035,5.349-1.911-1.243-.7-2.922-.436-4.1.593-2.656-.216-7.007,2.684-7.382,2.259-.294,2.692,4.11,3.747,6.531a1.04108,1.04108,0,0,1-1.57612.153Z" fill="#474747"/><path id="Path_46" data-name="Path 46" d="M329.1744,153.66862l1.576-.152c3.095-1.258.664-5.313,4.942-7.818-.881,4.743-1.509,8.30005-2.257,11.843a1.575,1.575,0,0,1-1.349.75195C329.82937,157.61564,329.7134,155.48869,329.1744,153.66862Z" fill="#5f5f5f"/><path id="Path_47" data-name="Path 47" d="M387.99044,159.16252c-.359-6.835-1.175-11.759-2.195-12.48706h9.321C388.36441,148.65959,391.5884,154.9716,387.99044,159.16252Z" fill="#444"/><path id="Path_48" data-name="Path 48" d="M200.59939,153.66557l1.576-.161c3.2-1.21106.548-5.355,4.868-7.574-.834,4.48706-1.46,8.042-2.205,11.573a1.572,1.572,0,0,1-1.326.785C201.21639,157.64262,201.24038,155.42656,200.59939,153.66557Z" fill="#5d5d5d"/><path id="Path_49" data-name="Path 49" d="M95.83633,143.0966c.926,1.359,2.521.74194,3.731,1.266a142.40553,142.40553,0,0,1-20.444,3.25305q-.4911-.37994-.281-.687c.131-.192.258-.287.385-.287Z" fill="#62bf74"/><path id="Path_50" data-name="Path 50" d="M375.56143,153.42167c-1.864-.609-3.972-1.021-3.826-3.665.1-1.865,1.563-2.73205,3.063-3.137,2.533-.686,4.5.16394,5.716,2.80506-2.42,1.876-3.653-3.772-5.9-.691-1.124,1.541.22,2.49194,1.01,3.54895.406.277.531.536.377.78405S375.70944,153.42167,375.56143,153.42167Z" fill="#5f6060"/><path id="Path_51" data-name="Path 51" d="M291.10336,147.6956c-3.365,7.14294-3.008,8.578,2.383,9.53894-2.612,2.66394-5.055,1.3-5.911-1.222C286.45034,152.6945,286.15634,148.84953,291.10336,147.6956Z" fill="#565656"/><path id="Path_52" data-name="Path 52" d="M40.7814,102.42766c-.132,2.4-.132,2.4-6.20606,5.2l.49-2.83106C36.1044,101.9196,38.98135,103.46159,40.7814,102.42766Z" fill="#f8f8f8"/><path id="Path_53" data-name="Path 53" d="M375.56137,153.42058q.02691-.57.065-1.13794c1.95.115,3.619.74694,3.693,2.989.062,1.937-1.59,2.736-3.093,3.1-2.462.589-4.642.078-5.884-2.921,2.451-1.073,3.893,3.681,6.12.875C377.43337,155.09758,376.69937,154.13054,375.56137,153.42058Z" fill="#5d5d5d"/><path id="Path_54" data-name="Path 54" d="M181.56637,101.3416c-4.726.416,1.189,4.864-3.214,5.583-1.827-.927.577-4.5-1.792-5.852,1.852-1.485,4.148-.29,6.129-1.012Z" fill="#d9d6d3"/><path id="Path_55" data-name="Path 55" d="M293.35446,157.32768c1.349-3.046,2.931-6.062,1.266-9.511C298.75344,150.71757,298.27645,154.29167,293.35446,157.32768Z" fill="#474747"/><path id="Path_56" data-name="Path 56" d="M79.22836,146.64457c-.048.323-.084.647-.1.974-2.766,2.334-6.262,1.448-9.4,2.18506C72.56137,147.70451,75.92733,147.27458,79.22836,146.64457Z" fill="#62bf74"/><path id="Path_57" data-name="Path 57" d="M119.45944,30.99357l-2.128-2.354v-6.891A13.554,13.554,0,0,1,119.45944,30.99357Z" fill="#3d3d3d"/><path id="Path_58" data-name="Path 58" d="M50.39443,107.42253c-1.214-.043-2.331-.26-2.9-1.77,1.877-1.66,4.44495-.1,6.53-1.254-1.546-1.577-3.709.019-5.307-1.15906,1.117-3.10595,4.01-1.313,6.338-2.333l-3.25806-2.123c.366-3,2.8-2.595,4.795-2.926,3.475,1.755,7.23-.823,10.337.344-2.287-1.712-5.662,1.636-8.29-.8a1.458,1.458,0,0,1,.422-1.641c3.693.264,7.084-1.722,10.282-1.371,1.282-.176.125-1.351.507-.655-4.549,1.678-9.464,1.50695-14.093,2.8-2.194,0-4.422.76-6.572-.278-1.2-.464-2.927.523-3.62-1.322.753-1.871,1.531-3.479,4.045-3.637,16.3-1.03,31.7-6.1,47.13-10.9,2.906-.9,5.254-1.119,7.263,1.458-6.192,2.519-12.233,5.557-18.619,7.406-5.975,1.731-7.371,5.545-7.381,11.536,11.091-3.14795,21.723-9.74695,33.447-2.96106-9.723-1.9-13.167,7.416-20.589,9.7-.741-3.074-3.537-4.234-7.519-2.715.27,2.566,2.655,3.9,4.6,6.259-11.72,2.74-22.842-.72706-33.819.733H46.37039c.934-2.307,2.779-1.015,4.02795-1.527,5.42-.765,10.753-2.381,16.228-1.406C61.20742,105.33061,55.90243,108.5236,50.39443,107.42253Z" fill="#fbfbfb"/><path id="Path_59" data-name="Path 59" d="M53.92031,115.50554c14.34-1.576,28.748-1.918,43.151-2.264,1.2-.03,3.352-.389,3.216,1.6-.212,3.136-2.369.766-3.576.808-10.662.35705-21.327.595-31.991.866C61.19534,115.41057,57.40542,117.11149,53.92031,115.50554Z" fill="#ebebec"/><path id="Path_60" data-name="Path 60" d="M110.80343,121.61259c-.4,2.26795.417,6.544-1.939,6.55005-3.528.012-2.125-4.135-2.463-6.63-.478-3.52-1.039-7.037-1.312-10.575-.092-1.173-.613-3.146,1.305-3.387,1.682-.21106,2.019,1.6,2.532,2.82C110.41342,113.92253,110.56246,117.69255,110.80343,121.61259Z" fill="#f6f6f6"/><path id="Path_61" data-name="Path 61" d="M170.9764,101.18864q-1.282.62494-2.561,1.25195-8.949.531-17.9,1.06495-.035-.99994-.071-1.994Z" fill="#f0c7ba"/><path id="Path_62" data-name="Path 62" d="M150.89346,105.86149c2.685,3.67395,2.679,7.6,1.374,13.229C149.97543,113.85856,149.73043,109.95158,150.89346,105.86149Z" fill="#f6f5f7"/><path id="Path_63" data-name="Path 63" d="M50.7134,116.96953c-5.42395,1.488-10.863,1.051-16.35095.249,2.33-2.489,5.207-1.517,7.91394-1.5C44.94534,117.10856,48.11331,115.13261,50.7134,116.96953Z" fill="#b6b6b8"/><path id="Path_64" data-name="Path 64" d="M50.71633,116.97148c-2.7-1.155-5.883.891-8.438-1.256l11.645-.208c3.553.846,7.349-.93005,10.8,1.01Q57.71738,116.74456,50.71633,116.97148Z" fill="#fcfcfd"/><path id="Path_65" data-name="Path 65" d="M143.46633,95.94658c-.869-17.52295-1.659-33.41407-2.512-50.594l29.92,20.665c-3.13,3.186-7.129,3.118-10.438,4.571-2.14.938-4.3,2.07605-4.218,4.406.091,2.60706,2.95,1.95,4.625,2.329,5.2,1.18006,10.481,2.01294,15.707,3.089,1.837.37805,4.132.43005,3.728,3.442-.4,2.947-2.651,1.844-4.131,1.811a133.937,133.937,0,0,1-15.987-.86c-5.987-.85706-10.355.57995-13.034,6.26C146.49337,92.40556,145.33236,93.49858,143.46633,95.94658Z" fill="#fdfcfa"/><path id="Path_66" data-name="Path 66" d="M411.49941,83.40068c0-4.942.252-9.9-.059-14.824-.468-7.422-5.651-11.868-14.015-12.505-7.977-.61-15.012,3.261-16.1,9.99a108.62594,108.62594,0,0,0,.017,34.839c1.086,6.65405,8.132,10.49194,16.172,9.9,8.058-.59094,13.249-4.92505,13.889-11.988.461-5.116.5-10.269.726-15.407C411.92141,83.40361,411.71041,83.40263,411.49941,83.40068Zm-13.134-.1h-.068c0,4.76.052,9.519-.028,14.277-.027,1.533,0,3.511-2.254,3.462-2.109-.044-2.349-1.938-2.359-3.5q-.0911-13.98213.009-27.967c.013-1.8.313-3.93005,2.751-3.744,2.167.165,1.872,2.317,1.907,3.786.11407,4.559.04211,9.12195.04211,13.68493Z" fill="#fc4903"/><path id="Path_67" data-name="Path 67" d="M441.94345,59.08464c-1.052-.76-2.614-.834-3.951-1.18506-5.274-1.385-10.663-.18506-15.965-.7-3.886-.373-4.642,1.412-4.54,4.85.211,7.126.064,14.26294.059,21.395-.006,6.736.348,13.5-.118,20.2-.363,5.2,1.68,6.014,6.377,6.18506,5.84.214,8.546-1.192,7.452-7.43-.371-2.113.134-4.37-.105-6.522-.491-4.439.31-6.869,5.808-6.7,5.03.157,9.8-2.225,9.757-8.169C446.65646,73.46257,449.99941,64.90764,441.94345,59.08464Zm-6.217,18.045c-.318,1.387-1.039,2.62-2.711,2.61-2.04-.01-1.847-1.64405-1.923-2.964a14.47013,14.47013,0,0,1,.025-4.094c.471-1.975-1.672-5.577,2-5.6,3.471-.02295,2.738,3.568,3.087,6.314a33.40645,33.40645,0,0,1-.47705,3.736Z" fill="#fb4a04"/><path id="Path_68" data-name="Path 68" d="M79.93337,48.87761c-.9-.16895-2.458.582-2.818-1.024a2.62991,2.62991,0,0,1,2.20813-2.99292l.04987-.00708c5.34-1.188,10.734-2.136,16.121-3.1,1-.18005,2.195.1,2.109,1.364a3.51391,3.51391,0,0,1-3.051,3.16C89.75137,47.23356,84.91134,48.00651,79.93337,48.87761Z" fill="#7e7e80"/><path id="Path_69" data-name="Path 69" d="M56.33541,96.55559c-1.244,1.287-3.49994.517-4.53595,2.22705-2.233.177-4.6-.158-5.38794-2.341-.55505-1.53894,2.5-.541,2.776-2.187a8.85989,8.85989,0,0,1,6.2-1.19995c.961,1.093,2.739-.137,3.594,1.262a3.12791,3.12791,0,0,0-.145,1.048C58.2994,96.3936,57.73837,97.35869,56.33541,96.55559Z" fill="#c9c9c9"/><path id="Path_70" data-name="Path 70" d="M50.39346,107.42265c5.226-.322,10.337-2.595,15.72-.59-5.333-.352-10.3,2.507-15.714,1.452A2.38229,2.38229,0,0,0,50.39346,107.42265Z" fill="#a6a6a6"/><path id="Path_71" data-name="Path 71" d="M345.6564,146.37553c-3.466.535-5.417,2.984-5.784,6.65405-.285,2.847.863,5.29,4.026,5.4,4.416.155,6.165-2.948,6.546-6.787C350.73739,148.69157,349.17642,146.83049,345.6564,146.37553Zm2.382,5.275c-.195,2.4-.494,5.151-3.523,5.329-2.522.149-2.227-2.208-2.257-4.2.419-2.126.694-4.847,3.834-4.80505,2.08.03,2.074,2.094,1.946,3.678Z" fill="#585858"/><path id="Path_72" data-name="Path 72" d="M404.42745,146.53056c-4.056.048-5.862,2.87805-6.206,6.516-.3,3.15405,1.129,5.55506,4.628,5.4,4.12-.181,5.356-3.342,6.088-6.855C408.72244,148.76555,407.57241,146.49052,404.42745,146.53056Zm1.967,5.31006c-.357,2.109-.4,4.944-3.485,5.153-2.539.171-2.424-2.168-2.274-3.93.2-2.419.667-5.064,3.762-5.089C406.50247,147.95561,406.39743,150.00956,406.39443,151.84062Z" fill="#585858"/><path id="Path_73" data-name="Path 73" d="M308.78646,146.56462c-1.864.095-4.558-1.358-5.185,2.068-.58,3.173-1.21,6.338-1.818,9.5l2.2,1.3c-.423-4.441,1.259-6.006,4.825-5.938a3.52692,3.52692,0,0,0,3.6-3.88305,3.1608,3.1608,0,0,0-3.622-3.047Zm-1.379,5.9c-1.391.006-2.115-.4-2.023-1.978.111-1.874.834-2.916,2.826-2.7a1.9,1.9,0,0,1,1.939,2.188,2.49994,2.49994,0,0,1-2.50043,2.49951q-.12048,0-.24054-.01159Z" fill="#484848"/><path id="Path_74" data-name="Path 74" d="M423.54141,149.17155c-.375-2.175-2.063-2.762-3.951-2.662-1.776.094-4.381-.951-4.692,2.012-.337,3.217-2.174,6.307-.239,10.184.243-4.272,2.519-5.084,5.845-5.277a3.40493,3.40493,0,0,0,3.037-4.257Zm-2.012.96c-.186,1.48206-1.073,2.5-2.158,2.333-1.867-.092-3.081-.135-2.6-1.955.332-1.261.206-2.812,2.238-2.74694,1.60706.05188,2.74109.62988,2.52106,2.36987Z" fill="#4d4d4d"/><path id="Path_75" data-name="Path 75" d="M58.97744,94.31962c-1.24194-.3-2.767.213-3.594-1.264,5.267.45605,10.393-2,15.773-.285Z" fill="#9b9b9b"/><path id="Path_76" data-name="Path 76" d="M56.3345,96.55449l2.5-1.188h9.438C64.25546,95.50456,60.57247,99.68657,56.3345,96.55449Z" fill="#9b9b9b"/><path id="Path_77" data-name="Path 77" d="M79.44033,103.44963c1.433-.054,1.861,1.222,2.023,2.633.148,1.285-.72,1.864-1.76,1.447-1.094-.436-3.06.59-3.208-1.458C76.38235,104.51066,77.48239,103.64665,79.44033,103.44963Z" fill="#484849"/><path id="Path_78" data-name="Path 78" d="M332.56533,76.52263h0c-3.368-1.578-6.082-3.645-5.829-7.892.091-1.519.741-2.666,2.357-2.911,1.436-.218,2.51.634,2.322,1.932-.846,5.838,3.074,5.073,6.606,4.994,1.764-.03894,3.532.03406,5.3.057,1.322-9.172-.215-13.285-6.174-15.212a23.32606,23.32606,0,0,0-13.933-.614c-5.734,1.634-8.167,5.11694-8.917,10.958-1.157,9.009,3.589,14.429,10.082,19.16,4.706,2.37305,9.015,5.041,8.064,11.4a2.9,2.9,0,0,1-2.538,2.806c-1.643.2-3.05-.827-2.839-2.227,1.712-11.359-6.488-7.908-12.144-8.27405-1.249,16.389,6.948,23.486,21.79,19.026,5.452-1.64,7.792-5.161,8.5-10.708C346.57339,88.21953,340.88638,81.70854,332.56533,76.52263Z" fill="#fb4903"/></svg>