<svg id="Layer_1" data-name="Layer 1" xmlns="http://www.w3.org/2000/svg" xmlns:xlink="http://www.w3.org/1999/xlink" viewBox="0 0 500 500"><defs><linearGradient id="linear-gradient" x1="250" y1="94.77565" x2="250" y2="320.39155" gradientTransform="matrix(1, 0, 0, -1, 0, 502)" gradientUnits="userSpaceOnUse"><stop offset="0.47486" stop-color="#fefefe"/><stop offset="1" stop-color="#eee"/></linearGradient></defs><path d="M436.33781,196.39118c-8.629,0-14.33168-2.27786-17.8422-5.93311-14.219-14.81934,7.62677-52.25088,17.23117-52.25088a4.69509,4.69509,0,0,1,1.09872.134,7.60207,7.60207,0,0,1,1.66686.58956C452.43811,145.6249,477.06009,196.39118,436.33781,196.39118Z" fill="#efefef"/><path d="M436.33777,191.03152c-6.54278,0-11.24523-1.442-13.97663-4.28615-4.86864-5.07383-3.09723-14.35162-1.60786-19.43043,3.80195-12.96538,12.20725-22.7197,15.02339-23.71521a3.3965,3.3965,0,0,1,.40327.16617c6.98917,3.355,19.72012,24.71151,16.74435,37.78683C452.39069,183.89705,450.76712,191.03152,436.33777,191.03152Z" fill="#f4f4f4"/><path d="M418.49561,190.45808c-14.219-14.81934,7.62677-52.25088,17.23117-52.25088a4.69509,4.69509,0,0,1,1.09872.134C434.57447,140.21168,409.30924,162.02532,418.49561,190.45808Z" fill="#d8d8d8"/><path d="M427.688,166.40187c2.66324,2.50263,4.2559,5.77015,5.63889,9.04.33.82756.665,1.65658.92855,2.505.2684.84644.59591,1.68389.81191,2.54424l.71387,2.57371.56619,2.60427.277,1.30544.22,1.31222.43967,2.629c.23,1.757.44369,3.52048.61425,5.28605.11613,1.76545.27925,3.53431.3556,5.30364l.12254,5.30833-4.22109-.079.1219-5.16252-.02486-5.15968c-.059-1.71611-.15194-3.431-.2263-5.15l-.21962-2.56475-.10961-1.28465-.16543-1.27442A63.00235,63.00235,0,0,0,431.558,176.0574a38.5218,38.5218,0,0,0-1.68663-4.8501,19.431,19.431,0,0,0-2.53557-4.41467Z" fill="#bbb"/><path d="M78.584,120.22055a25.47331,25.47331,0,0,1-15.41264,23.40321,25.19671,25.19671,0,0,1-8.91952,2.038c-.18017.00949-.36023.019-.54981.019-.19906.0095-.39812.0095-.59717.0095a25.47442,25.47442,0,1,1,25.4318-26.97681c.00949.237.02838.474.03788.7204C78.57447,119.69921,78.584,119.95514,78.584,120.22055Z" fill="#efefef"/><path d="M66.61219,155.77571a27.78009,27.78009,0,0,1-.22754,3.564,29.57122,29.57122,0,0,1-2.85309,9.40307c-4.64472,9.45048-14.09506,16.3415-24.91045,16.3415a28.00538,28.00538,0,0,1-8.83429-54.58866,27.36133,27.36133,0,0,1,8.83429-1.45028,27.07427,27.07427,0,0,1,5.21332.50244,28.12524,28.12524,0,0,1,22.77775,26.22794Z" fill="#e5e5e5"/><path d="M110.98265,147.1215c0,.1232,0,.25592-.00949.37914a28.64361,28.64361,0,0,1-47.44159,21.24213c-.71089-.61617-1.39341-1.2702-2.04746-1.95262a28.78042,28.78042,0,0,1-4.16117-5.64943,28.00424,28.00424,0,0,1-2.15178-4.83419,27.66043,27.66043,0,0,1-.8531-3.09962,28.63831,28.63831,0,0,1-.654-6.08541c0-.48346.0094-.95743.03788-1.44079.019-.455.05686-.91.10423-1.35545a28.11307,28.11307,0,0,1,2.39821-9.005,28.69533,28.69533,0,0,1,19.4695-16.07608,26.26151,26.26151,0,0,1,2.86268-.53082,27.79286,27.79286,0,0,1,3.79153-.25592,28.31711,28.31711,0,0,1,11.38408,2.36024A28.654,28.654,0,0,1,110.98265,147.1215Z" fill="#f4f4f4"/><path d="M63.105,169.5485a28.954,28.954,0,0,1-2.75826,4.3129,4.25061,4.25061,0,0,1-.31288.40752A27.50092,27.50092,0,0,1,38.62111,185.0843a27.98379,27.98379,0,0,1-14.87235-51.71662c-.52133,1.2797-1.46916,2.51194-2.019,3.70629a26.40295,26.40295,0,0,0,37.41306,33.90574,10.10109,10.10109,0,0,1,2.90046-1.39332A3.06727,3.06727,0,0,1,63.105,169.5485Z" fill="#d8d8d8"/><path d="M110.98265,147.1215c0,.1232,0,.25592-.00949.37914-1.35545-11.89593-7.858-18.77758-14.9292-22.75868a46.00939,46.00939,0,0,0-17.46949-5.30816c-1.80106-.18957-2.90056-.18957-2.90056-.18957-3.583-25.356-26.10472-24.25641-26.10472-24.25641a25.47692,25.47692,0,0,1,28.76547,21.69552q.1416,1.01058.20195,2.03007a27.79286,27.79286,0,0,1,3.79153-.25592,28.31719,28.31719,0,0,1,11.38409,2.36024A28.65394,28.65394,0,0,1,110.98265,147.1215Z" fill="#d8d8d8"/><path d="M72.79885,139.31743a20.618,20.618,0,0,0-2.32689,3.6633c-.69647,1.28885-1.2474,2.66248-1.81419,4.01277-.51738,1.38095-1.05282,2.74341-1.45579,4.16651-.21418.70488-.4428,1.40182-.64431,2.10889l-.53647,2.1468a120.75985,120.75985,0,0,0-2.9485,17.43169c-.20029,1.45861-.261,2.944-.3783,4.41626-.101,1.47534-.22377,2.94557-.30746,4.42045l-.1408,4.43867-.08658,2.21537-.04339,1.10707-.001,1.11166c.011,2.96543-.029,5.92186.0221,8.88415.07844,2.9652.17735,5.92746.22946,8.88832l-7.46527.13976c.04152-3.04078.12987-6.08016.19775-9.11659.008-.75869.04573-1.51866.10509-2.27877l.15305-2.27895.30679-4.55369c.23112-3.03452.617-6.06628.95289-9.089.21176-1.51077.46338-3.01879.69333-4.52577.2465-1.506.43543-3.01451.76686-4.51122l.904-4.49035c.32585-1.49124.75284-2.96829,1.12419-4.44867.1997-.73825.36769-1.48087.59332-2.21348l.68689-2.1935.68653-2.18825c.24318-.72551.528-1.44119.78987-2.16064l.82283-2.14429c.298-.70715.62415-1.40525.93443-2.10594.59336-1.41064,1.3256-2.77,2.03422-4.12805.34585-.68272.78362-1.32675,1.175-1.98523.38353-.66276.83993-1.2902,1.28244-1.91942a19.06915,19.06915,0,0,1,3.0692-3.51455Z" fill="#bbb"/><path d="M58.04509,175.57641c-.156-2.66681-.48453-5.4559-.91194-8.16524a72.48671,72.48671,0,0,0-1.73274-8.07466,40.52986,40.52986,0,0,0-2.91157-7.6641,15.86451,15.86451,0,0,0-5.1449-6.13482l.45534-.8117a17.15208,17.15208,0,0,1,6.20623,6.05566,42.6421,42.6421,0,0,1,3.84843,7.73389,75.44792,75.44792,0,0,1,2.62107,8.18993c.72251,2.78642,1.33211,5.541,1.7936,8.456Z" fill="#bbb"/><path d="M433.79062,185.99609a41.65246,41.65246,0,0,1,.86625-4.5248,36.084,36.084,0,0,1,1.36226-4.3705,20.67206,20.67206,0,0,1,2.08918-4.09817,9.32709,9.32709,0,0,1,3.36414-3.15081l.2575.45895a8.58567,8.58567,0,0,0-2.77254,3.20974,19.47384,19.47384,0,0,0-1.54953,4.04029,34.40985,34.40985,0,0,0-.855,4.27768,39.71956,39.71956,0,0,0-.36806,4.319Z" fill="#bbb"/><ellipse cx="250" cy="294.4164" rx="302.34188" ry="112.80795" fill="url(#linear-gradient)"/><path d="M330.31578,187.279c0,2.53356-35.95812,4.58948-80.31541,4.58948s-80.31615-2.05592-80.31615-4.58948c0-2.53656,35.95887-4.58975,80.31615-4.58975S330.31578,184.74239,330.31578,187.279Z" fill="#1d1d1b" opacity="0.1" style="isolation:isolate"/><g opacity="0.97"><path d="M269.37761,145.60775h-1.30516a3.06732,3.06732,0,0,0-3.06791,3.06645v12.37711h4.373Z" fill="#1d1715"/><path d="M274.03491,161.88446v14.66731h-102.46a5.97083,5.97083,0,0,1-2.18717-.40952,6.06507,6.06507,0,0,1-3.88477-5.66389v-6.84248c0-2.01743,1.64211-1.75145,3.6594-1.75145Z" fill="#bc3100"/><path d="M326.17164,170.33614a6.19825,6.19825,0,0,1-6.18805,6.20847l-.00764,0H275.576a6.046,6.046,0,0,1-1.5411-.19769,6.18761,6.18761,0,0,1-4.65459-5.998V107.10347c0-3.42051,2.77369-2.43961,6.19565-2.43961h38.13749a6.19218,6.19218,0,0,1,6.079,5.00994l5.037,25.78192a70.61057,70.61057,0,0,1,1.315,13.42609l.01994,18.503Z" fill="#fb4a04"/><path d="M299.57232,176.54463H275.576a6.046,6.046,0,0,1-1.5411-.19769v.20483h-4.65459V160.059h19.356c.2715,0,.54446.01267.81743.03977s.53894.06114.80331.10234c.26581.04833.526.10951.78481.17062.12931.03406.25157.0754.381.10947.253.08109.4976.17062.74347.26583a8.75609,8.75609,0,0,1,1.71027.8985.16832.16832,0,0,0,.04834.03407l.28578.20483c.10949.08239.21034.1578.31283.23875a6.89563,6.89563,0,0,1,.59428.51185c.108.10089.21746.21037.31983.31984.07528.07541.1492.15634.22463.23889a9.45,9.45,0,0,1,2.18077,4.191c.04134.16348.06827.327.09532.49046l.94686,5.3711Z" fill="#0c0a09"/><path d="M205.27609,176.55177h-4.641l-.54519-3.06807-.94683-5.36952c-.02765-.14369-.05477-.28722-.0824-.42946a8.04978,8.04978,0,0,0-5.16556-5.80027,8.33466,8.33466,0,0,0-2.71256-.45638h-8.36929a7.3555,7.3555,0,0,0-7.25126,6.09318l-1.04919,5.95677-.54518,3.07374h-2.39272a5.97083,5.97083,0,0,1-2.18717-.40952l.55872-3.1419,1.10393-6.26946a11.94418,11.94418,0,0,1,11.76289-9.87634h8.36929a12.6393,12.6393,0,0,1,10.08668,5.02989,12.47663,12.47663,0,0,1,2.34424,5.2417l.01355.06813c.01355.06114.02707.12942.03422.19056l.92692,5.28857v.00713l.06115.327Z" fill="#bc3100"/><path d="M239.8638,176.55177H235.222l-.54447-3.06807-.94815-5.36952c-.03421-.16348-.05415-.3-.08108-.42946a8.05219,8.05219,0,0,0-5.1663-5.80027,8.328,8.328,0,0,0-2.71256-.45638h-8.36871a7.35441,7.35441,0,0,0-7.25112,6.09318L209.0997,173.478l-.5452,3.07374h-4.65457l.63341-3.55139.05476-.31984v-.00713l1.04919-5.94251a11.94417,11.94417,0,0,1,11.76346-9.87634h8.36871a12.63928,12.63928,0,0,1,10.08668,5.02989,12.46759,12.46759,0,0,1,2.34425,5.2417l1.03651,5.88136Z" fill="#bc3100"/><path d="M182.81672,160.066h8.36651a9.45036,9.45036,0,0,1,9.30479,7.80782l1.53031,8.67923H172.51675l.10875-.26015,1.5887-9.009A8.7356,8.7356,0,0,1,182.81672,160.066Z" fill="#0c0a09"/><path d="M203.30569,173.2435l-.9972-5.688c-.00786-.05968-.02286-.11951-.02984-.17209a11.29591,11.29591,0,0,0-11.09409-9.164h-8.36784a10.57522,10.57522,0,0,0-10.42368,8.74751l-.07454.41654-1.02718,5.8601-.59207,3.30536h1.88014l.044-.253.54387-3.05234,1.03492-5.8601.015-.09667a8.73618,8.73618,0,0,1,8.59961-7.222h8.36784a9.44164,9.44164,0,0,1,9.20244,7.31867c.0377.16492.06754.32842.0974.49191l.94538,5.36819.588,3.30536h1.87725Z" fill="#fb4a04"/><path d="M217.40365,160.066h8.36657a9.45172,9.45172,0,0,1,9.30551,7.80782l1.52959,8.67923H207.10368l.10876-.26015,1.58869-9.009A8.73617,8.73617,0,0,1,217.40365,160.066Z" fill="#0c0a09"/><path d="M237.89338,173.2435l-.998-5.688c-.00712-.05968-.02286-.11951-.02984-.17209a11.29514,11.29514,0,0,0-11.09337-9.164h-8.36854A10.57578,10.57578,0,0,0,206.98,166.96689l-.07454.41654-1.0272,5.8601-.59207,3.30536h1.88015l.04469-.253.54389-3.05234,1.03419-5.8601.015-.09667a8.7362,8.7362,0,0,1,8.59961-7.222h8.36858a9.44286,9.44286,0,0,1,9.20244,7.31867c.037.16492.06682.32842.09666.49191l.94538,5.36819.58857,3.30536H238.482Z" fill="#fb4a04"/><path d="M318.83725,107.39491h6.67184a8.13882,8.13882,0,0,1,5.91413,2.52492,7.55093,7.55093,0,0,1,1.79118,5.81876l-.3455,10.189h-1.07755l-.38389-10.38382a5.48327,5.48327,0,0,0-5.13644-4.82228l-6.17571.51753Z" fill="#fb4a04"/><path d="M334.49406,124.26715a2.34348,2.34348,0,0,1-2.223,2.45809l-.0006,0h-.02841a.55262.55262,0,0,1-.58-.52379l-.00012-.00218-.41222-10.47351a.55607.55607,0,0,1,.52612-.58289l.15636-.00568a2.21671,2.21671,0,0,1,2.323,2.10273Z" fill="#bc3100"/><path d="M313.20743,99.26436H275.48359a6.10614,6.10614,0,0,0-6.106,6.10615v2.02441h50.14912v-1.80984A6.32043,6.32043,0,0,0,313.20743,99.26436Z" fill="#1d1715"/><path d="M326.126,146.57456H320.1039a1.89269,1.89269,0,0,1-1.89077-1.89092V113.8749a1.8931,1.8931,0,0,1,1.89077-1.89238h.1408C322.4269,118.609,326.126,135.60785,326.126,146.57456Z" fill="#abede3"/><path d="M326.126,146.57456H320.1039a1.89269,1.89269,0,0,1-1.89077-1.89092V113.8749a1.8931,1.8931,0,0,1,1.89077-1.89238h.1408l-.14935-.74346a2.6376,2.6376,0,0,0-2.62724,2.63584v30.80874a2.639,2.639,0,0,0,2.63583,2.63439h6.0747v-.46061Z" fill="#614f49"/><path d="M326.1786,151.32434a9.37991,9.37991,0,0,1,0,5.95678h-2.18077a2.67637,2.67637,0,0,1-2.67267-2.67428v-.617a2.6689,2.6689,0,0,1,2.67228-2.66553h2.18116Z" fill="#f9b659"/><path d="M323.99783,150.95181a3.0473,3.0473,0,0,0-3.04518,3.03807v.617a3.05369,3.05369,0,0,0,3.04518,3.04667h2.18077v-.74493h-2.18077a2.30746,2.30746,0,0,1-2.30175-2.30174v-.617a2.30024,2.30024,0,0,1,2.30175-2.29314h2.18077v-.74493Z" fill="#5e4a4c"/><path d="M326.1786,161.88721a3.38282,3.38282,0,0,1,0,3.16458h-2.44232a1.56342,1.56342,0,0,1-1.56234-1.56378v-.037a1.56263,1.56263,0,0,1,1.56143-1.56378h.00091Z" fill="#eddfc8"/><path d="M299.82822,167.38339a11.28417,11.28417,0,0,0-11.09469-9.164h-19.356v1.84537h19.35592a9.45847,9.45847,0,0,1,9.21088,7.31867c.037.16492.0668.32842.09664.49191l.94539,5.3682.58015,3.30535h22.25617c3.23285,0,6.55948-1.19563,6.55948-3.30535v-3.9637a1.89569,1.89569,0,0,0-1.89494-1.89644h-26.659Z" fill="#bc3100"/><path d="M299.52251,160.53669a4.57117,4.57117,0,0,0,3.78591,1.996h7.64285a3.52022,3.52022,0,0,0,3.51995-3.5205V116.087a4.15669,4.15669,0,0,0-4.15636-4.157H292.0503a4.1567,4.1567,0,0,0-4.157,4.15643v34.46594a5.41214,5.41214,0,0,0,4.26354,5.28857A11.63035,11.63035,0,0,1,299.52251,160.53669Z" fill="#bc3100"/><g opacity="0.75"><path d="M324.4599,135.19557l-3.81575,10.63391h-.54025a1.14729,1.14729,0,0,1-1.1473-1.14584v-13.1859l3.14191-9.48531C323.21593,127.05935,324.4599,135.19557,324.4599,135.19557Z" fill="#fff"/><path d="M321.71184,120.315l-2.75524,8.3907v-6.70184l1.80985-5.54581C321.07916,117.63374,321.399,118.93027,321.71184,120.315Z" fill="#fff"/></g><path d="M310.12381,138.009l-16.713-3.02526a5.05523,5.05523,0,0,1-4.15552-4.97441V116.087a2.79429,2.79429,0,0,1,2.7949-2.79365h18.26416a2.79438,2.79438,0,0,1,2.795,2.79365v19.42845a2.53444,2.53444,0,0,1-2.98555,2.49361Z" fill="#abede3"/><path d="M310.58019,138.39a3.01809,3.01809,0,0,1-.51753-.04556l-16.713-3.02527a5.39255,5.39255,0,0,1-4.43418-5.30983V116.087a3.138,3.138,0,0,1,3.13475-3.13473h18.26408a3.138,3.138,0,0,1,3.13475,3.13473v19.42845A2.87464,2.87464,0,0,1,310.58019,138.39Zm-18.52993-24.75691a2.45711,2.45711,0,0,0-2.45386,2.45387v13.92238a4.71142,4.71142,0,0,0,3.87544,4.63886l16.71312,3.02526a2.18995,2.18995,0,0,0,2.58316-2.15805V116.087a2.457,2.457,0,0,0-2.45374-2.45387Z" fill="#614f49"/><path d="M244.13315,157.28113h22.43393a2.81053,2.81053,0,0,1,2.81053,2.81053v7.97857a2.81054,2.81054,0,0,1-2.81053,2.81053H244.13315a2.8107,2.8107,0,0,1-2.81069-2.81069v-7.97828A2.81067,2.81067,0,0,1,244.13315,157.28113Z" fill="#fb4a04"/><rect x="269.38036" y="107.39491" width="11.81122" height="50.82446" fill="#bc3100"/><path d="M295.50353,138.04032a.80943.80943,0,0,1-.809.80884h-2.98261a.80935.80935,0,0,1-.809-.80884h0a.80937.80937,0,0,1,.809-.809h2.98261A.80947.80947,0,0,1,295.50353,138.04032Z" fill="#1d1715"/><g opacity="0.75"><path d="M310.94689,114.06954l-7.41531,22.05438-8.71622-1.58243,6.81407-20.56717h8.68344A2.17184,2.17184,0,0,1,310.94689,114.06954Z" fill="#fff"/><path d="M300.6484,113.97433l-6.71306,20.41081-.40239-.07526a4.28029,4.28029,0,0,1-1.696-.69529l6.42031-19.64027Z" fill="#fff"/></g><path d="M277.84924,110.56663a.738.738,0,0,1-.73779.73779h-4.95024a.73717.73717,0,0,1-.73794-.73639v-.0014h0a.73837.73837,0,0,1,.73754-.73924h4.95064A.73918.73918,0,0,1,277.84924,110.56663Z" fill="#1d1715"/><path d="M277.84924,113.29331a.73811.73811,0,0,1-.73779.73794h-4.95024a.73729.73729,0,0,1-.73794-.73664v-.0013h0a.73852.73852,0,0,1,.73774-.73925h4.95044A.73933.73933,0,0,1,277.84924,113.29331Z" fill="#1d1715"/><path d="M277.84924,116.02014a.738.738,0,0,1-.73779.73779h-4.95024a.73715.73715,0,0,1-.73794-.73637v-.00142h0a.73837.73837,0,0,1,.73754-.73924h4.95064A.73918.73918,0,0,1,277.84924,116.02014Z" fill="#1d1715"/><path d="M277.84924,118.74682a.7381.7381,0,0,1-.73779.73794h-4.95024a.73728.73728,0,0,1-.73794-.73664v-.0013h0a.73722.73722,0,0,1,.73667-.73779h4.95151A.73807.73807,0,0,1,277.84924,118.74682Z" fill="#1d1715"/><path d="M277.84924,121.47365a.738.738,0,0,1-.73779.7378h-4.95024a.73719.73719,0,0,1-.73794-.7364v-.0014h0a.73837.73837,0,0,1,.73754-.73924h4.95064A.73918.73918,0,0,1,277.84924,121.47365Z" fill="#1d1715"/><path d="M277.84924,124.20033a.7381.7381,0,0,1-.73779.73794h-4.95024a.73729.73729,0,0,1-.73794-.73664v-.0013h0a.73725.73725,0,0,1,.73671-.73777h4.95147a.73808.73808,0,0,1,.73779.73779Z" fill="#1d1715"/><path d="M277.84924,126.92716a.73807.73807,0,0,1-.73779.73779h-4.95024a.73725.73725,0,0,1-.73794-.73653v-.00126h0a.73729.73729,0,0,1,.73663-.73793h4.95155A.7381.7381,0,0,1,277.84924,126.92716Z" fill="#1d1715"/><path d="M191.18251,156.85457h-8.36929a11.90273,11.90273,0,0,0-7.515,2.667l24.84,1.06621A12.62937,12.62937,0,0,0,191.18251,156.85457Z" opacity="0.1" style="isolation:isolate"/><path d="M277.46387,174.00416a5.9594,5.9594,0,1,0,0-.00351Z" fill="#362a2b"/><path d="M270.57743,174.01549A12.84758,12.84758,0,1,0,283.415,161.15656,12.84758,12.84758,0,0,0,270.57743,174.01549Zm4.94021-.00567a7.90876,7.90876,0,1,1,7.91455,7.903h0a7.9072,7.9072,0,0,1-7.91451-7.89987Z" fill="#1d1715"/><path d="M275.54052,174.00982a7.88379,7.88379,0,1,0,7.87738-7.89035A7.8838,7.8838,0,0,0,275.54052,174.00982Zm.85439-.00147a7.022,7.022,0,1,1,0,.0105v-.0105Z" fill="#dadada"/><path d="M278.59271,174.00836a4.833,4.833,0,1,0,4.82794-4.838h0A4.833,4.833,0,0,0,278.59271,174.00836Zm1.79425-.00145a3.03807,3.03807,0,1,1,3.04085,3.03676,3.03807,3.03807,0,0,1-3.04085-3.03676Z" fill="#ededed"/><path d="M280.387,174.0069a3.03807,3.03807,0,1,0,3.03663-3.041A3.03806,3.03806,0,0,0,280.387,174.0069Zm1.875-1.16433a.43479.43479,0,1,1-.002-.61487l.00068.00067A.435.435,0,0,1,282.262,172.84257Zm1.41458-.70518a.253.253,0,1,1-.253-.253h0a.25277.25277,0,0,1,.253.25249Zm1.5255.70241a.43482.43482,0,1,1-.00219-.61492l.00071.00072a.43511.43511,0,0,1,.00148.61421Zm.091,1.41735a.25374.25374,0,1,1,.253-.25449v0A.25384.25384,0,0,1,285.29308,174.25715Zm-.70373.9099a.43379.43379,0,1,1-.00072.00072Zm-1.41458.70372a.2531.2531,0,1,1,.25316.253h-.00143a.25233.25233,0,0,1-.25173-.25295v-.00006Zm-.90273-1.8653a1.15281,1.15281,0,1,1,0,.00033v-.00033Zm-.62277,1.163a.42911.42911,0,1,1-.00059.00058l.00059-.00059Zm-.344-1.16159a.2531.2531,0,1,1,.25447.2517h-.00147a.25385.25385,0,0,1-.253-.2517Z" fill="#c6c6c6"/><path d="M276.39491,174.00836a7.03085,7.03085,0,1,0,7.02737-7.03434h-.00291A7.03184,7.03184,0,0,0,276.39491,174.00836Zm2.559-2.58168a.78622.78622,0,1,1-.34124-.96257A.72552.72552,0,0,1,278.95388,171.42668Zm4.46677-2.25632a4.833,4.833,0,1,1-4.82794,4.838v0A4.83526,4.83526,0,0,1,283.42065,169.17036Zm-2.57878.36685a.7864.7864,0,1,1,.18619-1.00507.72558.72558,0,0,1-.18615,1.00507Zm3.24276-1.47a.67284.67284,0,1,1-.6653-.77754A.72707.72707,0,0,1,284.08463,168.06716Zm2.88175,1.12459a.67324.67324,0,1,1-.1891-1.00507.72837.72837,0,0,1,.1891,1.00508Zm1.93195,2.41543a.67344.67344,0,1,1,.33976-.96532.72957.72957,0,0,1-.33976.96533Zm.465,3.05511a.67205.67205,0,1,1,.77622-.66383.72739.72739,0,0,1-.77622.66384Zm-1.46582,1.91643a.78659.78659,0,1,1,.34124.96679.727.727,0,0,1-.34124-.96681Zm-1.88787,1.89222a.78679.78679,0,1,1-.18635,1.00653.72654.72654,0,0,1,.18635-1.00655Zm-3.24288,1.47151a.67193.67193,0,1,1,.664.77477.72527.72527,0,0,1-.664-.77479ZM279.885,178.8164a.67337.67337,0,1,1,.18763,1.00522.73093.73093,0,0,1-.18767-1.00525Zm-1.932-2.414a.6725.6725,0,1,1-.33977.96388.72639.72639,0,0,1,.33977-.9639Zm-1.24251-2.394a.78708.78708,0,1,1,.77765.6653.72806.72806,0,0,1-.77765-.66532Z" fill="#c6c6c6"/><path d="M181.33821,174.00416a5.95961,5.95961,0,1,0,0-.00309Z" fill="#362a2b"/><path d="M174.45091,174.01549a12.84795,12.84795,0,1,0,12.83769-12.85893A12.84793,12.84793,0,0,0,174.45091,174.01549Zm4.9389-.00567a7.90906,7.90906,0,1,1,7.91655,7.903,7.90907,7.90907,0,0,1-7.91655-7.903v0Z" fill="#1d1715"/><path d="M179.41543,174.00982a7.88379,7.88379,0,1,0,7.87725-7.89035h-.00058A7.88466,7.88466,0,0,0,179.41543,174.00982Zm.85294-.00147a7.00837,7.00837,0,1,1,0,.01012v-.01011Z" fill="#dadada"/><path d="M182.467,174.00836a4.837,4.837,0,1,0,0-.0021Zm1.79411-.00145a3.03809,3.03809,0,1,1,3.041,3.03676,3.03808,3.03808,0,0,1-3.041-3.03676Z" fill="#ededed"/><path d="M184.26113,174.0069a3.03808,3.03808,0,1,0,3.03519-3.041h0A3.04023,3.04023,0,0,0,184.26113,174.0069Zm1.87375-1.16433a.48488.48488,0,1,1,.00009-.00011Zm1.416-.70518a.25345.25345,0,1,1-.25389-.253h.00074a.253.253,0,0,1,.25315.25277Zm1.52467.70241a.43478.43478,0,1,1-.00068-.61488l.00068.00068a.43689.43689,0,0,1,0,.61421Zm.091,1.41735a.25375.25375,0,1,1,.25244-.255v.00057a.255.255,0,0,1-.25248.25448Zm-.70377.9099a.43029.43029,0,1,1-.00072.00071Zm-1.41458.70372a.25222.25222,0,0,1,.25139-.253h.001a.253.253,0,1,1,.003.506h-.003a.25211.25211,0,0,1-.25242-.25182v-.00119Zm-.902-1.8653a1.15335,1.15335,0,1,1,1.15373,1.153h0a1.15275,1.15275,0,0,1-1.15371-1.1518v-.00117Zm-.62264,1.163a.42661.42661,0,1,1-.0006.00058l.0006-.00059Zm-.34415-1.16159a.25309.25309,0,1,1,.25447.2517h-.00131A.25315.25315,0,0,1,185.17944,174.0069Z" fill="#c6c6c6"/><path d="M180.26835,174.00836a7.03122,7.03122,0,1,0,7.02807-7.03437h-.00363A7.03254,7.03254,0,0,0,180.26835,174.00836Zm2.559-2.58168a.78627.78627,0,1,1-.34124-.96257A.72547.72547,0,0,1,182.82732,171.42668Zm4.46842-2.25632a4.833,4.833,0,1,1-4.8287,4.838,4.833,4.833,0,0,1,4.8287-4.838Zm-2.58111.36685a.78613.78613,0,1,1,.18693-1.00507.72758.72758,0,0,1-.18695,1.00507Zm3.24423-1.47a.67252.67252,0,1,1-.66529-.77754.72709.72709,0,0,1,.66525.77754Zm2.881,1.12459a.673.673,0,1,1-.18765-1.00507.72875.72875,0,0,1,.18761,1.00508Zm1.93139,2.41543a.67289.67289,0,1,1,.33979-.96532.729.729,0,0,1-.33983.96533Zm.46629,3.05511a.67213.67213,0,1,1,.77621-.66383.72654.72654,0,0,1-.77625.66384Zm-1.46569,1.91643a.7865.7865,0,1,1,.33979.96679.72624.72624,0,0,1-.33981-.96681Zm-1.888,1.89222a.78708.78708,0,1,1-.1862,1.00653.72715.72715,0,0,1,.18616-1.00655Zm-3.24422,1.47151a.67256.67256,0,1,1,.6653.77477.72616.72616,0,0,1-.66533-.77479Zm-2.88029-1.12608a.6728.6728,0,1,1,.18693,1.00522A.73023.73023,0,0,1,183.75934,178.81637Zm-1.93213-2.414a.67235.67235,0,1,1-.33977.96388.72779.72779,0,0,1,.33977-.96387Zm-1.24177-2.394a.78632.78632,0,1,1,.777.6653.72606.72606,0,0,1-.777-.66529Z" fill="#c6c6c6"/><path d="M215.92587,174.00416a5.95915,5.95915,0,1,0,0-.004Z" fill="#362a2b"/><path d="M209.03857,174.01549a12.84725,12.84725,0,1,0,12.837-12.85893A12.84727,12.84727,0,0,0,209.03857,174.01549Zm4.93891-.00567a7.299,7.299,0,1,1,0,.00023v-.00023Z" fill="#1d1715"/><path d="M214.00308,174.00982a7.88343,7.88343,0,1,0,7.87667-7.89035A7.88342,7.88342,0,0,0,214.00308,174.00982Zm.85222-.00147a7.02284,7.02284,0,1,1,0,.00879v-.00879Z" fill="#dadada"/><path d="M217.054,174.00836a4.8373,4.8373,0,1,0,0-.00141Zm1.79411-.00145a3.03808,3.03808,0,1,1,3.04156,3.03676,3.03807,3.03807,0,0,1-3.04156-3.03676Z" fill="#ededed"/><path d="M218.84807,174.0069a3.03808,3.03808,0,1,0,3.03589-3.041A3.03807,3.03807,0,0,0,218.84807,174.0069Zm1.87374-1.16433a.45646.45646,0,1,1,.0001-.00011Zm1.41662-.70518a.25255.25255,0,1,1,0-.00094Zm1.52407.70241a.43451.43451,0,1,1-.00028-.61449l.00028.00029a.4358.4358,0,0,1,0,.61421Zm.0917,1.41735a.25374.25374,0,0,1-.002-.50748h.002a.25375.25375,0,0,1,0,.50748Zm-.70444.9099a.4298.4298,0,1,1-.00072.00071Zm-1.41458.70372a.25221.25221,0,0,1,.25139-.253h.001a.253.253,0,1,1,.003.506h-.003a.25211.25211,0,0,1-.25242-.25181v-.0012Zm-.90128-1.8653a1.15176,1.15176,0,1,1,0,.00243v-.00243Zm-.62264,1.163a.42848.42848,0,1,1-.00084.00082l.00084-.00083Zm-.34419-1.16159a.25309.25309,0,1,1,.25447.2517h-.002a.25253.25253,0,0,1-.25238-.2517Z" fill="#c6c6c6"/><path d="M214.8553,174.00836a7.03159,7.03159,0,1,0,7.02882-7.03434h-.00364A7.033,7.033,0,0,0,214.8553,174.00836Zm2.55971-2.58168a.78656.78656,0,1,1-.34124-.96257A.7265.7265,0,0,1,217.415,171.42668Zm4.46824-2.25632a4.833,4.833,0,1,1-4.82928,4.838A4.833,4.833,0,0,1,221.88325,169.17036Zm-2.58169.36685a.7862.7862,0,1,1,.18691-1.00507A.72673.72673,0,0,1,219.30156,169.53721Zm3.24493-1.47a.67283.67283,0,1,1-.66529-.77754A.7271.7271,0,0,1,222.54649,168.06716Zm2.88026,1.12459a.67275.67275,0,1,1-.18765-1.00507.72791.72791,0,0,1,.18767,1.00508Zm1.93211,2.41543a.67308.67308,0,1,1,.33978-.96532.72985.72985,0,0,1-.33976.96533Zm.4663,3.05511a.67213.67213,0,1,1,.77622-.66383.72657.72657,0,0,1-.77622.66384Zm-1.4657,1.91643a.7865.7865,0,1,1,.24069.899A.7876.7876,0,0,1,226.35946,176.57872Zm-1.88874,1.89222a.78721.78721,0,1,1-.18546,1.00653.72715.72715,0,0,1,.18548-1.00655Zm-3.24423,1.47151a.67256.67256,0,1,1,.66529.77477.72669.72669,0,0,1-.66525-.77479ZM218.347,178.8164a.67256.67256,0,1,1,.18619,1.00522.72942.72942,0,0,1-.18615-1.00525Zm-1.93211-2.414a.67223.67223,0,1,1-.34051.96388.72692.72692,0,0,1,.34057-.9639Zm-1.24177-2.394a.78591.78591,0,1,1,.77622.6653.72535.72535,0,0,1-.7762-.66532Z" fill="#c6c6c6"/></g><text transform="translate(177 229.29541)" font-size="19.80062" fill="#9e9e9e" font-family="Roboto-Regular, Roboto">No ride <tspan x="68.37402" y="0" letter-spacing="-0.00732em">av</tspan><tspan x="88.44531" y="0">ailable</tspan></text></svg>