<svg id="Layer_1" data-name="Layer 1" xmlns="http://www.w3.org/2000/svg" viewBox="0 0 100.08824 99.82353"><g id="Group_26" data-name="Group 26"><path id="Path_68" data-name="Path 68" d="M42.60088,95.647a20.47587,20.47587,0,0,0-3.37974-.52243A43.972,43.972,0,0,1,28.42608,91.9559,21.25681,21.25681,0,0,1,25.08971,90.294a23.40084,23.40084,0,0,1,6.212-4.0185,72.064,72.064,0,0,1,7.39707-2.43528c.42318.27375.84406.55207,1.27069.82012A11.563,11.563,0,0,0,46.94792,86.661a13.18389,13.18389,0,0,0,7.06516-2.88357,32.59056,32.59056,0,0,0,8.1328-9.45251,3.42175,3.42175,0,0,1,1.36879-1.34139,3.54294,3.54294,0,0,1,1.91513.22814c1.127.44828,2.26876.86119,3.39227,1.31859,3.68541,1.49995,7.01155,3.70254,10.58634,5.42148a4.1796,4.1796,0,0,1-1.16233,1.53758,45.26215,45.26215,0,0,1-10.77567,8.52177,43.23721,43.23721,0,0,1-13.04211,4.8101,34.93374,34.93374,0,0,1-4.56258.64332.56127.56127,0,0,0-.4791.17909Z" fill="#fef4ed"/><path id="Path_69" data-name="Path 69" d="M41.17854,5.40836A22.13968,22.13968,0,0,1,45.116,4.39547c.18477-.03993.43572.05474.527-.219h4.6447a4.52734,4.52734,0,0,0,1.66078.43c4.20327,1.1224,7.91378,3.00218,10.4403,6.72981a6.309,6.309,0,0,0,3.42194,3.8531,6.35228,6.35228,0,0,1,3.5862,4.72683,23.64423,23.64423,0,0,1-.77222,11.67564,21.75826,21.75826,0,0,0-.8418,4.17247,4.98441,4.98441,0,0,0-2.13641.45627,13.94549,13.94549,0,0,0-1.2182-3.13907,5.87429,5.87429,0,0,1-.94672-3.81888c.0536-.71062.0251-1.42808.02624-2.14213a7.83165,7.83165,0,0,0-1.84213-5.093c-1.16915-1.4338-1.96532-1.59691-3.625-.72089a31.82408,31.82408,0,0,1-16.71845,3.94549,40.91918,40.91918,0,0,1-4.41885-.57033.49071.49071,0,0,0-.03423-.12888,8.95854,8.95854,0,0,0,1.47144-9.39549,5.95875,5.95875,0,0,1-.54637-5.03823A8.51136,8.51136,0,0,1,39.576,7.26761C40.15192,6.69159,40.91047,6.25813,41.17854,5.40836Z" fill="#41416b"/><path id="Path_72" data-name="Path 72" d="M25.29616,35.75636a23.75767,23.75767,0,0,0-1.14065-5.361,13.77257,13.77257,0,0,1-.50529-2.425A4.49626,4.49626,0,0,0,22.58827,25.486a17.20359,17.20359,0,0,1-2.83563-5.8823c-.21558-.66386.0228-.82469.746-.6034,1.10413.3422,1.14065.284.9125-.88742-.14258-.72317-.21216-1.46117-.316-2.19232A18.33965,18.33965,0,0,1,22.578,7.85733c.4893-1.15434,1.19879-1.31516,2.109-.46995a7.60032,7.60032,0,0,0,4.25463,2.23339,6.65459,6.65459,0,0,0,3.28848-.56349c2.64855-1.02658,5.15684-2.39535,7.84648-3.32384.36157-.12547.73459-.21786,1.10072-.32509-.26347.84865-1.02657,1.28209-1.5969,1.85811a8.51167,8.51167,0,0,0-1.7817,2.85161,5.95875,5.95875,0,0,0,.54638,5.03823,8.95862,8.95862,0,0,1-1.47145,9.3955,24.32587,24.32587,0,0,1-5.48308-1.72124,1.18969,1.18969,0,0,0-1.83872.9456,15.827,15.827,0,0,0-.4015,4.939,8.42467,8.42467,0,0,1-.08326,2.39536c-.2555,1.22277-1.13038,2.14555-1.48283,3.30787-.17224.56232-.22814,1.36079-.61481,1.5969C26.59762,36.23885,25.86533,35.86586,25.29616,35.75636Z" fill="#36355e"/><path id="Path_73" data-name="Path 73" d="M12.5723,80.0088a10.15156,10.15156,0,0,0,3.16754-1.346A68.33211,68.33211,0,0,1,27.09725,73.222a4.42468,4.42468,0,0,1,2.26531-.22815,4.9442,4.9442,0,0,1,1.42011,1.65963,30.66185,30.66185,0,0,0,7.87044,9.02706q.01829.07755.03993.15512A72.06886,72.06886,0,0,0,31.296,86.271a23.40078,23.40078,0,0,0-6.212,4.01845,41.711,41.711,0,0,1-7.86136-5.43631,42.48793,42.48793,0,0,1-4.44054-4.469A2.15258,2.15258,0,0,1,12.5723,80.0088Z" fill="#fbe5d5"/><path id="Path_74" data-name="Path 74" d="M38.69877,83.84366q-.02169-.07644-.03993-.15511c1.18057-.47108,1.58092-1.66878,2.34973-2.52311.30455.09583.608.19732.9125.2863a11.82067,11.82067,0,0,0,4.60821.80529,17.17919,17.17919,0,0,0,9.65786-3.84281,22.91774,22.91774,0,0,0,5.2903-6.16976c.57032.55208,1.35282.49848,2.03035.74256a3.42184,3.42184,0,0,0-1.36879,1.3414A32.58963,32.58963,0,0,1,54.0062,83.781,13.18364,13.18364,0,0,1,46.941,86.66454a11.5629,11.5629,0,0,1-6.97848-2.00068C39.54282,84.3923,39.122,84.114,38.69877,83.84366Z" fill="#faac6e"/><path id="Path_75" data-name="Path 75" d="M36.90109,24.67955a40.92534,40.92534,0,0,0,4.41886.57033,31.82406,31.82406,0,0,0,16.71845-3.9455c1.6585-.87373,2.45582-.7129,3.625.7209a7.83184,7.83184,0,0,1,1.84214,5.093c0,.71406.02735,1.43153-.02626,2.14214a5.87425,5.87425,0,0,0,.94671,3.81887,13.94382,13.94382,0,0,1,1.2182,3.139,4.95565,4.95565,0,0,0,.03763.97184c.40606,1.72694-.15626,3.37517-.37984,5.05076a7.60919,7.60919,0,0,1-.35475,2.303,19.251,19.251,0,0,1-2.89836,7.02067,9.55122,9.55122,0,0,1-2.38168,2.50372c-.3.2133-.50074.33193-.77337-.07527a8.86845,8.86845,0,0,0-7.36175-4.161c-.04789-.46312.15171-.96042-.154-1.38475a2.78774,2.78774,0,0,0-3.26453-.08669,1.61632,1.61632,0,0,1-2.555.05816c-.884-1.16575-1.87865-.47793-2.81966-.28174-.97412.203-.60228,1.0631-.66841,1.695l-1.43723.13915a9.0775,9.0775,0,0,0-4.44851,2.133q-.45624-5.46026-.91249-10.92167a2.1509,2.1509,0,0,0,1.09274.15285l-.01482-.008.18365.17908a8.05888,8.05888,0,0,0,2.87442.18479c1.20908.11407,2.27443-.60112,3.47668-.5977.36842,0,.26236-.31367.01368-.47108-.87146-.54866-1.74974-1.087-2.62347-1.62884a4.16571,4.16571,0,0,0-4.19987-.33193c-.44257-.06958-.77222.22014-1.14976.35931a11.50272,11.50272,0,0,1,.3536-3.55425,8.2136,8.2136,0,0,1,1.96306.11407l.87372.14373c1.606.26235,3.18126.66043,4.75421,1.07221.20987.05476.535.29315.633-.16425a2.22882,2.22882,0,0,0-1.36879-2.14327,30.03783,30.03783,0,0,0-4.71315-.80419l-1.5969-.2133a6.14558,6.14558,0,0,0,.884-2.58243A56.18169,56.18169,0,0,1,36.90109,24.67955ZM57.05516,38.62508a4.185,4.185,0,0,0-4.177.38781,18.39787,18.39787,0,0,0-2.903,1.92315c1.30376.13459,2.4444.79843,3.72878.74369a7.961,7.961,0,0,0,2.87671-.17337c1.03343-.1232,1.90945-.74484,2.928-.92735.27374-.049.29884-.27945.089-.45625A5.26638,5.26638,0,0,0,57.054,38.62508Zm-3.02384-4.74736q-1.30265.24522-2.60523.48934a2.11134,2.11134,0,0,0-1.85355,2.21741c0,.373.18366.365.45625.29771q2.18205-.54637,4.36639-1.08248c.67413-.10152,1.34826-.20074,2.02122-.30455a5.22989,5.22989,0,0,1,4.923,1.40755.78759.78759,0,0,0,.22814.11407,3.37178,3.37178,0,0,0-3.01929-3.38315A18.69428,18.69428,0,0,0,54.03132,33.87772Z" fill="#f7b98e"/><path id="Path_76" data-name="Path 76" d="M35.26882,41.179l.9125,10.92167A22.00629,22.00629,0,0,0,34.5924,54.115c-.35245.56348-.65359.53268-1.13152.22813a10.796,10.796,0,0,1-3.536-3.917,25.93124,25.93124,0,0,1-2.3577-6.17544c-.057-.5247-.10495-1.05167-.17339-1.57523-.03763-.29087-.219-.46539-.4882-.27377a3.14815,3.14815,0,0,1-3.26794.02054l.00686-.00571-.15856-.19278a8.46678,8.46678,0,0,1-.93419-3.56794,2.66577,2.66577,0,0,1,2.73754-2.90409c.57032.11407,1.30147.4825,1.66307.25778.38782-.24067.44257-1.038.61481-1.59689.357-1.1646,1.23188-2.08738,1.48283-3.30787a8.42466,8.42466,0,0,0,.08326-2.39536,15.82669,15.82669,0,0,1,.4015-4.939,1.18969,1.18969,0,0,1,1.83872-.94559,24.325,24.325,0,0,0,5.48308,1.72124.49083.49083,0,0,1,.03422.1289,56.1741,56.1741,0,0,0-.203,6.20967,6.14353,6.14353,0,0,1-.884,2.58243c-.56.065-1.127.09353-1.6779.20189a3.20523,3.20523,0,0,0-2.50944,3.35579,4.84775,4.84775,0,0,1,3.65008-1.56611,11.50268,11.50268,0,0,0-.35359,3.55425c-.39467.30455-.79847.60454-1.18284.91252s-.535.55207.13918.70835A10.01564,10.01564,0,0,1,35.26882,41.179Z" fill="#faac6d"/><path id="Path_77" data-name="Path 77" d="M65.302,42.23748c.22813-1.6756.7859-3.32384.37983-5.05078a4.9562,4.9562,0,0,1-.03765-.97182,4.986,4.986,0,0,1,2.13643-.45625c1.7315.2532,2.701,1.849,2.28129,3.8303a9.90319,9.90319,0,0,1-1.00718,2.82424A3.54283,3.54283,0,0,1,65.302,42.23748Z" fill="#faac6d"/><path id="Path_78" data-name="Path 78" d="M51.52872,49.82734a8.86856,8.86856,0,0,1,7.36173,4.16109c.27263.4072.47449.28857.77337.0753A9.54944,9.54944,0,0,0,62.04551,51.56a19.25246,19.25246,0,0,0,2.89836-7.01952c.32053.24864.2806.62734.31366.96155.10267,1.04711.17454,2.09652.25892,3.14474A61.64823,61.64823,0,0,1,65.61,54.88609,39.84666,39.84666,0,0,1,62.24962,70.635c-.25435.5361-.51441,1.06991-.77221,1.60489A22.927,22.927,0,0,1,56.186,78.40965a17.1791,17.1791,0,0,1-9.65785,3.84281,1.07157,1.07157,0,0,1,.25209-.55319A7.04691,7.04691,0,0,0,47.9026,77.042a10.56132,10.56132,0,0,0-2.36686-5.182,5.54125,5.54125,0,0,1-.03651-7.26822,4.91152,4.91152,0,0,0,1.02657-1.42009c.3559-.01142.7129-.01367,1.06765-.03651,2.83108-.18136,5.07244-1.20452,5.95187-4.17476a3.82181,3.82181,0,0,1,.3-.64447c.57034-1.10758.39924-1.42922-.88855-1.5969a5.0602,5.0602,0,0,0-.70949,0,15.88335,15.88335,0,0,1-4.93331-.9125,1.492,1.492,0,0,0-1.11439.0228,15.15432,15.15432,0,0,1-3.96031.84295c-.05134-.46881-.45625-.67638-.73685-.96269a4.21127,4.21127,0,0,1-1.26954-3.9318,13.04333,13.04333,0,0,0,.39693-1.80565L42.067,49.833a2.00514,2.00514,0,0,0,1.444.28516,1.21016,1.21016,0,0,1,1.07336.27605,3.771,3.771,0,0,0,4.428,0c.2806-.18136.54522-.40039.89426-.29543A2.12615,2.12615,0,0,0,51.52872,49.82734Z" fill="#42416b"/><path id="Path_79" data-name="Path 79" d="M65.51874,48.64793c-.08441-1.04826-.15626-2.09763-.25892-3.14474-.03309-.33421.0057-.71291-.31367-.96156a7.613,7.613,0,0,0,.35475-2.30408,3.54289,3.54289,0,0,0,3.755.17794c-.48022,1.29235-.69123,2.65884-1.08248,3.97513A3.00563,3.00563,0,0,1,65.51874,48.64793Z" fill="#fb985c"/><path id="Path_80" data-name="Path 80" d="M46.52926,63.17292A4.91023,4.91023,0,0,1,45.50269,64.593a5.54122,5.54122,0,0,0,.03652,7.2682,10.56131,10.56131,0,0,1,2.36685,5.182,7.047,7.047,0,0,1-1.12241,4.65727c-.10606.17794-.2578.32735-.25209.5532a11.82089,11.82089,0,0,1-4.60821-.80529c-.30685-.089-.61025-.19048-.91251-.28631a29.609,29.609,0,0,1-4.05728-2.336,22.98617,22.98617,0,0,1-5.73744-6.46289,34.58017,34.58017,0,0,1-3.52118-10.494,54.00161,54.00161,0,0,1-.65474-9.94757c.01824-1.13038.02054-2.2619.03081-3.39228a10.53238,10.53238,0,0,0,.16082-1.13379,18.18742,18.18742,0,0,1,.34218-3.13907,25.92971,25.92971,0,0,0,2.3577,6.17545,10.796,10.796,0,0,0,3.536,3.917c.47793.3.77907.32965,1.13152-.22814a22.00144,22.00144,0,0,1,1.58893-2.01437,9.07819,9.07819,0,0,1,4.4485-2.133,13.04672,13.04672,0,0,1-.39693,1.8045,4.21126,4.21126,0,0,0,1.26954,3.93179c.28287.28516.6844.49392.73686.9627l-.892.06273a2.16725,2.16725,0,0,0-.88285.04219,2.79566,2.79566,0,0,0-1.73947.98894c-.24409.39923.36616.87487.47678,1.36193.02625.11407.09239.219.12891.3308a4.9983,4.9983,0,0,0,3.57819,3.30786A13.31867,13.31867,0,0,0,46.52926,63.17292Z" fill="#36355e"/><path id="Path_81" data-name="Path 81" d="M31.21385,72.3631A22.98525,22.98525,0,0,0,36.95129,78.826a29.60061,29.60061,0,0,0,4.05729,2.336c-.76992.85433-1.1703,2.05314-2.34972,2.52311A30.66151,30.66151,0,0,1,30.78841,74.658a4.944,4.944,0,0,0-1.4201-1.65962C29.9078,72.57526,30.63326,72.68247,31.21385,72.3631Z" fill="#fb985c"/><path id="Path_82" data-name="Path 82" d="M27.574,44.25528a18.17945,18.17945,0,0,0-.34218,3.13907,10.54314,10.54314,0,0,1-.16082,1.13379,2.62349,2.62349,0,0,1-2.3349-2.00755c-.4346-1.34139-.73229-2.72727-1.0893-4.09376a3.147,3.147,0,0,0,3.26794-.02054c.26918-.19048.45625-.01712.4882.27375C27.46908,43.20361,27.517,43.7306,27.574,44.25528Z" fill="#fb985c"/><path id="Path_83" data-name="Path 83" d="M23.49168,42.22609l.15856.19278Z" fill="#fb985c"/><path id="Path_84" data-name="Path 84" d="M51.52987,49.82734a2.12629,2.12629,0,0,1-1.622.26579c-.349-.105-.61481.11407-.89426.29542a3.771,3.771,0,0,1-4.428,0,1.21018,1.21018,0,0,0-1.07336-.276,2.00515,2.00515,0,0,1-1.444-.28517c.065-.6319-.3057-1.492.66842-1.695.941-.19618,1.93911-.884,2.81966.28175a1.61626,1.61626,0,0,0,2.555-.05816,2.78774,2.78774,0,0,1,3.26453.08667C51.68157,48.86691,51.482,49.36425,51.52987,49.82734Z" fill="#faac6e"/><path id="Path_85" data-name="Path 85" d="M54.02786,33.87771a18.69256,18.69256,0,0,1,4.52039-.24751,3.37175,3.37175,0,0,1,3.01929,3.38314.78734.78734,0,0,1-.22814-.11407,5.22979,5.22979,0,0,0-4.923-1.40755c-.673.1038-1.3471.203-2.02123.30455A3.15285,3.15285,0,0,1,54.02786,33.87771Z" fill="#46446b"/><path id="Path_86" data-name="Path 86" d="M37.411,33.68723a30.03513,30.03513,0,0,1,4.71313.80413,2.22885,2.22885,0,0,1,1.36879,2.14327c-.09809.45625-.42318.219-.633.16427-1.57294-.41177-3.14819-.80985-4.7542-1.07221l-.87382-.1437A2.036,2.036,0,0,1,37.411,33.68723Z" fill="#46446b"/><path id="Path_87" data-name="Path 87" d="M52.877,39.01289a4.18387,4.18387,0,0,1,4.177-.38781,2.58924,2.58924,0,0,1-.47564,2.88012,7.9632,7.9632,0,0,1-2.87671.17454A2.50937,2.50937,0,0,1,52.877,39.01289Zm2.94628.868a.70826.70826,0,0,0-.75738-.82013.7357.7357,0,0,0-.85548.78249c-.008.50189.14714.92051.69577.93078a.79847.79847,0,0,0,.91822-.89312Z" fill="#46446b"/><path id="Path_88" data-name="Path 88" d="M36.07071,38.65818a4.16562,4.16562,0,0,1,4.19986.33191,2.65428,2.65428,0,0,1-.86575,2.69762,8.06207,8.06207,0,0,1-2.87441-.18477l-.18365-.1791.01483.008A2.54024,2.54024,0,0,1,36.07071,38.65818Zm2.09307,2.15354c.45625-.14714.84407-.40264.83725-.90568a.843.843,0,0,0-.82329-.86213q-.01153-.00025-.02308-.00021a.83391.83391,0,0,0-.884.9125C37.29347,40.43528,37.67331,40.71018,38.16378,40.81172Z" fill="#46446b"/><path id="Path_89" data-name="Path 89" d="M37.411,33.685a2.036,2.036,0,0,0-.17455,1.89574,8.212,8.212,0,0,0-1.963-.11407,4.84769,4.84769,0,0,0-3.65007,1.56609A3.20519,3.20519,0,0,1,34.13276,33.677c.55093-.11407,1.11784-.13687,1.67789-.2019Z" fill="#36355e"/><path id="Path_90" data-name="Path 90" d="M54.03016,33.87771a3.15265,3.15265,0,0,0,.36272,1.92084q-2.1832.54063-4.36639,1.08248c-.27033.06728-.45625.07529-.45625-.2977a2.11134,2.11134,0,0,1,1.85355-2.21741Q52.72758,34.1195,54.03016,33.87771Z" fill="#36355e"/><path id="Path_91" data-name="Path 91" d="M39.406,41.68655a2.65425,2.65425,0,0,0,.86575-2.6976c.87489.5418,1.75316,1.08018,2.62347,1.62884.24981.15741.3559.47223-.01368.47109C41.68038,41.08547,40.615,41.79948,39.406,41.68655Z" fill="#fcf0e8"/><path id="Path_92" data-name="Path 92" d="M52.877,39.01289a2.50943,2.50943,0,0,0,.82582,2.66685c-1.28437.0536-2.425-.6091-3.72878-.74371A18.39469,18.39469,0,0,1,52.877,39.01289Z" fill="#fcf0e8"/><path id="Path_93" data-name="Path 93" d="M56.57835,41.50523A2.58922,2.58922,0,0,0,57.054,38.6251a5.263,5.263,0,0,1,2.54136,1.49767c.211.17565.18592.4072-.089.45624C58.48777,40.76038,57.61176,41.382,56.57835,41.50523Z" fill="#fcf0e8"/><path id="Path_94" data-name="Path 94" d="M36.07412,38.657a2.54021,2.54021,0,0,0,.29087,2.67366,2.15129,2.15129,0,0,1-1.09275-.15285,10.01876,10.01876,0,0,0-1.39044-.53836c-.67412-.15627-.535-.39238-.13917-.70836s.7882-.61024,1.18284-.91249C35.29849,38.87714,35.6293,38.58743,36.07412,38.657Z" fill="#fcf0e8"/><path id="Path_95" data-name="Path 95" d="M36.3479,41.32383l.18366.1791Z" fill="#fcf0e8"/><path id="Path_96" data-name="Path 96" d="M46.52812,63.17289a13.32049,13.32049,0,0,1-3.617-.41746A4.99838,4.99838,0,0,1,39.333,59.44756c-.03763-.11407-.1038-.21672-.1289-.3308-.11407-.487-.722-.96269-.47679-1.36193a2.79573,2.79573,0,0,1,1.73948-.98894,2.1676,2.1676,0,0,1,.88285-.0422,3.966,3.966,0,0,0,3.4299,1.33683,5.78425,5.78425,0,0,1,4.05043,0,3.82,3.82,0,0,0,3.42193-1.34939,5.05716,5.05716,0,0,1,.70949,0c1.28779.17224,1.46119.49391.88857,1.5969a3.818,3.818,0,0,0-.3.64447c-.87944,2.96568-3.11966,3.99226-5.95187,4.17476C47.241,63.15921,46.884,63.16148,46.52812,63.17289Zm.27149-3.25656h-.62052a.96724.96724,0,0,0-1.05629.86911l0,.00006q-.00408.04152-.00449.08326a1.04142,1.04142,0,0,0,.88743,1.15207,3.52285,3.52285,0,0,0,.79847.03536c1.16915,0,1.66307-.31938,1.69273-1.09957C48.52084,60.21177,48.04064,59.91066,46.79961,59.91633Z" fill="#f7b98e"/><path id="Path_97" data-name="Path 97" d="M52.24961,56.718a3.82,3.82,0,0,1-3.42193,1.3494,5.78422,5.78422,0,0,0-4.05042,0,3.966,3.966,0,0,1-3.43106-1.338l.892-.06273a15.15554,15.15554,0,0,0,3.9603-.843,1.492,1.492,0,0,1,1.1144-.0228A15.88292,15.88292,0,0,0,52.24961,56.718Z" fill="#faac6e"/><path id="Path_98" data-name="Path 98" d="M55.82439,39.88205a.79843.79843,0,0,1-.91249.892c-.54865-.01027-.70379-.42774-.69579-.93078a.73576.73576,0,0,1,.8555-.78249.70981.70981,0,0,1,.75278.82127Z" fill="#36355e"/><path id="Path_99" data-name="Path 99" d="M38.1638,40.81168c-.49047-.1015-.87031-.3764-.8931-.85889a.83369.83369,0,0,1,.884-.9125.84292.84292,0,0,1,.84657.83926q.00006.01155-.00021.02308C39.01016,40.409,38.61775,40.66114,38.1638,40.81168Z" fill="#36355e"/><path id="Path_100" data-name="Path 100" d="M46.79963,59.91639c1.241,0,1.72124.29543,1.69273,1.0414-.02966.78019-.52358,1.10188-1.69273,1.09958a3.524,3.524,0,0,1-.79847-.03537,1.04142,1.04142,0,0,1-.88744-1.152.96726.96726,0,0,1,.97749-.95692h0q.04173.00046.08328.00449C46.38556,59.91409,46.592,59.9175,46.79963,59.91639Z" fill="#faac6e"/></g><path d="M80.79075,42.55667a12.40123,12.40123,0,0,1,2.718.60525A11.6699,11.6699,0,0,1,91.379,52.6663a12.69582,12.69582,0,0,1-1.034,6.98205A32.97708,32.97708,0,0,1,86.399,66.53061a57.09732,57.09732,0,0,1-6.1761,7.18931c-.44063.43535-.63612.43662-1.07576-.00118a53.24769,53.24769,0,0,1-8.18909-10.237,22.513,22.513,0,0,1-2.79845-6.55022A11.81481,11.81481,0,0,1,78.43147,42.59487a1.00272,1.00272,0,0,0,.14749-.0382ZM74.303,54.30114a5.35645,5.35645,0,0,0,5.39261,5.42,5.36789,5.36789,0,0,0,.00957-10.73572A5.35063,5.35063,0,0,0,74.303,54.30114Z" fill="#303133"/></svg>