<svg xmlns="http://www.w3.org/2000/svg" xmlns:xlink="http://www.w3.org/1999/xlink" viewBox="0 0 3710 3710"><defs><clipPath id="clip-path"><path d="M2156.4577,3037.2472c-13.7193-6.5555-88.6072-53.8791-92.0485-63.3362-22.9005-62.9358-24.0197-110.8726,1.9813-176.7247,4.4408-11.2464,59.1893-5.0668,69.8275-13.2353,35.8622-4.5328,48.5843-3.881,80.5609-24.9382,94.4038-62.167-6.091-270.0853,189.3727-267.4029,143.1744,1.9649,238.146,82.6887,290.3462-123.4414s332.5904-520.9271,499.2549-310.4713c95.6498,120.782-84.6039,251.4677-63.2612,398.5174,20.2808,139.7352-63.1122,221.9154-214.399,252.1137-151.2867,30.1983-101.308,108.0027-101.6969,234.34-.4675,151.7583-219.3946,106.8035-318.6971,77.4269C2417.7324,2996.4388,2305.0866,2987.4227,2156.4577,3037.2472Z" fill="#bfc6d1"/></clipPath><clipPath id="clip-path-2"><path d="M2435.9814,3071.0265c-49.107,34.8233-112.7499,51.9241-155.3848,23.6455-32.2684-21.4024-50.6689-86.9817-51.5134-124.1389-.0281-1.239-3.373-93.5941,75.4047-163.376,155.8713-135.2508,76.9914-280.7772,59.0758-363.8259-29.9362-117.5414,5.8454-237.2987,120.916-226.4301,127.9028,9.5606,174.2718-198.7701,172.347-393.147-7.5294-95.5238,93.2658-199.2953,184.2159-215.5161,93.0943-18.8186,176.3418,49.9127,183.2659,239.4255,17.81,220.5064-154.1296,333.3232-224.4229,435.1352-69.137,99.931,54.9293,200.6479-62.9568,282.942-99.6522,73.6844-220.2466,121.2525-190.1553,230.9428C2578.1381,2905.31,2561.2798,2975.8424,2435.9814,3071.0265Z" fill="#d8dee8"/></clipPath><linearGradient id="linear-gradient" x1="547.54549" y1="1084.3024" x2="2451.41008" y2="1084.3024" gradientTransform="translate(140.55369 689.53809) rotate(2.29817)" gradientUnits="userSpaceOnUse"><stop offset="0" stop-color="#aa80f9"/><stop offset="0.9964" stop-color="#6165d7"/></linearGradient><linearGradient id="linear-gradient-2" x1="202.27725" y1="-57.75091" x2="905.7718" y2="-1179.99166" gradientTransform="matrix(0.4225, -0.9063, 0.9063, 0.4225, 1226.4425, 3076.1191)" gradientUnits="userSpaceOnUse"><stop offset="0.0036" stop-color="#e38ddd"/><stop offset="1" stop-color="#9571f6"/></linearGradient><linearGradient id="linear-gradient-3" x1="2398.68867" y1="1217.136" x2="3156.74188" y2="1217.136" gradientUnits="userSpaceOnUse"><stop offset="0" stop-color="#311944"/><stop offset="1" stop-color="#893976"/></linearGradient><linearGradient id="linear-gradient-4" x1="3012.38993" y1="827.10098" x2="2263.7462" y2="2154.23978" gradientUnits="userSpaceOnUse"><stop offset="0" stop-color="#ffc444"/><stop offset="0.9964" stop-color="#f36f56"/></linearGradient><linearGradient id="linear-gradient-5" x1="3012.02289" y1="826.89357" x2="2263.37772" y2="2154.03492" xlink:href="#linear-gradient-4"/><linearGradient id="linear-gradient-6" x1="2107.45609" y1="772.58815" x2="2628.42316" y2="772.58815" xlink:href="#linear-gradient-3"/><linearGradient id="linear-gradient-7" x1="2529.21822" y1="504.53915" x2="2014.71771" y2="1416.6066" xlink:href="#linear-gradient-4"/><linearGradient id="linear-gradient-8" x1="2528.96603" y1="504.3965" x2="2014.46443" y2="1416.46591" xlink:href="#linear-gradient-4"/><linearGradient id="linear-gradient-9" x1="1727.75705" y1="638.3872" x2="2085.78855" y2="638.3872" xlink:href="#linear-gradient-3"/><linearGradient id="linear-gradient-10" x1="2017.61049" y1="454.17221" x2="1664.02328" y2="1080.98479" xlink:href="#linear-gradient-4"/><linearGradient id="linear-gradient-11" x1="2017.43723" y1="454.07387" x2="1663.84898" y2="1080.88829" xlink:href="#linear-gradient-4"/><linearGradient id="linear-gradient-12" x1="1438.26238" y1="746.07611" x2="1713.11825" y2="746.07611" xlink:href="#linear-gradient-3"/><linearGradient id="linear-gradient-13" x1="1660.77891" y1="604.6568" x2="1389.3349" y2="1085.85214" xlink:href="#linear-gradient-4"/><linearGradient id="linear-gradient-14" x1="1660.64594" y1="604.58126" x2="1389.20097" y2="1085.7783" xlink:href="#linear-gradient-4"/><linearGradient id="linear-gradient-15" x1="872.28001" y1="3259.32562" x2="989.36385" y2="3259.32562" gradientTransform="matrix(-0.996, 0.0897, 0.0897, 0.996, 2456.5469, -160.4537)" gradientUnits="userSpaceOnUse"><stop offset="0" stop-color="#444b8c"/><stop offset="0.9964" stop-color="#26264f"/></linearGradient><linearGradient id="linear-gradient-16" x1="450.96548" y1="3205.90212" x2="502.33446" y2="3099.58015" gradientTransform="matrix(-0.9976, 0.0694, 0.0694, 0.9976, 2040.621, -60.6691)" xlink:href="#linear-gradient-4"/><linearGradient id="linear-gradient-17" x1="407.15749" y1="3344.84001" x2="531.55065" y2="3344.84001" gradientTransform="matrix(-0.977, 0.2133, 0.2133, 0.977, 1968.0525, -210.6557)" xlink:href="#linear-gradient-15"/><linearGradient id="linear-gradient-18" x1="246.29826" y1="3286.998" x2="298.75443" y2="3178.42577" gradientTransform="matrix(-0.9894, 0.1453, 0.1453, 0.9894, 1974.5804, -128.6684)" xlink:href="#linear-gradient-4"/><linearGradient id="linear-gradient-19" x1="2593.96247" y1="2844.79763" x2="2262.18183" y2="2096.88503" gradientTransform="translate(-237.5799 -19.3005) rotate(3.05525)" gradientUnits="userSpaceOnUse"><stop offset="0.0036" stop-color="#26264f"/><stop offset="1" stop-color="#444b8c"/></linearGradient><linearGradient id="linear-gradient-20" x1="1883.65923" y1="1106.02734" x2="1779.24451" y2="1494.68257" xlink:href="#linear-gradient-4"/><linearGradient id="linear-gradient-21" x1="1731.86126" y1="975.73673" x2="1795.67104" y2="685.69182" gradientTransform="matrix(0.9909, -0.1345, 0.1345, 0.9909, -10.0848, 396.2782)" xlink:href="#linear-gradient-19"/><linearGradient id="linear-gradient-22" x1="1731.67353" y1="1001.11942" x2="2055.82044" y2="901.2991" gradientTransform="matrix(0.9909, -0.1345, 0.1345, 0.9909, -10.0848, 396.2782)" xlink:href="#linear-gradient-4"/><linearGradient id="linear-gradient-23" x1="1759.78391" y1="981.88052" x2="1823.59226" y2="691.84216" gradientTransform="matrix(0.9909, -0.1345, 0.1345, 0.9909, -10.0848, 396.2782)" xlink:href="#linear-gradient-19"/><linearGradient id="linear-gradient-24" x1="1811.27099" y1="949.76155" x2="1706.85255" y2="1338.43061" gradientTransform="matrix(0.9909, -0.1345, 0.1345, 0.9909, -10.0848, 396.2782)" xlink:href="#linear-gradient-4"/><linearGradient id="linear-gradient-25" x1="4613.00175" y1="2202.70373" x2="4284.9887" y2="1201.54928" gradientTransform="matrix(-0.9992, 0.0409, 0.0409, 0.9992, 6336.5529, -39.9982)" xlink:href="#linear-gradient-2"/><linearGradient id="linear-gradient-26" x1="4543.03234" y1="1796.51514" x2="4558.97904" y2="1303.39335" gradientTransform="matrix(-0.9992, 0.0409, 0.0409, 0.9992, 6336.5529, -39.9982)" xlink:href="#linear-gradient-2"/><linearGradient id="linear-gradient-27" x1="4841.96284" y1="2028.30467" x2="4871.33102" y2="1120.1485" gradientTransform="matrix(-0.9992, 0.0409, 0.0409, 0.9992, 6336.5529, -39.9982)" xlink:href="#linear-gradient-2"/><linearGradient id="linear-gradient-28" x1="1706.77236" y1="1522.28813" x2="1726.10857" y2="1714.36002" xlink:href="#linear-gradient-4"/><linearGradient id="linear-gradient-29" x1="2064.51327" y1="1486.27456" x2="2083.84939" y2="1678.34545" xlink:href="#linear-gradient-4"/></defs><g style="isolation:isolate"><g id="Background"><rect width="3710" height="3710" fill="#fff"/></g><g id="Illustration"><g id="Personal_brand" data-name="Personal brand"><path d="M1138.1757,623.292c-92.7363,135.1844,15.9989,354.3505-121.6055,456.0204-133.9477,98.968-298.4981-63.2537-424.735,21.9377C404.5698,1227.6258,438.768,1805.8983,712.56,2165.1904c82.3387,108.0518,151.1377,150.0932,181.6083,272.2942,65.4291,262.3968-164.5224,418.4866-120.7627,548.2639,98.5305,292.2108,1613.8584,537.41,2221.8759-340.78,283.9686-410.1512,326.4566-1002.4124,72.7393-1452.2384C2609.5574,379.9021,1346.2598,319.9631,1138.1757,623.292Z" fill="#f4f7fa"/><g style="mix-blend-mode:soft-light"><path d="M2156.4577,3037.2472c-13.7193-6.5555-88.6072-53.8791-92.0485-63.3362-22.9005-62.9358-24.0197-110.8726,1.9813-176.7247,4.4408-11.2464,59.1893-5.0668,69.8275-13.2353,35.8622-4.5328,48.5843-3.881,80.5609-24.9382,94.4038-62.167-6.091-270.0853,189.3727-267.4029,143.1744,1.9649,238.146,82.6887,290.3462-123.4414s332.5904-520.9271,499.2549-310.4713c95.6498,120.782-84.6039,251.4677-63.2612,398.5174,20.2808,139.7352-63.1122,221.9154-214.399,252.1137-151.2867,30.1983-101.308,108.0027-101.6969,234.34-.4675,151.7583-219.3946,106.8035-318.6971,77.4269C2417.7324,2996.4388,2305.0866,2987.4227,2156.4577,3037.2472Z" fill="#bfc6d1"/><g clip-path="url(#clip-path)"><path d="M2089.9647,2925.2263l-.3695-2.7017c247.9743-33.997,478.8413-143.0391,667.6424-315.3366,179.6439-163.9385,318.6668-381.5345,402.0429-629.2647l2.5862.8709c-83.5246,248.1673-222.8081,466.1575-402.7883,630.4077C2569.8648,2781.8738,2338.4899,2891.1534,2089.9647,2925.2263Z" fill="#fcfdfe"/><path d="M2823.5856,3005.5626c-109.7629-80.7437-315.147-149.3892-457.8414-153.0228l.0726-2.7248c143.1628,3.6451,349.2429,72.5282,459.3852,153.5506Z" fill="#fcfdfe"/><path d="M2186.6018,2910.8585l-1.1018-2.4938c67.8819-30.0765,117.9472-93.3038,148.8037-187.9254,22.6163-69.3514,34.5809-153.6463,35.5607-250.5424l2.7247.0264c-.9797,97.1765-12.9905,181.7468-35.6925,251.3622C2305.7893,2816.6724,2255.2226,2880.4539,2186.6018,2910.8585Z" fill="#fcfdfe"/><path d="M2783.7795,2586.2029l-1.2338-2.4345c69.6962-35.2654,190.6155-66.78,370.9422-16.6257l-.7323,2.6258C2973.2833,2519.8533,2853.0369,2551.152,2783.7795,2586.2029Z" fill="#fcfdfe"/><path d="M2988.7347,2338.0422l-2.5203-1.0358c25.6742-62.5379,58.0384-196.0617-13.6767-387.6817l2.5533-.9566C3047.1326,2140.8605,3014.5606,2275.1349,2988.7347,2338.0422Z" fill="#fcfdfe"/></g></g><g style="mix-blend-mode:soft-light"><path d="M2435.9814,3071.0265c-49.107,34.8233-112.7499,51.9241-155.3848,23.6455-32.2684-21.4024-50.6689-86.9817-51.5134-124.1389-.0281-1.239-3.373-93.5941,75.4047-163.376,155.8713-135.2508,76.9914-280.7772,59.0758-363.8259-29.9362-117.5414,5.8454-237.2987,120.916-226.4301,127.9028,9.5606,174.2718-198.7701,172.347-393.147-7.5294-95.5238,93.2658-199.2953,184.2159-215.5161,93.0943-18.8186,176.3418,49.9127,183.2659,239.4255,17.81,220.5064-154.1296,333.3232-224.4229,435.1352-69.137,99.931,54.9293,200.6479-62.9568,282.942-99.6522,73.6844-220.2466,121.2525-190.1553,230.9428C2578.1381,2905.31,2561.2798,2975.8424,2435.9814,3071.0265Z" fill="#d8dee8"/><g clip-path="url(#clip-path-2)"><path d="M2332.1892,3109.9502l-2.7049-.3464c.1385-1.4333,107.4735-330.8028,254.4036-624.0477,20.9438-47.4394,43.2764-95.1494,64.8701-141.2891,57.8305-123.5501,117.6271-251.3077,153.6528-381.109,40.268-145.0893,46.4103-279.0915,18.7766-409.6613l2.6654-.5641c27.7294,131.0086,21.5739,265.433-18.8161,410.9545-36.0852,130.0222-95.9313,257.8838-153.808,381.5361-21.5904,46.1265-43.9131,93.8217-64.8734,141.2941C2447.1972,2764.4514,2334.2807,3099.7966,2332.1892,3109.9502Z" fill="#fcfdfe"/><path d="M2757.6335,2105.1449l-1.8143-2.0354c85.3587-76.0924,190.3483-186.0285,246.7538-245.0912,45.3018-47.4345,45.6152-47.4031,47.1689-46.9825l-.7125,2.6324.3562-1.3162.4157,1.27c-2.1508,1.1463-21.1715,21.0642-45.2557,46.2799C2948.1137,1918.9926,2843.0747,2028.9798,2757.6335,2105.1449Z" fill="#fcfdfe"/><path d="M2794.1244,1991.8342c-5.0471-98.5818-38.0809-166.6814-64.9064-206.4512-29.6592-43.9741-59.0544-64.8602-62.208-65.5827l.221-.9599-.8247-1.5817c.7356-.3844,1.5372-.1815,3.3285.8428,24.612,14.0873,118.3198,101.8079,127.1143,273.5941Z" fill="#fcfdfe"/><path d="M2497.9222,2677.0507l-2.8831-.6696c20.6601-88.8801,10.3614-188.0738-30.6092-294.8249-21.3694-55.6782-50.3391-111.1089-86.1042-164.7549-2.5928-3.8926-3.5066-5.2698-3.7771-5.8867l2.705-1.1941c.2012.442,1.6725,2.6472,3.533,5.4396,35.8872,53.8275,64.9591,109.4545,86.4044,165.3355C2508.3793,2487.8092,2518.7176,2587.5851,2497.9222,2677.0507Z" fill="#beb8f2"/><path d="M2539.0115,2585.5663l-2.1442-1.6824c96.3337-123.0652,269.7627-113.1656,271.1613-112.618l.8709,1.3805-1.0721,1.2288-.2903-1.3145-.2639,1.3112C2805.6436,2473.6196,2634.2434,2463.9113,2539.0115,2585.5663Zm268.2287-114.3532.2936,1.3278Z" fill="#fcfdfe"/><path d="M2358.1109,3033.4388l-2.9227-.4322c5.7662-39.0441-.8775-107.4191-65.2693-211.4389-3.5164-5.6771-3.5164-5.6771-3.3086-6.4771l2.8633.7389-1.4317-.3694,1.4053-.4124c.1749.4223,1.4779,2.5269,2.9854,4.963C2357.2961,2924.7908,2363.9497,2993.9081,2358.1109,3033.4388Z" fill="#beb8f2"/><path d="M2383.5773,2961.4961l-2.7314-1.1314c11.9415-28.8889,52.4305-83.6054,189.4115-125.4766,1.8935-.5773,3.1074-.9467,3.5461-1.115l1.0557,2.7644c-.4619.1748-1.7418.569-3.7342,1.1793C2435.3018,2879.2317,2395.3209,2933.0872,2383.5773,2961.4961Z" fill="#beb8f2"/></g></g><path d="M2119.5816,3094.5804c74.8721-22.6054,200.9179-60.6622,292.6567-176.465,166.7825-210.5352,111.902-541.376-4.0377-752.0274-99.5854-180.9405-284.3358-298.7596-653.8357-534.4036-347.9949-221.931-466.9197-247.6407-496.3505-382.7376-41.9576-192.5954,157.2932-335.2085,74.6576-552.5492-9.9169-26.0803-43.9749-115.6566-125.661-149.5389-139.8321-58.0021-321.0914,87.9052-406.0244,195.6554-81.9242,103.9342-170.3473,294.3126-104.6847,448.5721,47.5734,111.7646,135.6164,109.6223,153.9944,212.3559,18.4908,103.3636-65.0583,136.7089-104.1581,306.6322-15.6209,67.8846-46.9749,204.1482,12.7942,321.6279,77.2823,151.9031,236.9526,134.8935,265.6883,261.12,20.7628,91.2017-55.8091,129.9016-54.3958,235.441,1.8599,138.9406,136.8345,241.1612,250.2928,324.7244C1354.1191,2951.39,1714.5618,3216.8642,2119.5816,3094.5804Z" fill="url(#linear-gradient)"/><path d="M1153.2732,605.712c74.3087,55.3281-153.006,283.7001-100.9798,596.4346,55.978,336.487,401.1936,565.3616,560.7285,671.131,272.1915,180.4615,391.5807,147.9141,564.0932,346.939,68.2781,78.7696,210.522,242.8731,186.9299,463.4762-2.1916,20.496-30.0369,248.6332-209.9606,351.2253-204.0816,116.3693-448.6552-17.2639-659.3951-132.4043-127.3391-69.5763-381.7175-208.5602-358.3966-351.5381,14.2559-87.4036,129.0045-156.1732,222.1272-174.1285,132.9128-25.6314,239.9766,48.7381,252.6293,26.1877,11.3968-20.3105-64.5016-100.1857-170.1588-160.9566-211.3351-121.5528-325.6645-42.3944-481.9096-154.1887-18.939-13.5495-167.4392-123.0948-165.2736-282.7867,1.2478-92.1019,52.6484-203.2807,127.6178-219.6596,84.7904-18.5249,163.1347,92.2063,183.2469,74.7812,19.2319-16.6609-40.7131-128.0235-116.0349-229.433-110.6724-149.0038-162.3217-152.3591-202.0829-245.7241-60.6626-142.4459-5.5057-287.4303,2.7216-308.1593C866.2742,682.6748,1089.7418,558.4082,1153.2732,605.712Z" fill="#fff" opacity="0.16" style="mix-blend-mode:screen"/><path d="M1591.3369,3130.3295c30.6-22.5402,82.1141-60.4866,105.2627-128.4434,42.0836-123.5484-36.9089-266.0893-124.2889-343.6597-75.0552-66.6303-178.8258-90.4941-386.3682-138.2245-195.4635-44.9532-254.0996-37.362-289.5703-94.4243-50.5672-81.349,17.4406-179.0857-55.78-265.1415-8.7867-10.3259-38.9645-45.7935-81.8814-48.0071-73.4656-3.79-132.7003,92.5256-154.0434,155.6878-20.5874,60.9243-30.076,162.4861,25.1031,222.4234,39.9785,43.426,79.9407,28.1101,105.0813,72.1553,25.2953,44.3147-7.529,73.1849,2.2352,157.3504,3.9005,33.6246,11.7305,101.1179,58.223,145.1749,60.116,56.9664,130.4519,23.1821,164.1599,76.2966,24.3552,38.3764-4.4028,68.5622,13.4276,116.6534,23.4733,63.3116,101.9145,88.1377,167.4666,107.9249C1217.5552,3189.397,1425.8076,3252.2599,1591.3369,3130.3295Z" fill="url(#linear-gradient-2)"/><path d="M743.6892,2148.1246c43.0304,13.2334-23.8641,154.8041,50.8739,289.5193,80.4143,144.9473,275.7357,193.5324,366,215.9844,154.0049,38.3085,203.3679,3.9681,314.7575,67.0047,44.0857,24.948,135.9306,76.9242,161.0465,181.769,2.3335,9.7406,26.7285,118.7275-38.9465,194.9934-74.4928,86.5074-208.2287,65.143-323.4628,46.7367-69.6306-11.1229-208.7266-33.3409-221.328-102.6006-7.7033-42.3386,33.6381-92.5076,73.3511-115.8903,56.6813-33.3753,117.809-16.7562,119.9307-29.1414,1.9109-11.1546-45.8439-35.3683-104.1135-45.9902-116.5508-21.2448-156.0087,33.6124-245.7474,7.8662-10.8773-3.1202-96.7041-29.0978-121.7126-102.5658-14.4241-42.372-8.9913-101.6442,22.6666-121.3494,35.8054-22.2865,89.704,15.6561,96.0754,4.4035,6.0928-10.7597-39.4846-51.987-90.4815-86.1541-74.9316-50.2028-99.1254-43.3297-132.5314-79.6036-50.9665-55.3423-49.3185-130.7039-48.9263-141.5342C624.8168,2230.0891,706.8998,2136.8099,743.6892,2148.1246Z" fill="#fff" opacity="0.16" style="mix-blend-mode:screen"/><path d="M2800.0326,869.3137l97.8457,198.2566a24.88683,24.88683,0,0,0,18.7386,13.6144l218.7894,31.7919c20.4128,2.9661,28.5638,28.0521,13.7927,42.4502l-158.3177,154.3214a24.88787,24.88787,0,0,0-7.1571,22.0285l37.3737,217.9052c3.4867,20.3307-17.8523,35.8346-36.1103,26.2355l-195.6909-102.8808a24.88772,24.88772,0,0,0-23.1624,0l-195.6914,102.8808c-18.2579,9.5991-39.597-5.9048-36.1098-26.2355l37.3733-217.9052a24.886,24.886,0,0,0-7.1571-22.0285l-158.3177-154.3214c-14.7712-14.3981-6.6201-39.4841,13.7927-42.4502l218.7897-31.7919a24.88717,24.88717,0,0,0,18.7386-13.6144l97.8453-198.2566C2764.5271,850.816,2790.9035,850.816,2800.0326,869.3137Z" fill="url(#linear-gradient-3)"/><path d="M2809.7495,869.3137l97.8452,198.2566a24.88748,24.88748,0,0,0,18.7391,13.6144l218.7889,31.7919c20.4128,2.9661,28.5643,28.0521,13.7931,42.4502l-158.3177,154.3214a24.887,24.887,0,0,0-7.1574,22.0285l37.3736,217.9052c3.4868,20.3307-17.8523,35.8346-36.1099,26.2355l-195.6913-102.8808a24.88772,24.88772,0,0,0-23.1624,0l-195.6913,102.8808c-18.2576,9.5991-39.5966-5.9048-36.1099-26.2355l37.3737-217.9052a24.887,24.887,0,0,0-7.1575-22.0285L2415.948,1155.4268c-14.7708-14.3981-6.6197-39.4841,13.7931-42.4502l218.7894-31.7919a24.88683,24.88683,0,0,0,18.7386-13.6144l97.8453-198.2566C2774.2435,850.816,2800.6203,850.816,2809.7495,869.3137Z" fill="url(#linear-gradient-4)"/><g opacity="0.3" style="mix-blend-mode:multiply"><path d="M2941.5656,1425.0539c-75.0936-71.4056-159.6821-67.4267-193.8332-149.9461-38.2662-92.4641,43.2162-157.1915,29.2577-270.6351-3.3809-27.4785-12.4911-58.8559-32.6975-92.9686l-77.0235,156.0662a24.88974,24.88974,0,0,1-18.739,13.6147l-218.789,31.792c-20.4132,2.9664-28.5639,28.0517-13.7931,42.4491l158.3177,154.3217a24.88815,24.88815,0,0,1,7.1575,22.0289l-37.3737,217.9052c-3.4867,20.3307,17.852,35.8338,36.1099,26.2355l195.6913-102.8808a24.88772,24.88772,0,0,1,23.1624,0l195.6913,102.8808a24.72253,24.72253,0,0,0,29.4894-4.7517C3004.771,1500.0502,2973.0926,1455.0333,2941.5656,1425.0539Z" fill="url(#linear-gradient-5)"/></g><path d="M2383.2772,533.5493,2450.521,669.8a17.10282,17.10282,0,0,0,12.8779,9.3563l150.3613,21.8491a17.10344,17.10344,0,0,1,9.4792,29.1733L2514.4365,836.235a17.1044,17.1044,0,0,0-4.9185,15.139l25.6847,149.754a17.10373,17.10373,0,0,1-24.8166,18.0304L2375.8988,948.454a17.10565,17.10565,0,0,0-15.9183,0l-134.4874,70.7044a17.10348,17.10348,0,0,1-24.8162-18.0304l25.6844-149.754a17.1044,17.1044,0,0,0-4.9185-15.139l-108.803-106.0563a17.10346,17.10346,0,0,1,9.4793-29.1733l150.3616-21.8491a17.10333,17.10333,0,0,0,12.8779-9.3563l67.2435-136.2507A17.10386,17.10386,0,0,1,2383.2772,533.5493Z" fill="url(#linear-gradient-6)"/><path d="M2389.9546,533.5493,2457.1985,669.8a17.10313,17.10313,0,0,0,12.8783,9.3563l150.3612,21.8491a17.10346,17.10346,0,0,1,9.4793,29.1733L2521.1143,836.235a17.10465,17.10465,0,0,0-4.9189,15.139l25.6848,149.754a17.10348,17.10348,0,0,1-24.8162,18.0304L2382.5763,948.454a17.105,17.105,0,0,0-15.918,0l-134.4877,70.7044a17.10347,17.10347,0,0,1-24.8162-18.0304l25.6847-149.754a17.10355,17.10355,0,0,0-4.9189-15.139L2119.3177,730.1787a17.10345,17.10345,0,0,1,9.4788-29.1733l150.3617-21.8491a17.10282,17.10282,0,0,0,12.8779-9.3563l67.2438-136.2507A17.10354,17.10354,0,0,1,2389.9546,533.5493Z" fill="url(#linear-gradient-7)"/><g opacity="0.3" style="mix-blend-mode:multiply"><path d="M2480.5448,915.4783c-51.6078-49.0733-109.7407-46.3385-133.2106-103.0496-26.2983-63.545,29.7-108.0287,20.1071-185.9923-2.3236-18.884-8.5847-40.4481-22.4711-63.8918L2292.0361,669.8a17.10586,17.10586,0,0,1-12.8779,9.3567l-150.3617,21.8487a17.10317,17.10317,0,0,0-9.4788,29.173l108.8025,106.0563a17.10481,17.10481,0,0,1,4.9189,15.1397l-25.6847,149.7536a17.10356,17.10356,0,0,0,24.8162,18.0304l134.4877-70.7044a17.10565,17.10565,0,0,1,15.9183,0l134.4874,70.7044a16.9909,16.9909,0,0,0,20.2666-3.2659C2523.982,967.0191,2502.2114,936.0817,2480.5448,915.4783Z" fill="url(#linear-gradient-8)"/></g><path d="M1917.3134,474.1094l46.213,93.6373a11.75385,11.75385,0,0,0,8.8501,6.4302l103.3349,15.0154a11.75441,11.75441,0,0,1,6.5146,20.0494l-74.7739,72.8866a11.75441,11.75441,0,0,0-3.3806,10.404l17.6518,102.9175a11.75426,11.75426,0,0,1-17.0549,12.3912l-92.4257-48.591a11.7541,11.7541,0,0,0-10.9398,0l-92.4257,48.591a11.75435,11.75435,0,0,1-17.0549-12.3912l17.6518-102.9175a11.75413,11.75413,0,0,0-3.3806-10.404l-74.7739-72.8866a11.75441,11.75441,0,0,1,6.5146-20.0494l103.3349-15.0154a11.75518,11.75518,0,0,0,8.8505-6.4302l46.2126-93.6373A11.75435,11.75435,0,0,1,1917.3134,474.1094Z" fill="url(#linear-gradient-9)"/><path d="M1921.9026,474.1094l46.2126,93.6373a11.75518,11.75518,0,0,0,8.8505,6.4302l103.3349,15.0154a11.75441,11.75441,0,0,1,6.5146,20.0494l-74.774,72.8866a11.75434,11.75434,0,0,0-3.3805,10.404l17.6517,102.9175a11.7542,11.7542,0,0,1-17.0548,12.3912l-92.4257-48.591a11.7541,11.7541,0,0,0-10.9398,0l-92.4257,48.591a11.75433,11.75433,0,0,1-17.0549-12.3912l17.6518-102.9175a11.75441,11.75441,0,0,0-3.3806-10.404l-74.7739-72.8866a11.75441,11.75441,0,0,1,6.5146-20.0494l103.3349-15.0154a11.75518,11.75518,0,0,0,8.8505-6.4302l46.2126-93.6373A11.75435,11.75435,0,0,1,1921.9026,474.1094Z" fill="url(#linear-gradient-10)"/><g opacity="0.3" style="mix-blend-mode:multiply"><path d="M1984.1598,736.5875c-35.4671-33.7251-75.4182-31.8456-91.5479-70.8201-18.0736-43.6711,20.4109-74.2422,13.8186-127.8221-1.5968-12.9778-5.9-27.7978-15.4432-43.9094l-36.3785,73.7108a11.75588,11.75588,0,0,1-8.8505,6.4302l-103.3349,15.0154a11.75421,11.75421,0,0,0-6.5146,20.0491l74.7739,72.8866a11.75525,11.75525,0,0,1,3.3806,10.4043l-17.6518,102.9175a11.75436,11.75436,0,0,0,17.0549,12.3912l92.4257-48.591a11.7541,11.7541,0,0,1,10.9398,0l92.4257,48.591a11.67631,11.67631,0,0,0,13.9278-2.2444C2014.0118,772.0087,1999.0501,750.747,1984.1598,736.5875Z" fill="url(#linear-gradient-11)"/></g><path d="M1583.7823,619.9621l35.4767,71.8841a9.02357,9.02357,0,0,0,6.7944,4.9363l79.3287,11.5272a9.02372,9.02372,0,0,1,5.0011,15.3918l-57.4027,55.9539a9.02321,9.02321,0,0,0-2.5953,7.9871l13.551,79.0086a9.02377,9.02377,0,0,1-13.0929,9.5125l-70.9537-37.3026a9.02306,9.02306,0,0,0-8.3983,0l-70.9541,37.3026a9.02384,9.02384,0,0,1-13.0929-9.5125l13.551-79.0086a9.02406,9.02406,0,0,0-2.5949-7.9871l-57.403-55.9539a9.02378,9.02378,0,0,1,5.001-15.3918l79.3287-11.5272a9.0234,9.0234,0,0,0,6.7944-4.9363l35.4771-71.8841A9.02379,9.02379,0,0,1,1583.7823,619.9621Z" fill="url(#linear-gradient-12)"/><path d="M1587.3053,619.9621l35.4767,71.8841a9.02374,9.02374,0,0,0,6.7944,4.9363l79.3291,11.5272a9.02394,9.02394,0,0,1,5.0011,15.3918l-57.4031,55.9539a9.02321,9.02321,0,0,0-2.5953,7.9871l13.5511,79.0086a9.02378,9.02378,0,0,1-13.0929,9.5125l-70.9542-37.3026a9.02225,9.02225,0,0,0-8.3979,0l-70.9541,37.3026a9.02385,9.02385,0,0,1-13.0929-9.5125l13.5511-79.0086a9.02434,9.02434,0,0,0-2.5949-7.9871l-57.4031-55.9539a9.02389,9.02389,0,0,1,5.0011-15.3918l79.3287-11.5272a9.02374,9.02374,0,0,0,6.7944-4.9363l35.477-71.8841A9.02379,9.02379,0,0,1,1587.3053,619.9621Z" fill="url(#linear-gradient-13)"/><g opacity="0.3" style="mix-blend-mode:multiply"><path d="M1635.0993,821.4631c-27.2276-25.8905-57.8975-24.4476-70.2803-54.3674-13.8748-33.5257,15.6693-56.9949,10.6083-98.1273a86.10917,86.10917,0,0,0-11.8554-33.7089l-27.9273,56.5867a9.02515,9.02515,0,0,1-6.7944,4.9367l-79.3287,11.5272a9.02319,9.02319,0,0,0-5.0011,15.391l57.4031,55.9543a9.02475,9.02475,0,0,1,2.5949,7.9875l-13.5511,79.0082a9.02378,9.02378,0,0,0,13.0929,9.5125l70.9541-37.3029a9.02479,9.02479,0,0,1,8.3983,0l70.9538,37.3029a8.96435,8.96435,0,0,0,10.6923-1.723C1658.0163,848.6555,1646.5302,832.3331,1635.0993,821.4631Z" fill="url(#linear-gradient-14)"/></g><path d="M604.6252,2076.1362c50.8158-280.3168,159.8541-401.2353,254.957-458.9223,155.1995-94.1403,262.9724-13.6274,470.2536-135.9769,145.6981-85.9994,163.2681-167.5784,304.6439-214.81,118.0915-39.4525,231.0116-24.3532,310.1822-4.2494,131.6294,371.3646,32.1074,746.69-210.673,908.3868-120.0863,79.9804-338.0874,149.5645-523.1329,77.4319-148.4483-57.8662-202.3777-178.359-375.8251-202.0774C739.1496,2032.8071,656.726,2056.1037,604.6252,2076.1362Z" fill="#fc4903"/><g opacity="0.3" style="mix-blend-mode:multiply"><path d="M1564.4636,1714.4916c-114.292,126.4829-179.9319,281.8694-325.7783,294.6167-164.8795,14.4104-243.2934-169.9947-388.1007-152.9742-60.7902,7.1451-140.4409,50.651-224.2176,212.1417,51.9445-17.5948,125.2006-33.77,208.6646-22.3572,173.447,23.7184,227.3764,144.2115,375.8247,202.0774,185.0455,72.1326,403.0466,2.5488,523.1333-77.4316,200.5627-133.5785,303.3393-412.9516,258.8158-715.4408C1778.5101,1521.9971,1648.1644,1621.8626,1564.4636,1714.4916Z" fill="#fc4903"/></g><path d="M1770.6451,3146.7559c-6.0748,5.5846-6.4588,18.6293-6.709,27.1555-.1143,3.8093-.1693,5.7142.3355,7.0272,3.683,9.5711,22.6725,9.4424,52.5383,10.6662,47.197,1.9332,61.3785,4.7742,64.6253-2.4293,3.041-6.7513-5.9373-16.9543-6.9454-18.0784-5.4273-6.0403-11.7545-7.9728-23.9542-11.1799-22.5728-5.9344-37.7679-9.0112-42.3678-9.9434C1779.4387,3144.1508,1774.634,3143.0902,1770.6451,3146.7559Z" fill="url(#linear-gradient-15)"/><path d="M1803.747,3099.6928l1.84,53.7226c-1.4706,2.5117-17.7784,9.4079-30.0478,2.0915l-9.2591-53.206Z" fill="url(#linear-gradient-16)"/><path d="M2168.2055,3139.3287c-8.1144,8.0542-10.6935,23.5432-4.4393,31.5762,6.1462,7.8976,16.298,2.7628,44.1857,5.0872,29.8714,2.4928,37.307,9.9757,57.9395,5.4523,8.3356-1.8315,23.1373-6.5647,23.1757-12.445.0267-4.1354-7.2451-6.6598-31.4729-16.2416-34.3898-13.6001-34.2016-14.2333-41.5714-15.8616C2197.5108,3132.8057,2178.9236,3128.697,2168.2055,3139.3287Z" fill="url(#linear-gradient-17)"/><path d="M2189.9819,3091.5532l12.3415,50.7207c-1.2772,2.6169-17.0098,10.7347-29.8013,4.3768l-19.6996-49.6422Z" fill="url(#linear-gradient-18)"/><path d="M2115.0256,1991.1321a4683.31592,4683.31592,0,0,0,88.6046,1115.7227q-29.13405,6.19485-58.2655,12.3871c-46.1573-47.8886-103.6287-122.4622-127.8165-224.8013-15.0117-63.5179-7.1793-95.3279-14.712-172.8696-11.9942-123.4657-46.1114-189.6363-79.6403-290.4712-30.13-90.6107-64.3921-223.0597-77.1938-398.3399Q1980.5155,2011.9465,2115.0256,1991.1321Z" fill="#353535"/><path d="M2088.2014,2775.7112c-21.3858-84.6936-62.5856-107.0882-64.0533-187.0321-1.0378-56.547,19.2836-61.1706,17.9351-115.2962-2.0452-82.0979-50.1393-125.1448-74.3016-176.786-25.5181-54.5402-35.2954-142.1445,33.4771-287.8616q-77.62755,12.0135-155.2566,24.0246c12.8017,175.2796,47.0638,307.7298,77.1938,398.3389,33.5295,100.8366,67.6461,167.0071,79.6403,290.4712,7.5327,77.542-.2997,109.3527,14.712,172.8689,24.1878,102.3402,81.6592,176.9138,127.8165,224.803q7.4109-1.5768,14.8195-3.1508c-49.8969-59.558-67.504-112.7483-71.9828-155.9073C2080.9149,2889.9674,2109.7622,2861.1058,2088.2014,2775.7112Z" opacity="0.3" fill="url(#linear-gradient-19)" style="mix-blend-mode:multiply"/><path d="M1920.9034,1980.6376q-34.67025,319.11435-63.4732,650.3689-21.51885,248.5329-38.4324,490.9259-29.5293,2.0544-59.0619,4.1103a684.2522,684.2522,0,0,1-52.7614-161.1959c-16.4133-84.8561-8.9223-134.3264-13.4456-221.6056-5.0781-97.8904-18.8732-119.8938-38.7578-244.1002-40.3594-252.075-60.5404-378.1133,3.4657-452.426C1679.2136,2022.5891,1743.5083,1962.7207,1920.9034,1980.6376Z" fill="#353535"/><path d="M1985.4453,1259.8966c52.1025,15.7491,118.7584,77.0569,153.6176,110.6689,80.3972,77.5195,231.3308,339.0698,143.3923,432.4724-59.8277,63.5452-164.9714,36.8431-211.3267-27.2265-34.0953-47.124-13.4463-90.0124-6.2709-174.8509C2072.5783,1509.6703,2039.8621,1350.0952,1985.4453,1259.8966Z" fill="#fff"/><path d="M2029.3447,1285.0413c35.9178,42.658,48.5231,39.0962,76.5153,97.8239,42.173,88.4769,11.1128,189.6086,6.6849,298.5838-4.8573,119.542-.0798,342.0466,60.0032,457.0285,1.0472,2.0022,1.5603,2.4214,1.515,5.4188-1.8414,121.91-577.8412,36.506-576.9279-8.0162,4.5335-221.0912,148.5414-705.27,112.8705-865.4102,16.1928-.2921,48.2293-17.2015,61.2664-20.848,55.9389-15.6469,106.4495-18.285,159.3454-11.0848,19.3501,2.6338,29.0887,7.0855,43.2108,12.5124C1996.7695,1259.8659,2011.5656,1272.9575,2029.3447,1285.0413Z" fill="#fff"/><path d="M1824.3482,1116.5534c.7573,37.1122-11.4206,90.5954-16.2212,123.8771-4.8008,33.282,63.2254,34.6853,85.4588,19.2514,20.4168-14.173,5.0471-52.6037-14.6505-72.7743C1859.2364,1166.7377,1844.4631,1137.1999,1824.3482,1116.5534Z" fill="url(#linear-gradient-20)"/><path d="M1915.9113,1081.917c27.3467-31.6446,19.8368-129.7164-14.2364-144.4916-16.5231-7.1653-36.6348,44.4339-52.7009,56.044-21.5741,15.5922-82.8298,37.993-91.9546,64.6253-6.882,20.084,17.3605,56.4884,26.8622,69.3923,10.7496,14.5988,11.034,9.0702,22.8888,18.857,16.4397,13.5704,38.0008,29.1417,54.9213,44.5687,1.3557-13.657.5244-13.5368,3.765-31.384,1.2456-6.864,14.6284-36.9725,21.5116-48.8227C1891.3415,1103.1752,1912.5613,1085.7922,1915.9113,1081.917Z" fill="url(#linear-gradient-21)"/><path d="M1826.5569,1171.1056c26.9011,18.8612,42.2317,44.1675,84.4842,30.2241,37.8291-12.484,31.1808-110.265-7.9953-134.0593-13.0684-7.9376-30.2498-5.4982-44.2876.8401-8.2907,3.7439-16.5348,10.7248-24.7213,15.2039-7.5503,4.1308-14.7779,1.3377-20.9924,10.4069-7.7754,11.347,1.9322,36.28,8.8656,48.0267-4.4849-2.9719-9.674-7.3129-15.1482-8.2334-3.8598-.6492-11.129-5.923-13.8993-.1234-4.5227,9.4695,10.0968,24.3669,18.2826,30.2016C1814.892,1166.2634,1822.158,1169.1787,1826.5569,1171.1056Z" fill="url(#linear-gradient-22)"/><path d="M1809.4055,1087.9035c5.7334,2.3485-2.3944,13.4447.3433,22.9627,5.3139,18.4794,15.9544,51.6999,43.918,51.2608,16.5319-.2593,31.6048-17.097,48.4227-21.1542a93.42008,93.42008,0,0,1,33.0276-2.1189c9.5497,19.3784,14.1658,51.2881-1.7309,66.2546-17.1211,16.1185-30.5049,10.7616-51.4275,7.6887-13.9994-2.0559-30.4463-11.6691-40.7112-23.7333-10.6952-12.5707-19.1357-26.1525-29.858-39.4522-5.9204-7.3439-13.1339-16.5668-19.967-24.1868a48.18591,48.18591,0,0,1-6.2393-8.2679C1789.1558,1112.1428,1801.1083,1084.503,1809.4055,1087.9035Z" fill="url(#linear-gradient-23)"/><path d="M1915.5794,1155.6542c-7.4005,5.5572-16.796,6.7972-25.4903,8.1027-.4228.0636-2.4029-.4227-1.4651,1.0635,3.527,5.5885,15.5931,6.0423,21.3429,3.5052,4.0829-1.801,10.5629-7.9591,9.1636-12.5024C1918.5396,1153.9057,1916.4358,1155.9581,1915.5794,1155.6542Z" fill="url(#linear-gradient-24)"/><path d="M1978.7859,1989.9638c15.4638-17.4609,40.0499-45.2232,41.5082-83.9858,3.7507-99.6598-150.4042-138.4674-144.3373-219.5659,4.7156-63.0394,99.0823-55.9356,152.7811-167.8277,9.2197-19.211,42.9518-92.2263,18.4879-174.9138a219.601,219.601,0,0,0-37.8162-72.7938c6.6269,4.6693,13.0587,9.4913,19.9358,14.1645,35.9165,42.6583,48.522,39.0962,76.5149,97.8239,42.1724,88.4769,11.1122,189.6086,6.6849,298.5838-4.8572,119.542-.0801,342.0466,60.0026,457.0285,1.0475,2.0022,1.7498,3.3012,1.5149,5.4188-13.4368,121.1814-577.8405,36.506-576.9272-8.0162.5469-26.6561,3.1355-57.1648,7.1781-90.4403C1624.3219,2050.9543,1868.0863,2114.9637,1978.7859,1989.9638Z" opacity="0.3" fill="url(#linear-gradient-25)" style="mix-blend-mode:multiply"/><path d="M2140.5921,1607.1571c31.5121-1.5781,9.7464-20.6321,19.2882-17.8602,5.9761,1.7361,152.1804,145.4802,106.1075,221.317-43.9398,72.3255-226.472,23.2796-290.7882.3463-35.7464-12.7463-141.9031-52.2253-206.3798-154.9084-5.7944-9.2278-10.134-17.1853-13.0128-22.7256,140.9057-18.4833,208.3877-22.9141,243.7332-23.1092C2022.2146,1610.0919,2045.0874,1611.9397,2140.5921,1607.1571Z" fill="#fff"/><path d="M2087.3376,1592.5603c-3.9745,31.7433-20.3702,129.7301-103.1189,210.0255-16.4528,15.9648-128.0562,120.6221-284.5264,94.2471-122.2694-20.61-231.153-114.2708-256.3218-231.2549-49.1345-228.3768,242.6765-429.8536,309.6903-395.3028,44.9857,23.1933,57.8248,188.4017-9.504,271.8905-14.6332,18.1449-41.8398,43.3267-37.624,74.9446,4.0475,30.3589,34.783,49.5247,52.1917,60.0573,82.1165,49.6843,262.0142-78.5501,309.6064-89.0743C2071.163,1587.9865,2073.748,1584.7335,2087.3376,1592.5603Z" fill="#fff"/><path d="M1650.779,1541.0931c28.3548-28.7222,61.2036-43.8476,98.1441-55.2031,9.2223-2.4963,18.4498-4.8113,27.5786-7.1943-7.5494,23.4734-18.3635,45.3896-32.9443,63.47-14.6342,18.1445-41.8408,43.3267-37.6246,74.9443,4.0475,30.3592,34.7827,49.525,52.1917,60.0576,82.1165,49.6843,262.0139-78.5501,309.6067-89.0743,3.4322-.1068,6.0174-3.3598,19.6064,4.467-.9961,7.9588-2.7752,20.0843-6.1836,35.0485-67.5236-21.6217-140.7718,46.1198-199.1598,79.2347-75.0417,42.4454-168.4159,69.8913-241.5837,13.8251C1585.5749,1679.6018,1605.4595,1588.2279,1650.779,1541.0931Z" opacity="0.3" fill="url(#linear-gradient-26)" style="mix-blend-mode:multiply"/><path d="M1614.9062,1318.3464c12.8016,43.0408,14.3466,86.6336-11.3076,128.2116-36.9754,58.6055-78.2837,107.5452-93.3175,173.1275-13.4711,55.6747-5.3224,110.4647,10.6877,164.9329a122.50209,122.50209,0,0,0,20.6627,38.3542c-48.9647-41.3222-85.0867-96.1588-98.261-157.3949C1412.4259,1521.7498,1516.7099,1388.598,1614.9062,1318.3464Z" opacity="0.3" fill="url(#linear-gradient-27)" style="mix-blend-mode:multiply"/><path d="M1768.8204,1656.0518c-3.9045,9.3324-23.1923,18.9071-32.5534,17.8227-15.6951-1.8188-26.7736-12.5114-36.6148-17.1722-8.7904-4.1631-28.4166-9.8132-29.5938-16.7945-2.229-13.2205,19.2129-16.9452,31.7908-18.2201,17.6338-1.7876,36.4432,3.3563,53.9581,11.6385C1760.161,1640.974,1765.0465,1648.4751,1768.8204,1656.0518Z" fill="url(#linear-gradient-28)"/><path d="M2115.5552,1608.3359c-61.581,8.6493-75.8169,4.4009-77.5253-1.027-2.1798-6.9269,14.4163-20.939,32.1397-23.3487C2088.1516,1581.515,2106.3955,1591.1356,2115.5552,1608.3359Z" fill="url(#linear-gradient-29)"/><path d="M1781.1768,1241.7878l-89.2349,18.1088,116.1353,51.3988c13.7271,6.0755,26.0131-10.8981,15.9537-22.0402Z" fill="#c92f00"/><path d="M1939.2291,1240.8038a177.55265,177.55265,0,0,1,63.8468,25.592l-50.0738,41.2261a12.6682,12.6682,0,0,1-20.6247-11.3327Z" fill="#c92f00"/></g></g></g></svg>