<svg id="Layer_1" data-name="Layer 1" xmlns="http://www.w3.org/2000/svg" viewBox="0 0 50 50"><path d="M3.50088,28.7793c.19712-.29911.25626-.66392.48689-.95252a2.49379,2.49379,0,0,1,2.04748-.96133q2.53988-.00873,5.0798.001a2.41943,2.41943,0,0,1,1.82208.70636c.08812.09168.17153.18516.32012.09917a13.02247,13.02247,0,0,0,3.18221-2.06872,6.9906,6.9906,0,0,0,1.49744-2.495q.84685-2.363,1.70158-4.72307c.29906-.8284.61947-.98549,1.46934-.727a8.70821,8.70821,0,0,1,1.87861.69545,4.63033,4.63033,0,0,1,1.97283,2.16082.42607.42607,0,0,0,.46743.2914c1.98711-.00947,3.97432.00158,5.96139-.01091a1.35367,1.35367,0,0,1,1.04207.43593c.74348.76041,1.51226,1.49626,2.24878,2.26319.23986.24976.37194.30318.64131.01632.73727-.78512,1.52054-1.52684,2.27473-2.29639a1.31027,1.31027,0,0,1,1.00693-.41854c1.70718.012,3.4145.00609,5.12176.00457.80113-.00071,1.09487-.29088,1.09507-1.08566q.00169-6.71739.00011-13.43478c-.00015-.80216-.29128-1.0991-1.08159-1.09916q-16.47794-.00125-32.95587.00014c-.763.00007-1.0648.30495-1.065,1.07337q-.002,6.73838,0,13.47677c.00024.76412.305,1.06551,1.06927,1.06945.40581.00209.812-.01,1.21738.00352a.83845.83845,0,1,1,.00695,1.673c-.48934.01454-.97994.01637-1.46916-.00038A2.51242,2.51242,0,0,1,8.03956,19.91c-.01737-1.37125-.00392-2.74289-.00393-4.11436q-.00006-4.68118,0-9.36237A2.56226,2.56226,0,0,1,10.013,3.56621c.01848-.00695.02584-.04349.03839-.06621H44.3996a5.51537,5.51537,0,0,1,1.093.50935,3.36013,3.36013,0,0,1,1.00655,1.50627V20.54883c-.06621.007-.08977.05485-.10617.11019a2.62493,2.62493,0,0,1-2.73584,1.83057c-1.50991-.03776-3.02155-.00117-4.53227-.01556a.86573.86573,0,0,0-.69491.27915c-.8593.88142-1.73522,1.74666-2.60625,2.61662-.6214.62064-1.01473.62292-1.63053.00856q-1.337-1.33389-2.67142-2.67035a.55587.55587,0,0,0-.41821-.23236q-2.72786.01317-5.4558.00115c-.18381-.00067-.237.057-.24158.235a6.38242,6.38242,0,0,1-.40972,1.87452c-.25205.74641-.50159,1.49366-.75995,2.26362.11648.00616.18541.013.25435.013q3.1476.0009,6.29521-.00031a3.08943,3.08943,0,0,1,2.94723,4.40541c-.13207.26815.05041.26848.19323.33256a3.07388,3.07388,0,0,1,.13405,5.62272c-.20594.10387-.25784.15871-.15213.38913a3.036,3.036,0,0,1-1.55071,4.13228c-.22.09808-.27981.15734-.16378.41216a3.05349,3.05349,0,0,1-.917,3.68927,5.04563,5.04563,0,0,1-1.406.65383h-13.017c-.01311-.02273-.02389-.06357-.03966-.0656a13.25012,13.25012,0,0,1-3.37439-.94734c-.11858-.04906-.207-.04943-.286.0643A2.78282,2.78282,0,0,1,11.647,46.5H5.34846c-.04342-.13214-.17477-.11961-.27072-.15505a2.45393,2.45393,0,0,1-1.31222-1.15328c-.09945-.17588-.08257-.40671-.26464-.53933Zm10.16193,7.77961q0,3.44234.00191,6.88467c.00019.1535-.053.30857.17865.40338a10.21768,10.21768,0,0,0,3.79512.95328c3.91776.02366,7.83572.015,11.7536.01846a1.37925,1.37925,0,0,0,.75206-.22374,1.39826,1.39826,0,0,0,.61426-1.48964,1.33444,1.33444,0,0,0-1.243-1.06646c-.83824-.033-1.67843-.01693-2.51778-.02191-.18188-.00107-.36481.01007-.54546-.00542a.838.838,0,1,1,.02342-1.67312c.11157-.00661.22381-.00241.33574-.00242,1.38528-.00012,2.77058.0052,4.15582-.00216a1.43383,1.43383,0,0,0,1.50233-.9727,1.40614,1.40614,0,0,0-1.4193-1.83625c-1.51112-.01189-3.02242.0013-4.5336-.00553a.83211.83211,0,0,1-.93805-.80239.84841.84841,0,0,1,.91568-.87437c.11163-.006.22383-.00128.33577-.00129q2.91749-.00012,5.835-.00157a1.41037,1.41037,0,0,0,1.396-.87728,1.38983,1.38983,0,0,0-1.33757-1.91085c-1.97285-.01512-3.9459-.00472-5.91887-.005-.11193,0-.22445.00625-.3357-.00269a.8526.8526,0,0,1-.89143-.85923.82141.82141,0,0,1,.9221-.81558c1.38522-.00884,2.77054-.00074,4.1558-.00553a3.00058,3.00058,0,0,0,.62422-.05618A1.3696,1.3696,0,0,0,32.334,29.73193a1.43,1.43,0,0,0-1.58309-1.18672q-3.715-.00441-7.43-.00146c-.96235-.00049-1.2805-.45452-.96975-1.37608.39218-1.163.79318-2.32321,1.17376-3.49A3.14657,3.14657,0,0,0,21.481,19.52283c-.30891-.11-.448-.08817-.56537.25259-.46772,1.35772-.9676,2.70437-1.457,4.0546a8.03944,8.03944,0,0,1-3.02627,3.96569,13.56863,13.56863,0,0,1-2.11324,1.19085,1.03828,1.03828,0,0,0-.67189,1.14973C13.68634,32.27654,13.6628,34.41794,13.66281,36.55891Zm-1.68009.10759q0-3.60943-.00069-7.21889c-.00044-.6305-.25807-.89206-.8875-.90212-.40559-.00649-.81352.02459-1.21643-.00894-.36662-.03051-.46728.0767-.46524.45492.017,3.16165.01021,6.32344.00833,9.48518a3.40058,3.40058,0,0,1-.03352.54264.788.788,0,0,1-.9326.68318.83838.83838,0,0,1-.71039-.93625c-.01363-.79721-.00375-1.59481-.00377-2.39225,0-2.46226-.01007-4.9246.01039-7.38668.00322-.3873-.11256-.47948-.47011-.45-.37517.03091-.75488.00472-1.13258.0074-.71132.005-.96706.25478-.96724.95513q-.00183,7.17693-.00016,14.35384c.00014.71824.24293.96493.9511.9658q2.43417.003,4.86835.00027c.74486-.00054.98134-.23539.98167-.97628Q11.98391,40.255,11.98272,36.6665Z" fill="#020202"/><path d="M13.57522,15.594c.0504-.31107.099-.77171.20747-1.2178a.48814.48814,0,0,0-.18649-.54115c-.27885-.25457-.54961-.51865-.81368-.7886a1.31657,1.31657,0,0,1-.3509-1.42282,1.3331,1.3331,0,0,1,1.157-.903,7.54006,7.54006,0,0,1,.95323-.13633.63219.63219,0,0,0,.64392-.46755,7.09807,7.09807,0,0,1,.48679-.97177,1.32211,1.32211,0,0,1,2.353-.00617,3.28512,3.28512,0,0,1,.3521.71114,1.04219,1.04219,0,0,0,1.10733.7897,3.56292,3.56292,0,0,1,.94481.1664,1.2968,1.2968,0,0,1,.64322,2.03632,9.91752,9.91752,0,0,1-.99654,1.01722.47677.47677,0,0,0-.15714.513,8.25869,8.25869,0,0,1,.20343,1.32307,1.30819,1.30819,0,0,1-1.85009,1.29723,11.92917,11.92917,0,0,1-1.18975-.61355.41306.41306,0,0,0-.45894-.00257,12.04065,12.04065,0,0,1-1.18788.61749A1.34756,1.34756,0,0,1,13.57522,15.594Zm.85835-3.28763a2.226,2.226,0,0,1,.923,2.8391,2.25814,2.25814,0,0,1,2.99574-.00794,2.24866,2.24866,0,0,1,.90929-2.8548,2.208,2.208,0,0,1-2.426-1.73964A2.19859,2.19859,0,0,1,14.43357,12.30637Z" fill="#020202"/><path d="M39.9148,17.10051a3.06249,3.06249,0,0,1-1.11324-.54561.91877.91877,0,0,0-1.16662.00978,4.74576,4.74576,0,0,1-.7764.40777,1.34439,1.34439,0,0,1-1.907-1.45844c.05885-.35813.11615-.71685.18928-1.07219a.5697.5697,0,0,0-.19446-.62674c-.27867-.23146-.52668-.50041-.783-.75813A1.306,1.306,0,0,1,33.79716,11.64a1.328,1.328,0,0,1,1.142-.91675A10.31092,10.31092,0,0,1,36.0168,10.57a.51635.51635,0,0,0,.49128-.362,10.45492,10.45492,0,0,1,.5689-1.11644,1.3074,1.3074,0,0,1,2.27923-.00235,9.40264,9.40264,0,0,1,.572,1.11505.51287.51287,0,0,0,.49078.36342c.361.02139.719.09693,1.0776.15391a1.334,1.334,0,0,1,1.14256.91615,1.30572,1.30572,0,0,1-.33748,1.38773,2.2612,2.2612,0,0,1-.38935.38018,1.29,1.29,0,0,0-.51133,1.65674,2.51353,2.51353,0,0,1,.09432.70371A1.37609,1.37609,0,0,1,39.9148,17.10051Zm-.19692-1.96412a2.157,2.157,0,0,1,.95159-2.80891c-.60507-.16294-1.151-.09954-1.58921-.41857-.45442-.33084-.56881-.88124-.89705-1.3994a2.17084,2.17084,0,0,1-2.39,1.79336,2.24216,2.24216,0,0,1,.94181,2.83662A2.24594,2.24594,0,0,1,39.71788,15.13639Z" fill="#020202"/><path d="M24.25255,15.594c.05837-.33565.12945-.79085.21973-1.24222a.44778.44778,0,0,0-.15287-.479c-.28256-.24982-.54381-.52372-.81442-.7871a1.33111,1.33111,0,0,1-.39074-1.45022,1.21643,1.21643,0,0,1,1.18791-.90367A1.84052,1.84052,0,0,0,26.28023,9.3055a1.33753,1.33753,0,0,1,2.50764.00935,1.84583,1.84583,0,0,0,1.9898,1.41534,1.22482,1.22482,0,0,1,1.16855.87324,1.33325,1.33325,0,0,1-.35932,1.45844,1.11,1.11,0,0,1-.18037.175,1.57968,1.57968,0,0,0-.65385,2.03383,1.33035,1.33035,0,0,1-.47838,1.57692,1.4095,1.4095,0,0,1-1.64965-.00885,3.21955,3.21955,0,0,1-.40229-.22217,1.03437,1.03437,0,0,0-1.38851.005,3.39308,3.39308,0,0,1-.741.38535A1.35459,1.35459,0,0,1,24.25255,15.594Zm1.80559-.4732a2.26072,2.26072,0,0,1,2.98136.01964A2.226,2.226,0,0,1,29.941,12.297a2.13847,2.13847,0,0,1-2.36051-1.77851c-.352.50815-.45209,1.04972-.88449,1.37561-.448.33764-1.01124.26336-1.62193.44426A2.1632,2.1632,0,0,1,26.05814,15.12084Z" fill="#020202"/><path d="M16.46058,21.62706a.82477.82477,0,1,1-.8276-.8229A.846.846,0,0,1,16.46058,21.62706Z" fill="#020202"/><path d="M8.5758,42.75107a.83547.83547,0,0,1-.82312-.82.82879.82879,0,1,1,1.656.01224A.83054.83054,0,0,1,8.5758,42.75107Z" fill="#020202"/></svg>