<svg id="Layer_1" data-name="Layer 1" xmlns="http://www.w3.org/2000/svg" viewBox="0 0 100.08824 99.82353"><g id="Group_26" data-name="Group 26"><path id="Path_68" data-name="Path 68" d="M46.63789,95.64706a20.47587,20.47587,0,0,0-3.37974-.52243,43.97181,43.97181,0,0,1-10.79506-3.16872A21.25643,21.25643,0,0,1,29.12672,90.294a23.40063,23.40063,0,0,1,6.212-4.0185,72.06889,72.06889,0,0,1,7.39707-2.43529c.42318.27375.84406.55208,1.27069.82012A11.563,11.563,0,0,0,50.98493,86.661a13.18381,13.18381,0,0,0,7.06516-2.88357,32.59053,32.59053,0,0,0,8.1328-9.45251,3.42175,3.42175,0,0,1,1.36879-1.34139,3.543,3.543,0,0,1,1.91513.22814c1.127.44828,2.26876.86119,3.39227,1.31859,3.68541,1.49995,7.01155,3.70254,10.58634,5.42148a4.1796,4.1796,0,0,1-1.16233,1.53758,45.26215,45.26215,0,0,1-10.77567,8.52177A43.23726,43.23726,0,0,1,58.4653,94.8212a34.93472,34.93472,0,0,1-4.56258.64332.56124.56124,0,0,0-.47909.17909Z" fill="#fef4ed"/><path id="Path_69" data-name="Path 69" d="M45.21554,5.40837A22.14106,22.14106,0,0,1,49.153,4.39548c.18477-.03993.43572.05474.527-.219h4.64469a4.52727,4.52727,0,0,0,1.66078.43c4.20327,1.1224,7.91378,3.00218,10.4403,6.72981a6.309,6.309,0,0,0,3.42194,3.8531,6.35229,6.35229,0,0,1,3.5862,4.72683,23.64422,23.64422,0,0,1-.77222,11.67564,21.7582,21.7582,0,0,0-.8418,4.17248,4.98446,4.98446,0,0,0-2.13641.45626,13.94494,13.94494,0,0,0-1.2182-3.13906,5.87427,5.87427,0,0,1-.94672-3.81888c.0536-.71062.02509-1.42808.02624-2.14213a7.83166,7.83166,0,0,0-1.84213-5.093c-1.16915-1.4338-1.96532-1.59691-3.625-.72089a31.82415,31.82415,0,0,1-16.71845,3.94549,40.92233,40.92233,0,0,1-4.41885-.57033.49076.49076,0,0,0-.03422-.12889,8.95856,8.95856,0,0,0,1.47144-9.39549,5.95875,5.95875,0,0,1-.54637-5.03823A8.51135,8.51135,0,0,1,43.613,7.26762C44.18893,6.6916,44.94747,6.25814,45.21554,5.40837Z" fill="#41416b"/><path id="Path_70" data-name="Path 70" d="M71.81649,35.7598a21.74272,21.74272,0,0,1,.84065-4.17249,23.64437,23.64437,0,0,0,.77222-11.67565,6.35222,6.35222,0,0,0-3.58618-4.72683,6.309,6.309,0,0,1-3.42194-3.85311,38.47651,38.47651,0,0,1,10.04908,5.67587A42.65334,42.65334,0,0,1,93.18763,44.72527a42.895,42.895,0,0,1-9.1035,34.63341c-.18022.22813-.33192.50189-.641.5977-3.57364-1.71895-6.90091-3.92154-10.58634-5.42149-1.12354-.45625-2.26531-.87031-3.39228-1.31859a3.54276,3.54276,0,0,0-1.91514-.22813c-.67869-.2441-1.46573-.19163-2.03035-.74369.25779-.535.51785-1.06878.77222-1.60489A39.84711,39.84711,0,0,0,69.65155,54.8907a61.63946,61.63946,0,0,0-.09353-6.23933A3.0056,3.0056,0,0,0,72.01268,46.394c.39124-1.31631.60226-2.6828,1.08248-3.97515a9.903,9.903,0,0,0,1.00718-2.82424C74.51753,37.60992,73.548,36.013,71.81649,35.7598Z" fill="#fc4903"/><path id="Path_71" data-name="Path 71" d="M16.60929,80.00884A35.272,35.272,0,0,1,11.24824,72.151a41.89578,41.89578,0,0,1-4.9356-22.01446c.77111-14.387,7.08-25.81393,18.81264-34.21935.10269.73116.17224,1.46914.31593,2.19232.22815,1.17143.19389,1.22391-.9125.88742-.72313-.22014-.9604-.06045-.746.60341a17.203,17.203,0,0,0,2.83567,5.8823,4.496,4.496,0,0,1,1.062,2.48432,13.7701,13.7701,0,0,0,.5053,2.425,23.76417,23.76417,0,0,1,1.14065,5.361A2.66548,2.66548,0,0,0,26.58875,38.657a8.46557,8.46557,0,0,0,.93416,3.56795l.15852.19278-.00571.0057c.357,1.36878.65359,2.75237,1.08934,4.09379A2.62348,2.62348,0,0,0,31.1,48.52478c-.01023,1.13038-.01253,2.26191-.03077,3.39228a53.99816,53.99816,0,0,0,.6547,9.94756A34.57643,34.57643,0,0,0,35.245,72.35855c-.58056.31938-1.30607.21445-1.85126.63535a4.42451,4.42451,0,0,0-2.26534.22812,68.33368,68.33368,0,0,0-11.35737,5.44089A10.15193,10.15193,0,0,1,16.60929,80.00884Z" fill="#fc4903"/><path id="Path_72" data-name="Path 72" d="M29.33317,35.75637a23.75847,23.75847,0,0,0-1.14065-5.361,13.77158,13.77158,0,0,1-.50529-2.425A4.49635,4.49635,0,0,0,26.62528,25.486a17.20341,17.20341,0,0,1-2.83563-5.8823c-.21558-.66386.0228-.82469.746-.6034,1.10413.3422,1.14065.284.9125-.88742-.14258-.72317-.21216-1.46117-.316-2.19232A18.33954,18.33954,0,0,1,26.615,7.85734C27.1043,6.703,27.81379,6.54218,28.724,7.38739a7.6002,7.6002,0,0,0,4.25462,2.23339,6.65451,6.65451,0,0,0,3.28848-.56349c2.64856-1.02658,5.15685-2.39535,7.84649-3.32384.36157-.12547.73459-.21786,1.10072-.32509-.26347.84865-1.02657,1.28209-1.5969,1.85811a8.51171,8.51171,0,0,0-1.7817,2.85161,5.95875,5.95875,0,0,0,.54638,5.03823,8.9586,8.9586,0,0,1-1.47145,9.3955,24.32536,24.32536,0,0,1-5.48308-1.72124,1.18968,1.18968,0,0,0-1.83872.9456,15.82663,15.82663,0,0,0-.4015,4.939,8.42466,8.42466,0,0,1-.08326,2.39536c-.25551,1.22277-1.13038,2.14555-1.48283,3.30787-.17224.56233-.22814,1.36079-.61481,1.5969C30.63463,36.23887,29.90234,35.86587,29.33317,35.75637Z" fill="#36355e"/><path id="Path_73" data-name="Path 73" d="M16.60931,80.00882a10.15158,10.15158,0,0,0,3.16754-1.346A68.33238,68.33238,0,0,1,31.13426,73.222a4.42476,4.42476,0,0,1,2.26531-.22815,4.94417,4.94417,0,0,1,1.4201,1.65963,30.66173,30.66173,0,0,0,7.87044,9.02706q.01829.07755.03993.15512A72.06963,72.06963,0,0,0,35.333,86.271,23.4007,23.4007,0,0,0,29.121,90.28946a41.71112,41.71112,0,0,1-7.86136-5.43631,42.48831,42.48831,0,0,1-4.44054-4.469A2.15251,2.15251,0,0,1,16.60931,80.00882Z" fill="#fbe5d5"/><path id="Path_74" data-name="Path 74" d="M42.73577,83.84367q-.02168-.07644-.03993-.15511c1.18057-.47108,1.58092-1.66878,2.34973-2.52311.30455.09583.608.19733.9125.28631a11.82092,11.82092,0,0,0,4.60821.80529,17.17927,17.17927,0,0,0,9.65786-3.84282,22.91776,22.91776,0,0,0,5.29031-6.16975c.57032.55208,1.35281.49848,2.03035.74256A3.42182,3.42182,0,0,0,66.176,74.32843,32.58963,32.58963,0,0,1,58.0432,83.781a13.18377,13.18377,0,0,1-7.06515,2.88356,11.5629,11.5629,0,0,1-6.97848-2.00069C43.57983,84.39231,43.159,84.114,42.73577,83.84367Z" fill="#faac6e"/><path id="Path_75" data-name="Path 75" d="M40.9381,24.67957a40.92752,40.92752,0,0,0,4.41886.57033,31.82409,31.82409,0,0,0,16.71845-3.9455c1.6585-.87374,2.45582-.7129,3.625.7209a7.83175,7.83175,0,0,1,1.84213,5.093c0,.71406.02736,1.43152-.02625,2.14214A5.8742,5.8742,0,0,0,68.463,33.0793a13.9442,13.9442,0,0,1,1.2182,3.139,4.95559,4.95559,0,0,0,.03763.97184c.40606,1.72694-.15626,3.37517-.37984,5.05077a7.60949,7.60949,0,0,1-.35475,2.303,19.25093,19.25093,0,0,1-2.89836,7.02067,9.55124,9.55124,0,0,1-2.38168,2.50372c-.3.2133-.50074.33193-.77337-.07527A8.86848,8.86848,0,0,0,55.56908,49.832c-.04789-.46311.15171-.96042-.154-1.38475a2.78776,2.78776,0,0,0-3.26453-.08669,1.6163,1.6163,0,0,1-2.555.05816c-.884-1.16574-1.87865-.47793-2.81966-.28173-.97412.203-.60228,1.06309-.66842,1.695l-1.43722.13915a9.07737,9.07737,0,0,0-4.44851,2.133q-.45625-5.46026-.9125-10.92167a2.1511,2.1511,0,0,0,1.09274.15285l-.01482-.008.18365.17908a8.0587,8.0587,0,0,0,2.87442.18479c1.20908.11407,2.27443-.60112,3.47669-.5977.36842,0,.26236-.31367.01368-.47108-.87146-.54866-1.74975-1.087-2.62347-1.62884a4.16571,4.16571,0,0,0-4.19987-.33193c-.44257-.06958-.77222.22014-1.14976.35931a11.50239,11.50239,0,0,1,.3536-3.55425,8.21369,8.21369,0,0,1,1.96306.11407l.87372.14373c1.606.26235,3.18126.66043,4.75421,1.07221.20987.05476.535.29315.63305-.16425a2.22882,2.22882,0,0,0-1.36879-2.14327A30.0373,30.0373,0,0,0,41.4582,33.685l-1.5969-.2133a6.14561,6.14561,0,0,0,.884-2.58243A56.1817,56.1817,0,0,1,40.9381,24.67957ZM61.09217,38.6251a4.185,4.185,0,0,0-4.177.38781,18.39737,18.39737,0,0,0-2.903,1.92314c1.30376.13459,2.4444.79844,3.72878.74369a7.96077,7.96077,0,0,0,2.87671-.17337c1.03343-.12319,1.90945-.74484,2.928-.92735.27374-.04905.29884-.27945.089-.45625A5.26636,5.26636,0,0,0,61.091,38.6251Zm-3.02385-4.74737q-1.30264.24522-2.60523.48934a2.11136,2.11136,0,0,0-1.85355,2.21741c0,.373.18366.365.45625.29771q2.18205-.54637,4.36639-1.08248c.67413-.10152,1.34826-.20074,2.02123-.30455a5.22988,5.22988,0,0,1,4.923,1.40755.78772.78772,0,0,0,.22814.11407,3.37177,3.37177,0,0,0-3.01929-3.38315A18.69419,18.69419,0,0,0,58.06832,33.87773Z" fill="#f7b98e"/><path id="Path_76" data-name="Path 76" d="M39.30583,41.179l.9125,10.92167a22.00642,22.00642,0,0,0-1.58892,2.01439c-.35245.56348-.65359.53268-1.13152.22813a10.796,10.796,0,0,1-3.536-3.917,25.93148,25.93148,0,0,1-2.3577-6.17545c-.057-.5247-.10495-1.05167-.17339-1.57523-.03763-.29087-.219-.46539-.4882-.27376a3.14815,3.14815,0,0,1-3.26794.02054l.00686-.00571-.15856-.19278a8.46678,8.46678,0,0,1-.93419-3.56794,2.66572,2.66572,0,0,1,2.73754-2.90409c.57032.11407,1.30147.4825,1.66307.25778.38782-.24067.44257-1.038.61481-1.59689.357-1.1646,1.23188-2.08738,1.48283-3.30787a8.42464,8.42464,0,0,0,.08326-2.39536,15.8266,15.8266,0,0,1,.4015-4.939,1.18968,1.18968,0,0,1,1.83872-.94559,24.32536,24.32536,0,0,0,5.48308,1.72124.49073.49073,0,0,1,.03422.1289,56.17167,56.17167,0,0,0-.203,6.20967,6.14359,6.14359,0,0,1-.884,2.58243c-.56.065-1.127.09353-1.67789.20189a3.20521,3.20521,0,0,0-2.50944,3.35578,4.84774,4.84774,0,0,1,3.65008-1.5661,11.50263,11.50263,0,0,0-.3536,3.55424c-.39467.30455-.79846.60454-1.18283.91252s-.535.55207.13917.70835A10.01629,10.01629,0,0,1,39.30583,41.179Z" fill="#faac6d"/><path id="Path_77" data-name="Path 77" d="M69.339,42.2375c.22813-1.6756.7859-3.32384.37983-5.05078a4.9562,4.9562,0,0,1-.03765-.97182,4.98584,4.98584,0,0,1,2.13643-.45625c1.73151.2532,2.701,1.849,2.28129,3.83029a9.90306,9.90306,0,0,1-1.00718,2.82425A3.54285,3.54285,0,0,1,69.339,42.2375Z" fill="#faac6d"/><path id="Path_78" data-name="Path 78" d="M55.56573,49.82736a8.86855,8.86855,0,0,1,7.36173,4.16109c.27263.4072.47449.28857.77337.07529A9.549,9.549,0,0,0,66.08251,51.56a19.25246,19.25246,0,0,0,2.89836-7.01952c.32053.24864.2806.62734.31367.96155.10266,1.04711.17454,2.09652.25892,3.14474a61.65111,61.65111,0,0,1,.09353,6.23933A39.84679,39.84679,0,0,1,66.28663,70.635c-.25435.5361-.51441,1.06991-.77221,1.6049A22.92747,22.92747,0,0,1,60.223,78.40967a17.17913,17.17913,0,0,1-9.65785,3.84281,1.07152,1.07152,0,0,1,.25209-.55319A7.04694,7.04694,0,0,0,51.9396,77.042a10.56129,10.56129,0,0,0-2.36686-5.182,5.54124,5.54124,0,0,1-.03651-7.26821,4.91156,4.91156,0,0,0,1.02657-1.42009c.3559-.01142.71291-.01368,1.06765-.03652,2.83108-.18136,5.07244-1.20452,5.95187-4.17476a3.82223,3.82223,0,0,1,.3-.64447c.57033-1.10758.39924-1.42922-.88855-1.5969a5.0602,5.0602,0,0,0-.70949,0,15.88317,15.88317,0,0,1-4.93331-.9125,1.492,1.492,0,0,0-1.11439.0228,15.15423,15.15423,0,0,1-3.96031.84295c-.05134-.46881-.45625-.67638-.73685-.96269a4.21125,4.21125,0,0,1-1.26954-3.9318,13.04382,13.04382,0,0,0,.39693-1.80565l1.43722-.13917a2.00512,2.00512,0,0,0,1.44405.28516,1.21017,1.21017,0,0,1,1.07336.27605,3.771,3.771,0,0,0,4.428,0c.2806-.18136.54522-.40039.89426-.29543A2.12621,2.12621,0,0,0,55.56573,49.82736Z" fill="#42416b"/><path id="Path_79" data-name="Path 79" d="M69.55575,48.64794c-.08441-1.04826-.15626-2.09763-.25893-3.14474-.03308-.33421.00571-.71291-.31367-.96155a7.61279,7.61279,0,0,0,.35475-2.30409,3.54288,3.54288,0,0,0,3.755.17794c-.48022,1.29235-.69123,2.65884-1.08248,3.97513A3.00561,3.00561,0,0,1,69.55575,48.64794Z" fill="#fb985c"/><path id="Path_80" data-name="Path 80" d="M50.56627,63.17293A4.91027,4.91027,0,0,1,49.5397,64.593a5.54122,5.54122,0,0,0,.03652,7.2682,10.56135,10.56135,0,0,1,2.36685,5.182,7.047,7.047,0,0,1-1.12241,4.65727c-.10606.17794-.2578.32735-.25209.55319a11.82073,11.82073,0,0,1-4.60821-.80528c-.30685-.089-.61025-.19048-.91251-.28631a29.60875,29.60875,0,0,1-4.05728-2.336,22.98628,22.98628,0,0,1-5.73744-6.46288,34.58,34.58,0,0,1-3.52118-10.494,54.0008,54.0008,0,0,1-.65474-9.94757c.01824-1.13038.02054-2.2619.03081-3.39228a10.53454,10.53454,0,0,0,.16082-1.13379,18.187,18.187,0,0,1,.34218-3.13907,25.92945,25.92945,0,0,0,2.3577,6.17545,10.79589,10.79589,0,0,0,3.536,3.917c.47793.3.77907.32965,1.13152-.22814a22.00044,22.00044,0,0,1,1.58893-2.01437,9.07815,9.07815,0,0,1,4.4485-2.133,13.04768,13.04768,0,0,1-.39693,1.8045,4.21125,4.21125,0,0,0,1.26954,3.93179c.28287.28516.6844.49392.73686.9627l-.892.06273a2.16727,2.16727,0,0,0-.88285.04219,2.79566,2.79566,0,0,0-1.73947.98894c-.24409.39923.36616.87487.47678,1.36193.02625.11407.09239.219.12891.3308a4.99834,4.99834,0,0,0,3.57819,3.30786A13.31861,13.31861,0,0,0,50.56627,63.17293Z" fill="#36355e"/><path id="Path_81" data-name="Path 81" d="M35.25086,72.36311A22.98525,22.98525,0,0,0,40.9883,78.826,29.60016,29.60016,0,0,0,45.04558,81.162c-.76992.85433-1.1703,2.05314-2.34972,2.52311a30.66153,30.66153,0,0,1-7.87045-9.02707,4.94393,4.94393,0,0,0-1.4201-1.65962C33.9448,72.57528,34.67027,72.68249,35.25086,72.36311Z" fill="#fb985c"/><path id="Path_82" data-name="Path 82" d="M31.611,44.2553a18.17923,18.17923,0,0,0-.34218,3.13907,10.54458,10.54458,0,0,1-.16082,1.13379,2.62349,2.62349,0,0,1-2.3349-2.00755c-.4346-1.34139-.73229-2.72727-1.0893-4.09376a3.147,3.147,0,0,0,3.26794-.02054c.26918-.19048.45625-.01712.4882.27375C31.50609,43.20363,31.554,43.73061,31.611,44.2553Z" fill="#fb985c"/><path id="Path_83" data-name="Path 83" d="M27.52869,42.2261l.15856.19278Z" fill="#fb985c"/><path id="Path_84" data-name="Path 84" d="M55.56687,49.82736a2.12626,2.12626,0,0,1-1.622.26578c-.349-.10495-.61481.11407-.89426.29543a3.771,3.771,0,0,1-4.428,0,1.21017,1.21017,0,0,0-1.07336-.276,2.00516,2.00516,0,0,1-1.444-.28517c.065-.6319-.3057-1.492.66842-1.695.941-.19618,1.93911-.884,2.81966.28175a1.61628,1.61628,0,0,0,2.555-.05816,2.78773,2.78773,0,0,1,3.26453.08667C55.71858,48.86693,55.519,49.36426,55.56687,49.82736Z" fill="#faac6e"/><path id="Path_85" data-name="Path 85" d="M58.06487,33.87772a18.69309,18.69309,0,0,1,4.52039-.24751,3.37175,3.37175,0,0,1,3.01929,3.38315.78772.78772,0,0,1-.22814-.11407,5.22982,5.22982,0,0,0-4.923-1.40756c-.673.1038-1.3471.203-2.02123.30455A3.15286,3.15286,0,0,1,58.06487,33.87772Z" fill="#46446b"/><path id="Path_86" data-name="Path 86" d="M41.448,33.68724a30.03535,30.03535,0,0,1,4.71313.80414,2.22884,2.22884,0,0,1,1.36879,2.14327c-.09809.45625-.42318.219-.633.16427-1.57294-.41177-3.14819-.80985-4.7542-1.07221L41.2689,35.583A2.036,2.036,0,0,1,41.448,33.68724Z" fill="#46446b"/><path id="Path_87" data-name="Path 87" d="M56.914,39.0129a4.18389,4.18389,0,0,1,4.177-.38781,2.58923,2.58923,0,0,1-.47564,2.88012,7.963,7.963,0,0,1-2.87671.17454A2.50937,2.50937,0,0,1,56.914,39.0129Zm2.94629.868a.70823.70823,0,0,0-.75739-.82012.73571.73571,0,0,0-.85548.78249c-.008.50189.14714.92051.69577.93078a.79846.79846,0,0,0,.91822-.89312Z" fill="#46446b"/><path id="Path_88" data-name="Path 88" d="M40.10772,38.65819a4.16564,4.16564,0,0,1,4.19986.33191,2.6543,2.6543,0,0,1-.86575,2.69762,8.06184,8.06184,0,0,1-2.87441-.18477l-.18366-.1791.01483.008A2.54022,2.54022,0,0,1,40.10772,38.65819Zm2.09307,2.15354c.45625-.14714.84407-.40264.83725-.90568a.843.843,0,0,0-.82329-.86213q-.01154-.00025-.02308-.00021a.8339.8339,0,0,0-.884.9125C41.33048,40.4353,41.71032,40.71019,42.20079,40.81173Z" fill="#46446b"/><path id="Path_89" data-name="Path 89" d="M41.448,33.685a2.036,2.036,0,0,0-.17454,1.89574,8.2126,8.2126,0,0,0-1.96306-.11407,4.84771,4.84771,0,0,0-3.65007,1.56609,3.2052,3.2052,0,0,1,2.50943-3.35578c.55093-.11407,1.11784-.13687,1.6779-.2019Z" fill="#36355e"/><path id="Path_90" data-name="Path 90" d="M58.06717,33.87772a3.15258,3.15258,0,0,0,.36272,1.92084q-2.18321.54063-4.3664,1.08248c-.27033.06728-.45625.07529-.45625-.2977a2.11134,2.11134,0,0,1,1.85355-2.21741Q56.76459,34.11952,58.06717,33.87772Z" fill="#36355e"/><path id="Path_91" data-name="Path 91" d="M43.443,41.68657a2.65427,2.65427,0,0,0,.86575-2.69761c.87488.54181,1.75316,1.08018,2.62347,1.62885.2498.15741.3559.47223-.01368.47108C45.71739,41.08548,44.652,41.79949,43.443,41.68657Z" fill="#fcf0e8"/><path id="Path_92" data-name="Path 92" d="M56.914,39.0129a2.50944,2.50944,0,0,0,.82582,2.66685c-1.28437.0536-2.425-.6091-3.72878-.74371A18.39539,18.39539,0,0,1,56.914,39.0129Z" fill="#fcf0e8"/><path id="Path_93" data-name="Path 93" d="M60.61536,41.50525a2.58924,2.58924,0,0,0,.47564-2.88013,5.263,5.263,0,0,1,2.54136,1.49766c.211.17565.18592.4072-.089.45625C62.52478,40.76039,61.64876,41.38205,60.61536,41.50525Z" fill="#fcf0e8"/><path id="Path_94" data-name="Path 94" d="M40.11113,38.657a2.54021,2.54021,0,0,0,.29087,2.67366,2.15126,2.15126,0,0,1-1.09275-.15285,10.02051,10.02051,0,0,0-1.39044-.53836c-.67412-.15626-.535-.39238-.13917-.70835s.7882-.61025,1.18284-.9125C39.3355,38.87716,39.6663,38.58744,40.11113,38.657Z" fill="#fcf0e8"/><path id="Path_95" data-name="Path 95" d="M40.38491,41.32385l.18365.1791Z" fill="#fcf0e8"/><path id="Path_96" data-name="Path 96" d="M50.56513,63.17291a13.32023,13.32023,0,0,1-3.617-.41747A4.99836,4.99836,0,0,1,43.37,59.44757c-.03763-.11407-.1038-.21672-.1289-.3308-.11407-.48705-.722-.96269-.47679-1.36193a2.79575,2.79575,0,0,1,1.73948-.98894,2.16762,2.16762,0,0,1,.88285-.04219,3.966,3.966,0,0,0,3.4299,1.33683,5.78425,5.78425,0,0,1,4.05043,0,3.82,3.82,0,0,0,3.42193-1.3494,5.0602,5.0602,0,0,1,.70949,0c1.28779.17224,1.46118.49392.88856,1.5969a3.81911,3.81911,0,0,0-.3.64447c-.87944,2.96568-3.11965,3.99226-5.95187,4.17476C51.278,63.15923,50.921,63.16149,50.56513,63.17291Zm.27149-3.25656H50.2161a.96724.96724,0,0,0-1.0563.86917q-.00408.04151-.00449.08326a1.04142,1.04142,0,0,0,.88743,1.15207,3.52347,3.52347,0,0,0,.79847.03536c1.16915,0,1.66307-.31938,1.69273-1.09957C52.55785,60.21178,52.07765,59.91068,50.83662,59.91635Z" fill="#f7b98e"/><path id="Path_97" data-name="Path 97" d="M56.28662,56.718a3.82,3.82,0,0,1-3.42194,1.3494,5.78422,5.78422,0,0,0-4.05042,0,3.966,3.966,0,0,1-3.43106-1.338l.892-.06273a15.156,15.156,0,0,0,3.9603-.843,1.492,1.492,0,0,1,1.1144-.0228A15.88313,15.88313,0,0,0,56.28662,56.718Z" fill="#faac6e"/><path id="Path_98" data-name="Path 98" d="M59.8614,39.88207a.79844.79844,0,0,1-.9125.892c-.54864-.01027-.70378-.42774-.69578-.93078a.73574.73574,0,0,1,.85549-.78249A.70982.70982,0,0,1,59.8614,39.88207Z" fill="#36355e"/><path id="Path_99" data-name="Path 99" d="M42.20081,40.8117c-.49047-.10151-.87031-.3764-.89311-.8589a.83373.83373,0,0,1,.884-.9125.84293.84293,0,0,1,.84657.83926q.00006.01155-.00021.02308C43.04717,40.40905,42.65476,40.66115,42.20081,40.8117Z" fill="#36355e"/><path id="Path_100" data-name="Path 100" d="M50.83663,59.91641c1.241,0,1.72124.29543,1.69273,1.0414-.02966.78019-.52357,1.10187-1.69273,1.09957a3.52337,3.52337,0,0,1-.79846-.03537A1.0414,1.0414,0,0,1,49.15073,60.87a.96726.96726,0,0,1,.97752-.95692q.04173.00046.08327.00449C50.42257,59.91411,50.629,59.91752,50.83663,59.91641Z" fill="#faac6e"/></g></svg>