<svg id="Layer_1" data-name="Layer 1" xmlns="http://www.w3.org/2000/svg" viewBox="0 0 100.08824 99.82353"><g id="Group_26" data-name="Group 26"><path id="Path_68" data-name="Path 68" d="M46.63789,95.647a20.47587,20.47587,0,0,0-3.37974-.52243A43.972,43.972,0,0,1,32.46309,91.9559,21.25638,21.25638,0,0,1,29.12672,90.294a23.401,23.401,0,0,1,6.212-4.0185,72.0656,72.0656,0,0,1,7.39707-2.43528c.42318.27375.84406.55207,1.27069.82012A11.563,11.563,0,0,0,50.98493,86.661a13.18389,13.18389,0,0,0,7.06516-2.88357,32.59052,32.59052,0,0,0,8.13279-9.45251,3.42182,3.42182,0,0,1,1.36879-1.34139,3.54292,3.54292,0,0,1,1.91513.22814c1.127.44828,2.26877.86119,3.39228,1.31859,3.68541,1.49995,7.01155,3.70254,10.58634,5.42148a4.17971,4.17971,0,0,1-1.16233,1.53758,45.26235,45.26235,0,0,1-10.77567,8.52177,43.23717,43.23717,0,0,1-13.04212,4.8101,34.9335,34.9335,0,0,1-4.56258.64332.56125.56125,0,0,0-.47909.17909Z" fill="#fef4ed"/><path id="Path_69" data-name="Path 69" d="M45.21554,5.40836A22.14,22.14,0,0,1,49.153,4.39547c.18477-.03993.43572.05474.527-.219h4.64469a4.52734,4.52734,0,0,0,1.66078.43c4.20327,1.1224,7.91378,3.00218,10.4403,6.72981a6.30908,6.30908,0,0,0,3.42195,3.8531,6.35229,6.35229,0,0,1,3.58619,4.72683,23.64423,23.64423,0,0,1-.77221,11.67564,21.75826,21.75826,0,0,0-.8418,4.17247,4.98441,4.98441,0,0,0-2.13641.45627,13.94549,13.94549,0,0,0-1.2182-3.13907,5.87423,5.87423,0,0,1-.94672-3.81888c.0536-.71062.02509-1.42808.02624-2.14213a7.83171,7.83171,0,0,0-1.84214-5.093c-1.16915-1.4338-1.96532-1.59691-3.625-.72089a31.82405,31.82405,0,0,1-16.71845,3.94549,40.91982,40.91982,0,0,1-4.41885-.57033.49069.49069,0,0,0-.03422-.12888,8.95856,8.95856,0,0,0,1.47144-9.39549,5.95875,5.95875,0,0,1-.54637-5.03823A8.5112,8.5112,0,0,1,43.613,7.26761C44.18893,6.69159,44.94747,6.25813,45.21554,5.40836Z" fill="#41416b"/><path id="Path_72" data-name="Path 72" d="M29.33317,35.75636a23.75822,23.75822,0,0,0-1.14065-5.361,13.77166,13.77166,0,0,1-.50529-2.425A4.49633,4.49633,0,0,0,26.62528,25.486a17.20341,17.20341,0,0,1-2.83563-5.8823c-.21558-.66386.0228-.82469.746-.6034,1.10413.3422,1.14065.284.9125-.88742-.14258-.72317-.21216-1.46117-.316-2.19232A18.33937,18.33937,0,0,1,26.615,7.85733c.4893-1.15434,1.19879-1.31516,2.109-.46995a7.60026,7.60026,0,0,0,4.25462,2.23339,6.65455,6.65455,0,0,0,3.28848-.56349C38.91566,8.0307,41.424,6.66193,44.11359,5.73344c.36157-.12547.73459-.21786,1.10072-.32509-.26347.84865-1.02657,1.28209-1.5969,1.85811a8.51151,8.51151,0,0,0-1.7817,2.85161,5.95871,5.95871,0,0,0,.54638,5.03823,8.95862,8.95862,0,0,1-1.47145,9.3955,24.32587,24.32587,0,0,1-5.48308-1.72124,1.18969,1.18969,0,0,0-1.83872.9456,15.82669,15.82669,0,0,0-.4015,4.939,8.42467,8.42467,0,0,1-.08326,2.39536c-.25551,1.22277-1.13038,2.14555-1.48283,3.30787-.17224.56232-.22814,1.36079-.61481,1.5969C30.63463,36.23885,29.90234,35.86586,29.33317,35.75636Z" fill="#36355e"/><path id="Path_73" data-name="Path 73" d="M16.60931,80.0088a10.15156,10.15156,0,0,0,3.16754-1.346A68.33211,68.33211,0,0,1,31.13426,73.222a4.42467,4.42467,0,0,1,2.26531-.22815,4.94417,4.94417,0,0,1,1.4201,1.65963,30.66185,30.66185,0,0,0,7.87044,9.02706q.01829.07755.03993.15512A72.06948,72.06948,0,0,0,35.333,86.271a23.40078,23.40078,0,0,0-6.212,4.01845,41.71066,41.71066,0,0,1-7.86136-5.43631,42.48793,42.48793,0,0,1-4.44054-4.469A2.15258,2.15258,0,0,1,16.60931,80.0088Z" fill="#fbe5d5"/><path id="Path_74" data-name="Path 74" d="M42.73577,83.84366q-.02168-.07644-.03993-.15511c1.18057-.47108,1.58092-1.66878,2.34973-2.52311.30455.09583.608.19732.9125.2863a11.82074,11.82074,0,0,0,4.60821.80529,17.17916,17.17916,0,0,0,9.65786-3.84281,22.91778,22.91778,0,0,0,5.29031-6.16976c.57032.55208,1.35281.49848,2.03035.74256a3.42193,3.42193,0,0,0-1.3688,1.3414A32.58948,32.58948,0,0,1,58.0432,83.781a13.18361,13.18361,0,0,1-7.06515,2.88356,11.56288,11.56288,0,0,1-6.97848-2.00068C43.57983,84.3923,43.159,84.114,42.73577,83.84366Z" fill="#faac6e"/><path id="Path_75" data-name="Path 75" d="M40.9381,24.67955a40.92469,40.92469,0,0,0,4.41886.57033,31.82406,31.82406,0,0,0,16.71845-3.9455c1.6585-.87373,2.45582-.7129,3.625.7209a7.83177,7.83177,0,0,1,1.84213,5.093c0,.71406.02736,1.43153-.02625,2.14214a5.87419,5.87419,0,0,0,.94671,3.81887,13.94429,13.94429,0,0,1,1.2182,3.139,4.95488,4.95488,0,0,0,.03763.97184c.40606,1.72694-.15626,3.37517-.37984,5.05076a7.6095,7.6095,0,0,1-.35475,2.303,19.251,19.251,0,0,1-2.89836,7.02067,9.55155,9.55155,0,0,1-2.38168,2.50372c-.3.2133-.50074.33193-.77337-.07527a8.86845,8.86845,0,0,0-7.36175-4.161c-.04789-.46312.15171-.96042-.154-1.38475a2.78774,2.78774,0,0,0-3.26453-.08669,1.61632,1.61632,0,0,1-2.555.05816c-.884-1.16575-1.87865-.47793-2.81966-.28174-.97412.203-.60228,1.0631-.66842,1.695l-1.43722.13915a9.07745,9.07745,0,0,0-4.44851,2.133q-.45624-5.46026-.9125-10.92167a2.15092,2.15092,0,0,0,1.09274.15285l-.01482-.008.18365.17908a8.05891,8.05891,0,0,0,2.87442.18479c1.20908.11407,2.27443-.60112,3.47669-.5977.36842,0,.26236-.31367.01368-.47108-.87146-.54866-1.74975-1.087-2.62347-1.62884a4.16571,4.16571,0,0,0-4.19987-.33193c-.44257-.06958-.77222.22014-1.14976.35931a11.50211,11.50211,0,0,1,.3536-3.55425,8.21363,8.21363,0,0,1,1.96306.11407l.87371.14373c1.606.26235,3.18126.66043,4.75422,1.07221.20986.05476.535.29315.633-.16425a2.22881,2.22881,0,0,0-1.36879-2.14327A30.03751,30.03751,0,0,0,41.4582,33.685l-1.5969-.2133a6.14572,6.14572,0,0,0,.884-2.58243A56.18169,56.18169,0,0,1,40.9381,24.67955ZM61.09217,38.62508a4.185,4.185,0,0,0-4.177.38781,18.397,18.397,0,0,0-2.903,1.92315c1.30376.13459,2.4444.79843,3.72878.74369a7.961,7.961,0,0,0,2.87671-.17337c1.03342-.1232,1.90945-.74484,2.928-.92735.27374-.049.29884-.27945.089-.45625A5.26638,5.26638,0,0,0,61.091,38.62508Zm-3.02385-4.74736q-1.30264.24522-2.60523.48934a2.11136,2.11136,0,0,0-1.85355,2.21741c0,.373.18366.365.45625.29771q2.18205-.54637,4.36639-1.08248c.67413-.10152,1.34826-.20074,2.02123-.30455a5.22987,5.22987,0,0,1,4.923,1.40755.78772.78772,0,0,0,.22814.11407,3.37177,3.37177,0,0,0-3.01929-3.38315A18.69434,18.69434,0,0,0,58.06832,33.87772Z" fill="#f7b98e"/><path id="Path_76" data-name="Path 76" d="M39.30583,41.179l.9125,10.92167A22.00456,22.00456,0,0,0,38.62941,54.115c-.35246.56348-.6536.53268-1.13152.22813a10.796,10.796,0,0,1-3.536-3.917,25.93124,25.93124,0,0,1-2.3577-6.17544c-.057-.5247-.10495-1.05167-.17339-1.57523-.03763-.29087-.219-.46539-.4882-.27377a3.14815,3.14815,0,0,1-3.26794.02054l.00686-.00571-.15856-.19278a8.46678,8.46678,0,0,1-.93419-3.56794,2.66576,2.66576,0,0,1,2.73754-2.90409c.57032.11407,1.30147.4825,1.66307.25778.38782-.24067.44257-1.038.61481-1.59689.357-1.1646,1.23188-2.08738,1.48283-3.30787a8.425,8.425,0,0,0,.08326-2.39536,15.82639,15.82639,0,0,1,.4015-4.939,1.18969,1.18969,0,0,1,1.83872-.94559,24.32486,24.32486,0,0,0,5.48308,1.72124.49083.49083,0,0,1,.03422.1289,56.16921,56.16921,0,0,0-.203,6.20967,6.14341,6.14341,0,0,1-.884,2.58243c-.56.065-1.127.09353-1.67789.20189a3.20522,3.20522,0,0,0-2.50944,3.35579,4.84775,4.84775,0,0,1,3.65008-1.56611,11.50269,11.50269,0,0,0-.3536,3.55425c-.39467.30455-.79846.60454-1.18283.91252s-.535.55207.13917.70835A10.01577,10.01577,0,0,1,39.30583,41.179Z" fill="#faac6d"/><path id="Path_77" data-name="Path 77" d="M69.339,42.23748c.22812-1.6756.78589-3.32384.37983-5.05078a4.95543,4.95543,0,0,1-.03765-.97182,4.98594,4.98594,0,0,1,2.13642-.45625c1.73151.2532,2.701,1.849,2.28129,3.8303a9.90289,9.90289,0,0,1-1.00718,2.82424A3.54281,3.54281,0,0,1,69.339,42.23748Z" fill="#faac6d"/><path id="Path_78" data-name="Path 78" d="M55.56573,49.82734a8.86856,8.86856,0,0,1,7.36173,4.16109c.27263.4072.47449.28857.77337.0753A9.54925,9.54925,0,0,0,66.08251,51.56a19.25246,19.25246,0,0,0,2.89836-7.01952c.32054.24864.2806.62734.31367.96155.10266,1.04711.17454,2.09652.25892,3.14474a61.65407,61.65407,0,0,1,.09353,6.23933A39.847,39.847,0,0,1,66.28663,70.635c-.25435.5361-.51441,1.06991-.77221,1.60489A22.92737,22.92737,0,0,1,60.223,78.40965a17.17913,17.17913,0,0,1-9.65785,3.84281,1.07149,1.07149,0,0,1,.25209-.55319A7.047,7.047,0,0,0,51.9396,77.042a10.56123,10.56123,0,0,0-2.36686-5.182,5.54126,5.54126,0,0,1-.03651-7.26822,4.91134,4.91134,0,0,0,1.02657-1.42009c.3559-.01142.71291-.01367,1.06765-.03651,2.83108-.18136,5.07244-1.20452,5.95187-4.17476a3.82186,3.82186,0,0,1,.3-.64447c.57033-1.10758.39924-1.42922-.88855-1.5969a5.0602,5.0602,0,0,0-.70949,0,15.8833,15.8833,0,0,1-4.93331-.9125,1.492,1.492,0,0,0-1.11439.0228,15.15441,15.15441,0,0,1-3.96031.84295c-.05134-.46881-.45625-.67638-.73685-.96269a4.21125,4.21125,0,0,1-1.26954-3.9318,13.04478,13.04478,0,0,0,.39693-1.80565L46.104,49.833a2.00514,2.00514,0,0,0,1.444.28516,1.21017,1.21017,0,0,1,1.07336.27605,3.771,3.771,0,0,0,4.428,0c.2806-.18136.54522-.40039.89426-.29543A2.12617,2.12617,0,0,0,55.56573,49.82734Z" fill="#42416b"/><path id="Path_79" data-name="Path 79" d="M69.55575,48.64793c-.08441-1.04826-.15626-2.09763-.25893-3.14474-.03308-.33421.00571-.71291-.31367-.96156a7.613,7.613,0,0,0,.35476-2.30408,3.54287,3.54287,0,0,0,3.755.17794c-.48021,1.29235-.69123,2.65884-1.08248,3.97513A3.00562,3.00562,0,0,1,69.55575,48.64793Z" fill="#fb985c"/><path id="Path_80" data-name="Path 80" d="M50.56627,63.17292A4.91042,4.91042,0,0,1,49.5397,64.593a5.54121,5.54121,0,0,0,.03652,7.2682,10.5614,10.5614,0,0,1,2.36685,5.182,7.047,7.047,0,0,1-1.12241,4.65727c-.10606.17794-.2578.32735-.25209.5532a11.82085,11.82085,0,0,1-4.60821-.80529c-.30685-.089-.61025-.19048-.91251-.28631a29.60837,29.60837,0,0,1-4.05728-2.336,22.98617,22.98617,0,0,1-5.73744-6.46289,34.57989,34.57989,0,0,1-3.52118-10.494,53.99986,53.99986,0,0,1-.65474-9.94757c.01824-1.13038.02054-2.2619.03081-3.39228a10.53489,10.53489,0,0,0,.16082-1.13379,18.18742,18.18742,0,0,1,.34218-3.13907,25.92929,25.92929,0,0,0,2.3577,6.17545,10.796,10.796,0,0,0,3.536,3.917c.47793.3.77907.32965,1.13152-.22814a21.99971,21.99971,0,0,1,1.58893-2.01437,9.07815,9.07815,0,0,1,4.4485-2.133,13.04817,13.04817,0,0,1-.39693,1.8045,4.21123,4.21123,0,0,0,1.26954,3.93179c.28287.28516.68439.49392.73685.9627l-.892.06273a2.16725,2.16725,0,0,0-.88285.04219,2.79568,2.79568,0,0,0-1.73948.98894c-.24409.39923.36617.87487.47678,1.36193.02625.11407.09239.219.12891.3308a4.99834,4.99834,0,0,0,3.57819,3.30786A13.31875,13.31875,0,0,0,50.56627,63.17292Z" fill="#36355e"/><path id="Path_81" data-name="Path 81" d="M35.25086,72.3631A22.9851,22.9851,0,0,0,40.9883,78.826a29.6005,29.6005,0,0,0,4.05728,2.336c-.76992.85433-1.1703,2.05314-2.34972,2.52311A30.66166,30.66166,0,0,1,34.82541,74.658a4.94384,4.94384,0,0,0-1.4201-1.65962C33.9448,72.57526,34.67027,72.68247,35.25086,72.3631Z" fill="#fb985c"/><path id="Path_82" data-name="Path 82" d="M31.611,44.25528a18.17945,18.17945,0,0,0-.34218,3.13907,10.54565,10.54565,0,0,1-.16082,1.13379,2.62348,2.62348,0,0,1-2.3349-2.00755c-.4346-1.34139-.73229-2.72727-1.0893-4.09376a3.147,3.147,0,0,0,3.26794-.02054c.26918-.19048.45625-.01712.4882.27375C31.50609,43.20361,31.554,43.7306,31.611,44.25528Z" fill="#fb985c"/><path id="Path_83" data-name="Path 83" d="M27.52869,42.22609l.15856.19278Z" fill="#fb985c"/><path id="Path_84" data-name="Path 84" d="M55.56687,49.82734a2.12626,2.12626,0,0,1-1.622.26579c-.349-.105-.61481.11407-.89426.29542a3.771,3.771,0,0,1-4.428,0,1.21019,1.21019,0,0,0-1.07336-.276,2.00515,2.00515,0,0,1-1.444-.28517c.065-.6319-.3057-1.492.66842-1.695.941-.19618,1.93911-.884,2.81966.28175a1.61626,1.61626,0,0,0,2.555-.05816,2.78774,2.78774,0,0,1,3.26453.08667C55.71858,48.86691,55.519,49.36425,55.56687,49.82734Z" fill="#faac6e"/><path id="Path_85" data-name="Path 85" d="M58.06487,33.87771a18.69253,18.69253,0,0,1,4.52039-.24751,3.37176,3.37176,0,0,1,3.01929,3.38314.78739.78739,0,0,1-.22815-.11407,5.22979,5.22979,0,0,0-4.923-1.40755c-.673.1038-1.3471.203-2.02123.30455A3.15291,3.15291,0,0,1,58.06487,33.87771Z" fill="#46446b"/><path id="Path_86" data-name="Path 86" d="M41.448,33.68723a30.03493,30.03493,0,0,1,4.71313.80413,2.22883,2.22883,0,0,1,1.36879,2.14327c-.09809.45625-.42318.219-.633.16427-1.57294-.41177-3.14819-.80985-4.7542-1.07221l-.87382-.1437A2.036,2.036,0,0,1,41.448,33.68723Z" fill="#46446b"/><path id="Path_87" data-name="Path 87" d="M56.914,39.01289a4.18387,4.18387,0,0,1,4.177-.38781,2.58921,2.58921,0,0,1-.47564,2.88012,7.96314,7.96314,0,0,1-2.8767.17454A2.50936,2.50936,0,0,1,56.914,39.01289Zm2.94629.868a.70827.70827,0,0,0-.75739-.82013.7357.7357,0,0,0-.85548.78249c-.008.50189.14714.92051.69577.93078a.79847.79847,0,0,0,.91822-.89312Z" fill="#46446b"/><path id="Path_88" data-name="Path 88" d="M40.10772,38.65818a4.16562,4.16562,0,0,1,4.19986.33191,2.6543,2.6543,0,0,1-.86575,2.69762,8.06207,8.06207,0,0,1-2.87441-.18477l-.18366-.1791.01483.008A2.54023,2.54023,0,0,1,40.10772,38.65818Zm2.09307,2.15354c.45625-.14714.84407-.40264.83725-.90568a.843.843,0,0,0-.82329-.86213q-.01154-.00025-.02308-.00021a.83391.83391,0,0,0-.884.9125C41.33048,40.43528,41.71032,40.71018,42.20079,40.81172Z" fill="#46446b"/><path id="Path_89" data-name="Path 89" d="M41.448,33.685a2.036,2.036,0,0,0-.17454,1.89574,8.212,8.212,0,0,0-1.96306-.11407,4.84771,4.84771,0,0,0-3.65007,1.56609A3.20521,3.20521,0,0,1,38.16976,33.677c.55093-.11407,1.11784-.13687,1.6779-.2019Z" fill="#36355e"/><path id="Path_90" data-name="Path 90" d="M58.06717,33.87771a3.15258,3.15258,0,0,0,.36272,1.92084q-2.18322.54063-4.3664,1.08248c-.27033.06728-.45625.07529-.45625-.2977a2.11135,2.11135,0,0,1,1.85355-2.21741Q56.76459,34.1195,58.06717,33.87771Z" fill="#36355e"/><path id="Path_91" data-name="Path 91" d="M43.443,41.68655a2.65425,2.65425,0,0,0,.86575-2.6976c.87488.5418,1.75316,1.08018,2.62347,1.62884.2498.15741.3559.47223-.01368.47109C45.71739,41.08547,44.652,41.79948,43.443,41.68655Z" fill="#fcf0e8"/><path id="Path_92" data-name="Path 92" d="M56.914,39.01289a2.50943,2.50943,0,0,0,.82582,2.66685c-1.28437.0536-2.425-.6091-3.72878-.74371A18.39515,18.39515,0,0,1,56.914,39.01289Z" fill="#fcf0e8"/><path id="Path_93" data-name="Path 93" d="M60.61536,41.50523A2.58924,2.58924,0,0,0,61.091,38.6251a5.263,5.263,0,0,1,2.54136,1.49767c.211.17565.18592.4072-.089.45624C62.52478,40.76038,61.64876,41.382,60.61536,41.50523Z" fill="#fcf0e8"/><path id="Path_94" data-name="Path 94" d="M40.11113,38.657a2.54021,2.54021,0,0,0,.29087,2.67366,2.15128,2.15128,0,0,1-1.09275-.15285,10.01925,10.01925,0,0,0-1.39044-.53836c-.67412-.15627-.535-.39238-.13917-.70836s.7882-.61024,1.18283-.91249C39.3355,38.87714,39.6663,38.58743,40.11113,38.657Z" fill="#fcf0e8"/><path id="Path_95" data-name="Path 95" d="M40.38491,41.32383l.18365.1791Z" fill="#fcf0e8"/><path id="Path_96" data-name="Path 96" d="M50.56513,63.17289a13.32044,13.32044,0,0,1-3.617-.41746A4.99838,4.99838,0,0,1,43.37,59.44756c-.03763-.11407-.1038-.21672-.1289-.3308-.11407-.487-.722-.96269-.47679-1.36193a2.79568,2.79568,0,0,1,1.73948-.98894,2.1676,2.1676,0,0,1,.88285-.0422,3.966,3.966,0,0,0,3.4299,1.33683,5.78425,5.78425,0,0,1,4.05043,0,3.82,3.82,0,0,0,3.42193-1.34939,5.05716,5.05716,0,0,1,.70949,0c1.28779.17224,1.46118.49391.88856,1.5969a3.81879,3.81879,0,0,0-.3.64447c-.87944,2.96568-3.11965,3.99226-5.95187,4.17476C51.278,63.15921,50.921,63.16148,50.56513,63.17289Zm.27149-3.25656H50.2161a.96723.96723,0,0,0-1.05629.86911l0,.00006q-.00409.04152-.00449.08326a1.04142,1.04142,0,0,0,.88743,1.15207,3.52285,3.52285,0,0,0,.79847.03536c1.16915,0,1.66307-.31938,1.69273-1.09957C52.55785,60.21177,52.07765,59.91066,50.83662,59.91633Z" fill="#f7b98e"/><path id="Path_97" data-name="Path 97" d="M56.28662,56.718a3.82,3.82,0,0,1-3.42194,1.3494,5.78422,5.78422,0,0,0-4.05042,0,3.966,3.966,0,0,1-3.43106-1.338l.892-.06273a15.15563,15.15563,0,0,0,3.9603-.843,1.492,1.492,0,0,1,1.1144-.0228A15.88292,15.88292,0,0,0,56.28662,56.718Z" fill="#faac6e"/><path id="Path_98" data-name="Path 98" d="M59.8614,39.88205a.79844.79844,0,0,1-.9125.892c-.54864-.01027-.70378-.42774-.69578-.93078a.73575.73575,0,0,1,.85549-.78249.70981.70981,0,0,1,.75279.82127Z" fill="#36355e"/><path id="Path_99" data-name="Path 99" d="M42.20081,40.81168c-.49047-.1015-.87031-.3764-.89311-.85889a.83369.83369,0,0,1,.884-.9125.84292.84292,0,0,1,.84657.83926q.00006.01155-.00021.02308C43.04717,40.409,42.65476,40.66114,42.20081,40.81168Z" fill="#36355e"/><path id="Path_100" data-name="Path 100" d="M50.83663,59.91639c1.241,0,1.72124.29543,1.69273,1.0414-.02966.78019-.52357,1.10188-1.69273,1.09958a3.52394,3.52394,0,0,1-.79846-.03537,1.04141,1.04141,0,0,1-.88744-1.152.96726.96726,0,0,1,.97749-.95692h0q.04173.00046.08327.00449C50.42257,59.91409,50.629,59.9175,50.83663,59.91639Z" fill="#faac6e"/></g></svg>