<svg id="Layer_1" data-name="Layer 1" xmlns="http://www.w3.org/2000/svg" viewBox="0 0 100.08824 99.82353"><g id="Group_1004" data-name="Group 1004"><path id="Path_480" data-name="Path 480" d="M93.46848,23.40232c-.178-.35212-.34009-.71426-.53817-1.0564a4.60177,4.60177,0,0,0-4.34563-2.25686H45.77649a4.50773,4.50773,0,0,0-4.6237,3.1532,4.33857,4.33857,0,0,0-.116,1.25847v39.0808q6.80256.016,13.60512.034c2.36686,0,4.73385.022,7.10071.034a6.491,6.491,0,0,0,.50825-.52018,11.65643,11.65643,0,0,1,18.26094-.024c.164.21209.29405.45617.58225.55621.4202-.016.83833-.042,1.25853-.044q5.55606-.026,11.11419-.046Zm-7.46278,18.499c0,3.70141-.028,7.40279.012,11.10219a4.00825,4.00825,0,0,1-7.983-.59224V32.58377a11.70878,11.70878,0,0,1,.14007-2.04478,3.96344,3.96344,0,0,1,4.1356-3.32526,3.81948,3.81948,0,0,1,3.69134,3.82145V41.90133Zm-22.55859.13c0-3.62137-.01-7.24273,0-10.8641A3.7493,3.7493,0,0,1,65.698,27.616a4.00148,4.00148,0,0,1,5.72019,3.49733c-.016,7.18872.016,14.37943-.01795,21.56816a3.77946,3.77946,0,0,1-3.7165,3.84135q-.12253.002-.245-.0039A3.85541,3.85541,0,0,1,63.44,52.81225q-.00312-.07835-.00281-.15682c.0359-3.53937.012-7.0827.012-10.62405Zm-14.58755-.074c0-3.75344-.016-7.50684,0-11.26028A3.8814,3.8814,0,0,1,52.821,27.21376a3.77942,3.77942,0,0,1,3.83348,3.49333V53.06955a2.5363,2.5363,0,0,1-.054.70626A4.24763,4.24763,0,0,1,52.541,56.54887a3.77344,3.77344,0,0,1-3.68939-3.72743q.00587-5.432.01-10.86409Z" fill="#fed05c"/><path id="Path_481" data-name="Path 481" d="M93.47047,63.57154q-5.55606.022-11.11419.046c-.42021,0-.83833.028-1.25854.044a1.977,1.977,0,0,0,.41618,1.01638,9.55777,9.55777,0,0,1,1.04641,5.65815c-.072.64422.08805.69624.64624.69227,2.20079-.014,4.3857,0,6.57854,0l.34217-.082c.052-.09806.138-.094.23215-.066a4.20175,4.20175,0,0,0,2.76508-2.3469c.116-.22811.084-.52217.34608-.68226Z" fill="#344a5e"/><path id="Path_482" data-name="Path 482" d="M41.03265,63.58353v-31.78c-6.04428,0-12.08654.02-18.13088-.01A4.98993,4.98993,0,0,0,19.2644,33.178Q13.46216,38.62407,7.626,44.04013a2.86913,2.86913,0,0,0-.98237,2.13081q0,8.72428.012,17.44459l9.46757.04c.3161-.11406.44414-.40014.62426-.62624a11.70043,11.70043,0,0,1,16.46119-1.68225q.04973.04053.09909.08164c.80029.67826,1.38651,1.52456,2.15682,2.22084ZM23.75414,52.45731c-3.38928,0-6.77857-.018-10.16785.016-.67823,0-.86636-.18006-.8423-.80029.05-1.26848.03-2.53895,0-3.80143a1.29649,1.29649,0,0,1,.44817-1.05038Q17.93,42.33952,22.63372,37.8178a1.55465,1.55465,0,0,1,1.20047-.45018c3.38928.016,6.77856.028,10.16785,0,.69227,0,.83832.20009.8343.80029q-.03609,6.74257,0,13.48511c0,.69027-.24009.82032-.91637.81431C30.5327,52.44132,27.14342,52.45731,23.75414,52.45731Z" fill="#f44800"/><path id="Path_483" data-name="Path 483" d="M89.78513,71.03433c-2.20079,0-4.3857-.018-6.57854,0-.5582,0-.71829-.048-.64624-.69228a9.5577,9.5577,0,0,0-1.04642-5.65815,1.97478,1.97478,0,0,1-.41617-1.01637c-.28808-.09806-.41813-.34413-.58225-.55423a11.65625,11.65625,0,0,0-18.26094.024,6.49968,6.49968,0,0,1-.50825.52021c.04005.43816-.33814.71029-.50825,1.06242a10.71253,10.71253,0,0,0-1.00038,5.6281c.04006.50819-.138.69027-.70632.69027q-11.26232-.028-22.52451-.022l-.15607.20008c7.60285-.014,15.18971-.02,22.78267-.062.63818,0,.80035.24411.93236.73428a10.91413,10.91413,0,0,0,9.54157,7.763A11.16827,11.16827,0,0,0,82.23,71.94666a.90484.90484,0,0,1,1.06046-.80029c1.74871.042,3.50133.018,5.252.012A3.28862,3.28862,0,0,0,89.78513,71.03433Zm-18.407-6.86661a5.24393,5.24393,0,0,1,5.4431,5.037l.001.02692a5.43477,5.43477,0,0,1-10.84406.026,5.2019,5.2019,0,0,1,5.30877-5.09287q.04964.001.09928.003Z" fill="#455c6b"/><path id="Path_484" data-name="Path 484" d="M36.84506,71.20444l.15607-.20009a13.55967,13.55967,0,0,0-.66023-5.42405,8.24854,8.24854,0,0,1-.87631-1.93274c-.77031-.69625-1.35653-1.54258-2.15682-2.22081a11.70042,11.70042,0,0,0-16.47864,1.50148q-.04113.04928-.08164.0991c-.178.23208-.3081.51222-.62426.62621a1.15277,1.15277,0,0,1-.23007.66829,9.4575,9.4575,0,0,0-1.18843,6.26836c.084.5102-.2661.43015-.56223.43217-1.24247.016-2.48495.022-3.72742.03a16.96889,16.96889,0,0,0,3.61935.12206c.53218,0,.77428.12407.92234.65222a11.1042,11.1042,0,0,0,10.85812,7.907,11.13424,11.13424,0,0,0,10.87209-8.003C36.73906,71.56053,36.793,71.38248,36.84506,71.20444ZM31.225,69.2397a5.43634,5.43634,0,0,1-10.8481.01,5.232,5.232,0,0,1,5.37637-5.08347l.04768.00153a5.214,5.214,0,0,1,5.42161,4.99774l.00244.07223Z" fill="#425a6b"/><path id="Path_485" data-name="Path 485" d="M10.41911,71.05438c1.24247,0,2.48495-.014,3.72742-.03.29412,0,.64423.078.56021-.43217a9.45752,9.45752,0,0,1,1.18844-6.26836,1.15283,1.15283,0,0,0,.23007-.66828l-9.46758-.04c0,1.15845-.09006,2.32088,0,3.47329a4.03149,4.03149,0,0,0,2.20085,3.34929h.068l.026.058.14007.082c.1-.034.178-.022.20008.092a.12.12,0,0,0,.13006.066c.09006-.03.17-.038.20009.076l.20008.07c.126-.024.25413-.048.33015.09006Z" fill="#354a5e"/><path id="Path_486" data-name="Path 486" d="M10.141,70.97431c-.076-.13806-.20009-.11406-.33015-.09006C9.88888,71.01632,10.00892,71.01632,10.141,70.97431Z" fill="#425a6b"/><path id="Path_487" data-name="Path 487" d="M9.29466,70.67225c-.024-.11406-.102-.126-.20009-.092C9.12058,70.68825,9.19666,70.70822,9.29466,70.67225Z" fill="#425a6b"/><path id="Path_488" data-name="Path 488" d="M9.62083,70.80627c-.026-.114-.10606-.106-.20009-.076C9.45475,70.84431,9.5268,70.85231,9.62083,70.80627Z" fill="#425a6b"/><path id="Path_489" data-name="Path 489" d="M90.35933,70.88828c-.094-.028-.18013-.032-.23215.066a.164.164,0,0,0,.22555-.05422Z" fill="#455c6b"/><path id="Path_490" data-name="Path 490" d="M8.95255,70.49616l-.026-.058h-.068l.024.062Z" fill="#425a6b"/><path id="Path_491" data-name="Path 491" d="M86.00768,41.90133V31.03522a3.81946,3.81946,0,0,0-3.69134-3.82145A3.96348,3.96348,0,0,0,78.17879,30.539a11.73213,11.73213,0,0,0-.14007,2.04478V52.41132a4.00825,4.00825,0,0,0,7.983.59223C85.97764,49.30412,86.00573,45.60274,86.00768,41.90133Z" fill="#f6b54c"/><path id="Path_492" data-name="Path 492" d="M63.44914,42.03139c0,3.54135.02405,7.08468,0,10.626a3.85543,3.85543,0,0,0,3.84471,3.86621q.0784.00023.1568-.00275A3.77937,3.77937,0,0,0,71.4082,52.9284q.00587-.12237.00391-.245c.036-7.18872,0-14.37943.01795-21.56816A4.0015,4.0015,0,0,0,65.70988,27.618,3.74739,3.74739,0,0,0,63.459,31.16928C63.43717,34.78863,63.44914,38.404,63.44914,42.03139Z" fill="#f6b54c"/><path id="Path_493" data-name="Path 493" d="M48.85366,41.95736v10.8641a3.77341,3.77341,0,0,0,3.68939,3.72742,4.24762,4.24762,0,0,0,4.05952-2.773,2.54531,2.54531,0,0,0,.052-.70626V30.7071a3.77941,3.77941,0,0,0-3.83348-3.49332,3.88139,3.88139,0,0,0-3.96146,3.48331Q48.85066,36.32723,48.85366,41.95736Z" fill="#f6b54c"/><path id="Path_494" data-name="Path 494" d="M35.46461,63.6536a8.24287,8.24287,0,0,0,.87631,1.93274,13.5599,13.5599,0,0,1,.66028,5.424q11.26232,0,22.52452.022c.5682,0,.74833-.18207.70632-.69026A10.71,10.71,0,0,1,61.23242,64.714c.1701-.35212.54818-.62426.50824-1.06241-2.36686-.012-4.73384-.028-7.1007-.034q-6.80258-.02-13.60513-.034Z" fill="#344a5e"/><path id="Path_495" data-name="Path 495" d="M23.75215,52.45934c3.38929,0,6.77857-.016,10.16785.014.67427,0,.92033-.124.91637-.8143q-.05-6.74257,0-13.48512c0-.60023-.14209-.81632-.8343-.80029-3.38929.034-6.77857.024-10.16785,0a1.55647,1.55647,0,0,0-1.20047.45018Q17.93,42.33753,13.19219,46.82723a1.29653,1.29653,0,0,0-.44817,1.05039c.024,1.26848.042,2.539,0,3.80142-.024.62023.16407.80029.8423.80029C16.97359,52.43931,20.36287,52.45934,23.75215,52.45934Z" fill="#415a6b"/><path id="Path_496" data-name="Path 496" d="M71.38819,64.16775a5.20206,5.20206,0,0,0-5.39938,4.99682c-.0011.03035-.00208.06069-.00269.0911a5.435,5.435,0,1,0,5.4271-5.08884Z" fill="#e6e8e7"/><path id="Path_497" data-name="Path 497" d="M31.225,69.23766a5.214,5.214,0,0,0-5.34986-5.07443l-.07419.0025A5.232,5.232,0,0,0,20.37838,69.2l-.00153.04769a5.43634,5.43634,0,0,0,10.8481-.01Z" fill="#e6e8e7"/></g></svg>